<svg width="350" height="103" viewBox="0 0 350 103" fill="none" xmlns="http://www.w3.org/2000/svg">
<g clip-path="url(#clip0_351_6402)">
<path d="M32.68 48.84C36.22 48.84 39.1 47.76 41.32 45.66C43.54 43.56 44.92 40.68 45.46 36.9H41.68C41.56 38.16 41.26 39.36 40.72 40.44C40.18 41.52 39.52 42.42 38.74 43.2C37.96 43.98 37 44.64 35.98 45.06C34.96 45.48 33.82 45.72 32.68 45.72C30.88 45.72 29.32 45.36 27.94 44.58C26.56 43.8 25.48 42.84 24.58 41.58C23.68 40.32 22.96 38.94 22.54 37.32C22.06 35.76 21.82 34.14 21.82 32.52C21.82 30.9 22.06 29.28 22.54 27.66C22.96 26.1 23.68 24.72 24.58 23.46C25.48 22.2 26.56 21.24 27.94 20.46C29.32 19.68 30.88 19.32 32.68 19.32C35.2 19.32 37.18 19.98 38.56 21.3C39.94 22.62 40.9 24.42 41.44 26.76H45.22C44.8 23.22 43.42 20.52 41.14 18.78C38.8 17.04 35.98 16.14 32.68 16.14C30.34 16.14 28.24 16.56 26.44 17.46C24.58 18.36 23.08 19.5 21.82 21C20.56 22.5 19.66 24.24 19 26.22C18.34 28.2 18.04 30.3 18.04 32.52C18.04 34.74 18.34 36.84 19 38.82C19.66 40.8 20.56 42.54 21.82 44.04C23.08 45.54 24.58 46.68 26.44 47.52C28.24 48.42 30.34 48.84 32.68 48.84ZM63.7933 48.84C66.1333 48.84 68.2333 48.42 70.0933 47.52C71.8933 46.68 73.3933 45.54 74.6533 44.04C75.9133 42.54 76.8133 40.8 77.4733 38.82C78.1333 36.84 78.4333 34.74 78.4333 32.52C78.4333 30.3 78.1333 28.2 77.4733 26.22C76.8133 24.24 75.9133 22.5 74.6533 21C73.3933 19.5 71.8933 18.36 70.0933 17.46C68.2333 16.56 66.1333 16.14 63.7933 16.14C61.4533 16.14 59.3533 16.56 57.5533 17.46C55.6933 18.36 54.1933 19.5 52.9333 21C51.6733 22.5 50.7733 24.24 50.1133 26.22C49.4533 28.2 49.1533 30.3 49.1533 32.52C49.1533 34.74 49.4533 36.84 50.1133 38.82C50.7733 40.8 51.6733 42.54 52.9333 44.04C54.1933 45.54 55.6933 46.68 57.5533 47.52C59.3533 48.42 61.4533 48.84 63.7933 48.84ZM63.7933 45.72C61.9933 45.72 60.4333 45.36 59.0533 44.58C57.6733 43.8 56.5933 42.84 55.6933 41.58C54.7933 40.32 54.0733 38.94 53.6533 37.32C53.1733 35.76 52.9333 34.14 52.9333 32.52C52.9333 30.9 53.1733 29.28 53.6533 27.66C54.0733 26.1 54.7933 24.72 55.6933 23.46C56.5933 22.2 57.6733 21.24 59.0533 20.46C60.4333 19.68 61.9933 19.32 63.7933 19.32C65.5933 19.32 67.1533 19.68 68.5333 20.46C69.9133 21.24 71.0533 22.2 71.9533 23.46C72.8533 24.72 73.5133 26.1 73.9933 27.66C74.4133 29.28 74.6533 30.9 74.6533 32.52C74.6533 34.14 74.4133 35.76 73.9933 37.32C73.5133 38.94 72.8533 40.32 71.9533 41.58C71.0533 42.84 69.9133 43.8 68.5333 44.58C67.1533 45.36 65.5933 45.72 63.7933 45.72ZM87.8331 32.94V17.04H84.0531V48H87.8331V37.56L94.1331 31.74L106.073 48H110.813L96.8931 29.16L110.033 17.04H104.993L87.8331 32.94ZM127.016 48.84C129.356 48.84 131.456 48.42 133.316 47.52C135.116 46.68 136.616 45.54 137.876 44.04C139.136 42.54 140.036 40.8 140.696 38.82C141.356 36.84 141.656 34.74 141.656 32.52C141.656 30.3 141.356 28.2 140.696 26.22C140.036 24.24 139.136 22.5 137.876 21C136.616 19.5 135.116 18.36 133.316 17.46C131.456 16.56 129.356 16.14 127.016 16.14C124.676 16.14 122.576 16.56 120.776 17.46C118.916 18.36 117.416 19.5 116.156 21C114.896 22.5 113.996 24.24 113.336 26.22C112.676 28.2 112.376 30.3 112.376 32.52C112.376 34.74 112.676 36.84 113.336 38.82C113.996 40.8 114.896 42.54 116.156 44.04C117.416 45.54 118.916 46.68 120.776 47.52C122.576 48.42 124.676 48.84 127.016 48.84ZM127.016 45.72C125.216 45.72 123.656 45.36 122.276 44.58C120.896 43.8 119.816 42.84 118.916 41.58C118.016 40.32 117.296 38.94 116.876 37.32C116.396 35.76 116.156 34.14 116.156 32.52C116.156 30.9 116.396 29.28 116.876 27.66C117.296 26.1 118.016 24.72 118.916 23.46C119.816 22.2 120.896 21.24 122.276 20.46C123.656 19.68 125.216 19.32 127.016 19.32C128.816 19.32 130.376 19.68 131.756 20.46C133.136 21.24 134.276 22.2 135.176 23.46C136.076 24.72 136.736 26.1 137.216 27.66C137.636 29.28 137.876 30.9 137.876 32.52C137.876 34.14 137.636 35.76 137.216 37.32C136.736 38.94 136.076 40.32 135.176 41.58C134.276 42.84 133.136 43.8 131.756 44.58C130.376 45.36 128.816 45.72 127.016 45.72ZM146.916 48.3C147.756 48.3 148.596 48.24 149.436 48.12C150.216 47.94 150.996 47.58 151.776 46.98C152.496 46.44 153.156 45.54 153.816 44.34C154.476 43.14 155.016 41.52 155.496 39.42C155.976 37.32 156.336 34.74 156.636 31.62C156.876 28.5 156.996 24.72 156.996 20.22H170.256V48H174.036V17.04H153.336C153.336 21.6 153.216 25.44 153.036 28.56C152.856 31.74 152.556 34.32 152.256 36.36C151.956 38.46 151.536 40.08 151.116 41.22C150.696 42.36 150.216 43.2 149.736 43.74C149.256 44.28 148.776 44.64 148.296 44.76C147.816 44.88 147.396 44.94 146.976 44.94C146.556 44.94 146.016 44.88 145.356 44.82C144.696 44.76 144.216 44.64 143.916 44.52V47.82C144.036 47.88 144.216 47.88 144.516 47.94C144.756 48.06 145.056 48.06 145.356 48.12L146.196 48.24C146.496 48.3 146.736 48.3 146.916 48.3ZM185.222 29.46V17.04H181.442V48H196.322C199.322 48 201.722 47.16 203.462 45.48C205.202 43.86 206.102 41.58 206.102 38.64C206.102 35.7 205.202 33.48 203.462 31.86C201.722 30.24 199.322 29.46 196.322 29.46H185.222ZM195.422 44.82H185.222V32.64H195.422C197.582 32.64 199.262 33.12 200.522 34.08C201.722 35.1 202.322 36.6 202.322 38.64C202.322 40.68 201.722 42.24 200.522 43.26C199.262 44.28 197.582 44.82 195.422 44.82ZM224.282 48.84C227.822 48.84 230.702 47.76 232.922 45.66C235.142 43.56 236.522 40.68 237.062 36.9H233.282C233.162 38.16 232.862 39.36 232.322 40.44C231.782 41.52 231.122 42.42 230.342 43.2C229.562 43.98 228.602 44.64 227.582 45.06C226.562 45.48 225.422 45.72 224.282 45.72C222.482 45.72 220.922 45.36 219.542 44.58C218.162 43.8 217.082 42.84 216.182 41.58C215.282 40.32 214.562 38.94 214.142 37.32C213.662 35.76 213.422 34.14 213.422 32.52C213.422 30.9 213.662 29.28 214.142 27.66C214.562 26.1 215.282 24.72 216.182 23.46C217.082 22.2 218.162 21.24 219.542 20.46C220.922 19.68 222.482 19.32 224.282 19.32C226.802 19.32 228.782 19.98 230.162 21.3C231.542 22.62 232.502 24.42 233.042 26.76H236.822C236.402 23.22 235.022 20.52 232.742 18.78C230.402 17.04 227.582 16.14 224.282 16.14C221.942 16.14 219.842 16.56 218.042 17.46C216.182 18.36 214.682 19.5 213.422 21C212.162 22.5 211.262 24.24 210.602 26.22C209.942 28.2 209.642 30.3 209.642 32.52C209.642 34.74 209.942 36.84 210.602 38.82C211.262 40.8 212.162 42.54 213.422 44.04C214.682 45.54 216.182 46.68 218.042 47.52C219.842 48.42 221.942 48.84 224.282 48.84ZM246.095 32.94V17.04H242.315V48H246.095V37.56L252.395 31.74L264.335 48H269.075L255.155 29.16L268.295 17.04H263.255L246.095 32.94ZM275.918 43.56V17.04H272.138V48H276.818L293.918 21.48V48H297.698V17.04H293.018L275.918 43.56ZM317.434 12.48C319.954 12.48 321.934 11.82 323.374 10.44C324.814 9.12 325.774 7.2 326.194 4.68H323.854C323.554 6.24 322.834 7.44 321.754 8.28C320.614 9.18 319.234 9.6 317.494 9.6C315.694 9.6 314.254 9.18 313.234 8.28C312.154 7.38 311.494 6.18 311.314 4.68H308.974C309.274 7.2 310.174 9.12 311.554 10.44C312.934 11.82 314.914 12.48 317.434 12.48ZM308.554 43.56V17.04H304.774V48H309.454L326.554 21.48V48H330.334V17.04H325.654L308.554 43.56Z" fill="#F9F8F6"/>
<path d="M127.218 86.9281C126.565 86.9281 126.238 86.5377 126.238 85.7569C126.238 85.2065 126.411 84.4513 126.757 83.4913C127.102 82.5313 127.448 81.6993 127.794 80.9953C128.421 79.7665 128.869 78.9217 129.138 78.4609C129.432 75.7089 129.694 73.7377 129.925 72.5473C129.618 72.5857 129.31 72.6049 129.003 72.6049C128.696 72.6049 128.51 72.4449 128.446 72.1249C128.446 71.8689 128.523 71.7217 128.677 71.6833C128.728 71.7601 128.914 71.7985 129.234 71.7985C129.554 71.7985 129.842 71.7857 130.098 71.7601C130.93 67.9329 132.35 66.0193 134.36 66.0193C134.616 66.0193 134.738 66.1153 134.725 66.3073C134.712 66.4353 134.667 66.4993 134.59 66.4993C133.72 66.4993 133.022 66.9537 132.498 67.8625C131.973 68.7713 131.55 70.0449 131.23 71.6833C132.754 71.5681 133.682 71.5105 134.014 71.5105C134.13 71.5105 134.174 71.5873 134.149 71.7409C134.136 71.8945 134.008 71.9713 133.765 71.9713C133.522 71.9713 132.632 72.0993 131.096 72.3553C130.93 73.3025 130.75 74.6785 130.558 76.4833C130.379 78.2881 130.232 79.6641 130.117 80.6113C130.002 81.5585 129.867 82.3905 129.714 83.1073C129.56 83.8241 129.374 84.4833 129.157 85.0849C128.709 86.3137 128.062 86.9281 127.218 86.9281ZM127.237 86.3713C127.634 86.3713 127.934 86.0385 128.139 85.3729C128.37 84.6433 128.536 83.8817 128.638 83.0881C128.792 81.8977 128.926 80.6753 129.042 79.4209C128.082 81.4561 127.499 82.8001 127.294 83.4529C126.949 84.5537 126.776 85.3153 126.776 85.7377C126.776 86.1601 126.93 86.3713 127.237 86.3713ZM134.936 69.1105C134.782 69.1105 134.699 68.9825 134.686 68.7265C134.686 67.9201 134.821 67.1777 135.09 66.4993C135.371 65.8209 135.717 65.4817 136.126 65.4817C136.28 65.4817 136.357 65.5777 136.357 65.7697C136.267 65.9105 136.184 66.0385 136.107 66.1537C136.03 66.2689 135.947 66.4033 135.858 66.5569C135.781 66.7105 135.698 66.8833 135.608 67.0753C135.518 67.2673 135.435 67.4593 135.358 67.6513C135.192 68.0737 135.109 68.4833 135.109 68.8801C135.109 69.0337 135.051 69.1105 134.936 69.1105ZM136.78 83.7217C136.038 83.7217 135.488 83.3313 135.129 82.5505C134.784 81.7697 134.611 80.5985 134.611 79.0369C134.611 77.4753 134.841 75.6257 135.302 73.4881C135.763 71.3505 136.3 69.5777 136.915 68.1697C137.542 66.7617 138.086 66.0577 138.547 66.0577C138.764 66.0577 138.873 66.1857 138.873 66.4417C138.604 67.0561 138.265 67.9841 137.856 69.2257C137.446 70.4545 137.1 71.5937 136.819 72.6433C136.55 73.6929 136.3 74.9217 136.07 76.3297C135.852 77.7377 135.744 78.9473 135.744 79.9585C135.744 80.9569 135.84 81.7249 136.032 82.2625C136.236 82.8129 136.512 83.0881 136.857 83.0881C137.152 83.0881 137.433 82.9473 137.702 82.6657C137.971 82.3969 138.163 82.1281 138.278 81.8593C138.342 81.7185 138.457 81.6801 138.624 81.7441C138.688 81.7697 138.7 81.8209 138.662 81.8977C138.636 81.9873 138.585 82.0961 138.508 82.2241C138.444 82.3521 138.323 82.5505 138.144 82.8193C137.76 83.4209 137.305 83.7217 136.78 83.7217ZM139.535 86.9281C140.687 86.9281 141.589 86.3841 142.242 85.2961C142.805 84.3361 143.24 83.1393 143.547 81.7057C141.231 81.7569 139.451 82.6401 138.21 84.3553C138.133 84.4705 138.011 84.4897 137.845 84.4129C137.755 84.3617 137.73 84.2977 137.768 84.2209C138.319 83.3889 139.087 82.6785 140.072 82.0897C141.058 81.5137 142.255 81.2001 143.663 81.1489C143.803 80.5089 143.938 79.7601 144.066 78.9025C144.194 78.0449 144.341 77.2129 144.507 76.4065H144.335C142.671 79.3633 141.403 80.8417 140.533 80.8417C139.56 80.8417 139.074 80.0929 139.074 78.5953C139.074 77.0977 139.394 75.5937 140.034 74.0833C140.674 72.5601 141.256 71.7409 141.781 71.6257L141.896 71.6065C142.114 71.6065 142.223 71.7473 142.223 72.0289C142.082 72.3745 141.903 72.8289 141.685 73.3921C141.467 73.9425 141.179 74.8577 140.821 76.1377C140.463 77.4049 140.283 78.3969 140.283 79.1137C140.283 79.8177 140.437 80.1697 140.744 80.1697C141.103 80.1697 141.679 79.5489 142.472 78.3073C143.637 76.4897 144.648 74.6465 145.506 72.7777C145.877 71.9969 146.274 71.6065 146.696 71.6065C146.965 71.6065 147.099 71.7537 147.099 72.0481C146.856 72.4961 146.562 73.3345 146.216 74.5633C145.871 75.7921 145.589 77.0337 145.371 78.2881C145.154 79.5297 144.968 80.5025 144.815 81.2065C145.787 81.3729 146.351 81.7953 146.504 82.4737C146.53 82.5889 146.543 82.7425 146.543 82.9345C146.543 83.1393 146.466 83.3121 146.312 83.4529C146.159 83.6065 146.024 83.6833 145.909 83.6833C145.935 83.5937 145.941 83.4337 145.928 83.2033C145.915 82.9857 145.871 82.8001 145.794 82.6465C145.73 82.4929 145.602 82.3329 145.41 82.1665C145.218 82.0001 144.968 81.8785 144.661 81.8017C143.675 85.5137 141.967 87.3697 139.535 87.3697C138.485 87.3697 137.787 86.9985 137.442 86.2561C137.429 86.2177 137.423 86.1857 137.423 86.1601C137.423 86.0833 137.493 86.0321 137.634 86.0065C137.762 85.9937 137.858 86.0385 137.922 86.1409C138.152 86.6657 138.69 86.9281 139.535 86.9281ZM148.426 79.2865C148.426 77.3921 148.618 75.7025 149.002 74.2177C149.399 72.7329 149.898 71.9905 150.5 71.9905C150.794 71.9905 150.941 72.1505 150.941 72.4705C150.813 72.8033 150.653 73.2449 150.461 73.7953C150.269 74.3457 150.013 75.3441 149.693 76.7905C149.386 78.2241 149.232 79.5041 149.232 80.6305C149.232 80.8097 149.136 80.8993 148.944 80.8993C148.599 80.8993 148.426 80.3617 148.426 79.2865ZM150.999 70.1857C150.73 70.1857 150.596 69.9297 150.596 69.4177C150.596 69.1105 150.679 68.7905 150.845 68.4577C151.012 68.1121 151.248 67.9393 151.556 67.9393C151.812 67.9393 151.94 68.0865 151.94 68.3809C151.94 68.6753 151.703 69.1681 151.229 69.8593L150.999 70.1857ZM153.6 77.8081C155.252 73.7249 156.858 71.6833 158.42 71.6833C159.072 71.6833 159.399 71.9969 159.399 72.6241C159.309 72.9185 159.194 73.3089 159.053 73.7953C158.912 74.2689 158.72 75.1265 158.477 76.3681C158.247 77.6097 158.132 78.6977 158.132 79.6321C158.132 80.9889 158.33 81.6673 158.727 81.6673C158.88 81.6673 159.028 81.6033 159.168 81.4753C159.309 81.3601 159.405 81.3025 159.456 81.3025C159.636 81.3025 159.636 81.4433 159.456 81.7249C159.392 81.8145 159.271 81.9361 159.092 82.0897C158.925 82.2433 158.752 82.3201 158.573 82.3201C158.087 82.3201 157.703 81.9681 157.421 81.2641C157.152 80.5729 157.018 79.6705 157.018 78.5569C157.018 76.7905 157.293 74.8513 157.844 72.7393C157.895 72.5729 157.844 72.4897 157.69 72.4897C157.588 72.4897 157.472 72.5409 157.344 72.6433C156.73 73.1809 156.084 74.0705 155.405 75.3121C154.727 76.5537 154.196 77.6673 153.812 78.6529C153.428 79.6257 153.236 80.1953 153.236 80.3617C153.236 80.5153 153.146 80.5921 152.967 80.5921C152.557 80.5921 152.352 80.0865 152.352 79.0753C152.352 77.1681 152.544 75.4401 152.928 73.8913C153.325 72.3425 153.799 71.5681 154.349 71.5681C154.58 71.5681 154.695 71.7089 154.695 71.9905C154.106 73.8977 153.684 75.8369 153.428 77.8081H153.6ZM162.356 80.9185C161.306 80.9185 160.781 80.0929 160.781 78.4417C160.781 77.4561 161.024 76.3745 161.511 75.1969C162.189 73.5457 163.079 72.4193 164.18 71.8177C164.653 71.5617 165.095 71.4337 165.504 71.4337C165.914 71.4337 166.234 71.5233 166.464 71.7025C166.708 71.8817 166.861 72.0609 166.925 72.2401L167.04 72.4897C167.002 72.7073 166.893 72.8161 166.714 72.8161C166.509 72.8161 166.388 72.7713 166.349 72.6817C166.324 72.5793 166.292 72.4961 166.253 72.4321C166.215 72.3553 166.125 72.2593 165.984 72.1441C165.844 72.0161 165.684 71.9521 165.504 71.9521C164.672 71.9521 163.917 72.7009 163.239 74.1985C162.471 75.9265 162.087 77.5521 162.087 79.0753C162.087 79.8433 162.24 80.2273 162.548 80.2273C162.97 80.2273 163.648 79.4913 164.583 78.0193C165.53 76.5345 166.381 75.0177 167.136 73.4689C167.52 72.6881 167.924 72.2977 168.346 72.2977C168.615 72.2977 168.749 72.4513 168.749 72.7585C168.698 72.8481 168.621 72.9953 168.519 73.2001C168.416 73.4049 168.231 73.9937 167.962 74.9665C167.693 75.9265 167.45 77.0337 167.232 78.2881C167.015 79.5297 166.829 80.5025 166.676 81.2065C167.648 81.3729 168.212 81.7953 168.365 82.4737C168.391 82.5889 168.404 82.7425 168.404 82.9345C168.404 83.1393 168.327 83.3121 168.173 83.4529C168.02 83.6065 167.885 83.6833 167.77 83.6833C167.796 83.5937 167.802 83.4337 167.789 83.2033C167.776 82.9857 167.732 82.8001 167.655 82.6465C167.591 82.4929 167.463 82.3329 167.271 82.1665C167.079 82.0001 166.829 81.8785 166.522 81.8017C166.125 83.3633 165.556 84.6497 164.813 85.6609C163.968 86.8001 162.829 87.3697 161.396 87.3697C160.346 87.3697 159.648 86.9985 159.303 86.2561C159.29 86.2177 159.284 86.1857 159.284 86.1601C159.284 86.0833 159.354 86.0257 159.495 85.9873C159.636 85.9617 159.732 86.0129 159.783 86.1409C160.013 86.6657 160.551 86.9281 161.396 86.9281C162.548 86.9281 163.444 86.3841 164.084 85.2961C164.66 84.3361 165.101 83.1393 165.408 81.7057C163.104 81.7569 161.325 82.6401 160.071 84.3553C159.994 84.4705 159.872 84.4897 159.706 84.4129C159.616 84.3617 159.591 84.2977 159.629 84.2209C160.18 83.3889 160.948 82.6785 161.933 82.0897C162.919 81.5137 164.116 81.2001 165.524 81.1489C165.664 80.5089 165.786 79.8369 165.888 79.1329C166.004 78.4161 166.1 77.8529 166.176 77.4433C166.253 77.0337 166.304 76.7393 166.33 76.5601H166.119C164.429 79.4657 163.175 80.9185 162.356 80.9185ZM178.229 75.3505C177.551 76.5793 177.02 77.6673 176.636 78.6145C176.265 79.5617 176.079 80.1249 176.079 80.3041C176.079 80.4705 175.989 80.5537 175.81 80.5537C175.426 80.5537 175.234 80.0417 175.234 79.0177C175.234 76.9825 175.439 74.9409 175.849 72.8929C176.258 70.8321 176.745 69.1873 177.308 67.9585C177.871 66.7169 178.396 66.0961 178.882 66.0961C179.087 66.0961 179.189 66.1985 179.189 66.4033C178.511 67.9009 177.941 69.6097 177.481 71.5297C177.033 73.4497 176.655 75.4977 176.348 77.6737H176.482C178.108 73.6801 179.701 71.6833 181.263 71.6833C181.916 71.6833 182.242 71.9969 182.242 72.6241C182.153 72.9185 182.037 73.3089 181.897 73.7953C181.756 74.2689 181.57 75.1265 181.34 76.3681C181.109 77.6097 180.994 78.6977 180.994 79.6321C180.994 80.9889 181.193 81.6673 181.589 81.6673C181.73 81.6673 181.871 81.6033 182.012 81.4753C182.153 81.3601 182.249 81.3025 182.3 81.3025C182.479 81.3025 182.473 81.4433 182.281 81.7249C182.229 81.8145 182.114 81.9361 181.935 82.0897C181.769 82.2433 181.602 82.3201 181.436 82.3201C180.937 82.3201 180.546 81.9681 180.265 81.2641C179.996 80.5729 179.861 79.6705 179.861 78.5569C179.861 76.6753 180.143 74.7361 180.706 72.7393C180.732 72.5473 180.655 72.4641 180.476 72.4897C180.386 72.5025 180.297 72.5537 180.207 72.6433C179.567 73.2193 178.908 74.1217 178.229 75.3505ZM183.981 79.2865C183.981 77.3921 184.173 75.7025 184.557 74.2177C184.953 72.7329 185.453 71.9905 186.054 71.9905C186.349 71.9905 186.496 72.1505 186.496 72.4705C186.368 72.8033 186.208 73.2449 186.016 73.7953C185.824 74.3457 185.568 75.3441 185.248 76.7905C184.941 78.2241 184.787 79.5041 184.787 80.6305C184.787 80.8097 184.691 80.8993 184.499 80.8993C184.153 80.8993 183.981 80.3617 183.981 79.2865ZM186.553 70.1857C186.285 70.1857 186.15 69.9297 186.15 69.4177C186.15 69.1105 186.233 68.7905 186.4 68.4577C186.566 68.1121 186.803 67.9393 187.11 67.9393C187.366 67.9393 187.494 68.0865 187.494 68.3809C187.494 68.6753 187.257 69.1681 186.784 69.8593L186.553 70.1857ZM189.309 80.9185C188.259 80.9185 187.734 80.0929 187.734 78.4417C187.734 77.4561 187.978 76.3745 188.464 75.1969C189.142 73.5457 190.032 72.4193 191.133 71.8177C191.606 71.5617 192.048 71.4337 192.458 71.4337C192.867 71.4337 193.187 71.5233 193.418 71.7025C193.661 71.8817 193.814 72.0609 193.878 72.2401L193.994 72.4897C193.955 72.7073 193.846 72.8161 193.667 72.8161C193.462 72.8161 193.341 72.7713 193.302 72.6817C193.277 72.5793 193.245 72.4961 193.206 72.4321C193.168 72.3553 193.078 72.2593 192.938 72.1441C192.797 72.0161 192.637 71.9521 192.458 71.9521C191.626 71.9521 190.87 72.7009 190.192 74.1985C189.424 75.9265 189.04 77.5521 189.04 79.0753C189.04 79.8433 189.194 80.2273 189.501 80.2273C189.923 80.2273 190.602 79.4913 191.536 78.0193C192.483 76.5345 193.334 75.0177 194.09 73.4689C194.474 72.6881 194.877 72.2977 195.299 72.2977C195.568 72.2977 195.702 72.4513 195.702 72.7585C195.651 72.8481 195.574 72.9953 195.472 73.2001C195.37 73.4049 195.184 73.9937 194.915 74.9665C194.646 75.9265 194.403 77.0337 194.186 78.2881C193.968 79.5297 193.782 80.5025 193.629 81.2065C194.602 81.3729 195.165 81.7953 195.318 82.4737C195.344 82.5889 195.357 82.7425 195.357 82.9345C195.357 83.1393 195.28 83.3121 195.126 83.4529C194.973 83.6065 194.838 83.6833 194.723 83.6833C194.749 83.5937 194.755 83.4337 194.742 83.2033C194.73 82.9857 194.685 82.8001 194.608 82.6465C194.544 82.4929 194.416 82.3329 194.224 82.1665C194.032 82.0001 193.782 81.8785 193.475 81.8017C193.078 83.3633 192.509 84.6497 191.766 85.6609C190.922 86.8001 189.782 87.3697 188.349 87.3697C187.299 87.3697 186.602 86.9985 186.256 86.2561C186.243 86.2177 186.237 86.1857 186.237 86.1601C186.237 86.0833 186.307 86.0257 186.448 85.9873C186.589 85.9617 186.685 86.0129 186.736 86.1409C186.966 86.6657 187.504 86.9281 188.349 86.9281C189.501 86.9281 190.397 86.3841 191.037 85.2961C191.613 84.3361 192.054 83.1393 192.362 81.7057C190.058 81.7569 188.278 82.6401 187.024 84.3553C186.947 84.4705 186.826 84.4897 186.659 84.4129C186.57 84.3617 186.544 84.2977 186.582 84.2209C187.133 83.3889 187.901 82.6785 188.886 82.0897C189.872 81.5137 191.069 81.2001 192.477 81.1489C192.618 80.5089 192.739 79.8369 192.842 79.1329C192.957 78.4161 193.053 77.8529 193.13 77.4433C193.206 77.0337 193.258 76.7393 193.283 76.5601H193.072C191.382 79.4657 190.128 80.9185 189.309 80.9185ZM200.05 75.3505C199.371 76.5793 198.84 77.6673 198.456 78.6145C198.085 79.5617 197.899 80.1249 197.899 80.3041C197.899 80.4705 197.81 80.5537 197.631 80.5537C197.247 80.5537 197.055 80.0417 197.055 79.0177C197.055 76.9825 197.259 74.9409 197.669 72.8929C198.079 70.8321 198.565 69.1873 199.128 67.9585C199.691 66.7169 200.216 66.0961 200.703 66.0961C200.907 66.0961 201.01 66.1985 201.01 66.4033C200.331 67.9009 199.762 69.6097 199.301 71.5297C198.853 73.4497 198.475 75.4977 198.168 77.6737H198.303C199.928 73.6801 201.522 71.6833 203.083 71.6833C203.736 71.6833 204.063 71.9969 204.063 72.6241C203.973 72.9185 203.858 73.3089 203.717 73.7953C203.576 74.2689 203.391 75.1265 203.16 76.3681C202.93 77.6097 202.815 78.6977 202.815 79.6321C202.815 80.9889 203.013 81.6673 203.41 81.6673C203.551 81.6673 203.691 81.6033 203.832 81.4753C203.973 81.3601 204.069 81.3025 204.12 81.3025C204.299 81.3025 204.293 81.4433 204.101 81.7249C204.05 81.8145 203.935 81.9361 203.755 82.0897C203.589 82.2433 203.423 82.3201 203.256 82.3201C202.757 82.3201 202.367 81.9681 202.085 81.2641C201.816 80.5729 201.682 79.6705 201.682 78.5569C201.682 76.6753 201.963 74.7361 202.527 72.7393C202.552 72.5473 202.475 72.4641 202.296 72.4897C202.207 72.5025 202.117 72.5537 202.027 72.6433C201.387 73.2193 200.728 74.1217 200.05 75.3505Z" fill="#F9F8F6"/>
<path d="M28.6445 74.6665L113.101 74.6665" stroke="#F9F8F6" stroke-width="1.5"/>
<path d="M222 75H312.543" stroke="#F9F8F6" stroke-width="1.5"/>
</g>
<defs>
<clipPath id="clip0_351_6402">
<rect width="350" height="112" fill="white"/>
</clipPath>
</defs>
</svg>
