<svg width="36" height="17" viewBox="0 0 36 17" fill="none" xmlns="http://www.w3.org/2000/svg">
<path fill-rule="evenodd" clip-rule="evenodd" d="M0.0263672 8.50017C0.0263672 8.25982 0.158176 8.02931 0.392797 7.85935C0.627418 7.6894 0.945632 7.59392 1.27744 7.59392H30.7851L22.9109 1.89179C22.676 1.72162 22.544 1.49082 22.544 1.25017C22.544 1.00951 22.676 0.778713 22.9109 0.608543C23.1458 0.438373 23.4644 0.342773 23.7967 0.342773C24.1289 0.342773 24.4475 0.438373 24.6824 0.608543L34.691 7.85854C34.8075 7.94273 34.8999 8.04273 34.963 8.15283C35.0261 8.26293 35.0585 8.38096 35.0585 8.50017C35.0585 8.61937 35.0261 8.7374 34.963 8.8475C34.8999 8.9576 34.8075 9.05761 34.691 9.14179L24.6824 16.3918C24.4475 16.562 24.1289 16.6576 23.7967 16.6576C23.4644 16.6576 23.1458 16.562 22.9109 16.3918C22.676 16.2216 22.544 15.9908 22.544 15.7502C22.544 15.5095 22.676 15.2787 22.9109 15.1085L30.7851 9.40642H1.27744C0.945632 9.40642 0.627418 9.31094 0.392797 9.14098C0.158176 8.97103 0.0263672 8.74052 0.0263672 8.50017V8.50017Z" fill="#F2F2F2"/>
</svg>
