<svg width="36" height="17" viewBox="0 0 36 17" fill="none" xmlns="http://www.w3.org/2000/svg">
<path fill-rule="evenodd" clip-rule="evenodd" d="M0.501953 8.50017C0.501953 8.25982 0.633762 8.02931 0.868383 7.85935C1.103 7.6894 1.42122 7.59392 1.75302 7.59392H31.2607L23.3865 1.89179C23.1516 1.72162 23.0196 1.49082 23.0196 1.25017C23.0196 1.00951 23.1516 0.778713 23.3865 0.608543C23.6214 0.438373 23.94 0.342773 24.2723 0.342773C24.6045 0.342773 24.9231 0.438373 25.158 0.608543L35.1666 7.85854C35.2831 7.94273 35.3755 8.04273 35.4386 8.15283C35.5016 8.26293 35.5341 8.38096 35.5341 8.50017C35.5341 8.61937 35.5016 8.7374 35.4386 8.8475C35.3755 8.9576 35.2831 9.05761 35.1666 9.14179L25.158 16.3918C24.9231 16.562 24.6045 16.6576 24.2723 16.6576C23.94 16.6576 23.6214 16.562 23.3865 16.3918C23.1516 16.2216 23.0196 15.9908 23.0196 15.7502C23.0196 15.5095 23.1516 15.2787 23.3865 15.1085L31.2607 9.40642H1.75302C1.42122 9.40642 1.103 9.31094 0.868383 9.14098C0.633762 8.97103 0.501953 8.74052 0.501953 8.50017V8.50017Z" fill="#333333"/>
</svg>
