<svg width="37" height="17" viewBox="0 0 37 17" fill="none" xmlns="http://www.w3.org/2000/svg">
<path fill-rule="evenodd" clip-rule="evenodd" d="M0.5625 8.50017C0.5625 8.25982 0.697488 8.02931 0.937769 7.85935C1.17805 7.6894 1.50394 7.59392 1.84375 7.59392H32.0633L23.9991 1.89179C23.7585 1.72162 23.6234 1.49082 23.6234 1.25017C23.6234 1.00951 23.7585 0.778713 23.9991 0.608543C24.2397 0.438373 24.566 0.342773 24.9062 0.342773C25.2465 0.342773 25.5728 0.438373 25.8134 0.608543L36.0634 7.85854C36.1827 7.94273 36.2774 8.04273 36.3419 8.15283C36.4065 8.26293 36.4398 8.38096 36.4398 8.50017C36.4398 8.61937 36.4065 8.7374 36.3419 8.8475C36.2774 8.9576 36.1827 9.05761 36.0634 9.14179L25.8134 16.3918C25.5728 16.562 25.2465 16.6576 24.9062 16.6576C24.566 16.6576 24.2397 16.562 23.9991 16.3918C23.7585 16.2216 23.6234 15.9908 23.6234 15.7502C23.6234 15.5095 23.7585 15.2787 23.9991 15.1085L32.0633 9.40642H1.84375C1.50394 9.40642 1.17805 9.31094 0.937769 9.14098C0.697488 8.97103 0.5625 8.74052 0.5625 8.50017Z" fill="#333333"/>
</svg>
