<svg width="293" height="72" viewBox="0 0 293 72" fill="none" xmlns="http://www.w3.org/2000/svg">
<path d="M102.792 71.3065C102.139 71.3065 101.813 70.9161 101.813 70.1353C101.813 69.5849 101.986 68.8297 102.331 67.8697C102.677 66.9097 103.022 66.0777 103.368 65.3737C103.995 64.1449 104.443 63.3001 104.712 62.8393C105.006 60.0873 105.269 58.1161 105.499 56.9257C105.192 56.9641 104.885 56.9833 104.578 56.9833C104.27 56.9833 104.085 56.8233 104.021 56.5033C104.021 56.2473 104.098 56.1001 104.251 56.0617C104.302 56.1385 104.488 56.1769 104.808 56.1769C105.128 56.1769 105.416 56.1641 105.672 56.1385C106.504 52.3113 107.925 50.3977 109.934 50.3977C110.19 50.3977 110.312 50.4937 110.299 50.6857C110.286 50.8137 110.242 50.8777 110.165 50.8777C109.294 50.8777 108.597 51.3321 108.072 52.2409C107.547 53.1497 107.125 54.4233 106.805 56.0617C108.328 55.9465 109.256 55.8889 109.589 55.8889C109.704 55.8889 109.749 55.9657 109.723 56.1193C109.71 56.2729 109.582 56.3497 109.339 56.3497C109.096 56.3497 108.206 56.4777 106.67 56.7337C106.504 57.6809 106.325 59.0569 106.133 60.8617C105.954 62.6665 105.806 64.0425 105.691 64.9897C105.576 65.9369 105.442 66.7689 105.288 67.4857C105.134 68.2025 104.949 68.8617 104.731 69.4633C104.283 70.6921 103.637 71.3065 102.792 71.3065ZM102.811 70.7497C103.208 70.7497 103.509 70.4169 103.714 69.7513C103.944 69.0217 104.11 68.2601 104.213 67.4665C104.366 66.2761 104.501 65.0537 104.616 63.7993C103.656 65.8345 103.074 67.1785 102.869 67.8313C102.523 68.9321 102.35 69.6937 102.35 70.1161C102.35 70.5385 102.504 70.7497 102.811 70.7497ZM110.51 53.4889C110.357 53.4889 110.274 53.3609 110.261 53.1049C110.261 52.2985 110.395 51.5561 110.664 50.8777C110.946 50.1993 111.291 49.8601 111.701 49.8601C111.854 49.8601 111.931 49.9561 111.931 50.1481C111.842 50.2889 111.758 50.4169 111.682 50.5321C111.605 50.6473 111.522 50.7817 111.432 50.9353C111.355 51.0889 111.272 51.2617 111.182 51.4537C111.093 51.6457 111.01 51.8377 110.933 52.0297C110.766 52.4521 110.683 52.8617 110.683 53.2585C110.683 53.4121 110.626 53.4889 110.51 53.4889ZM112.355 68.1001C111.612 68.1001 111.062 67.7097 110.703 66.9289C110.358 66.1481 110.185 64.9769 110.185 63.4153C110.185 61.8537 110.415 60.0041 110.876 57.8665C111.337 55.7289 111.875 53.9561 112.489 52.5481C113.116 51.1401 113.66 50.4361 114.121 50.4361C114.339 50.4361 114.447 50.5641 114.447 50.8201C114.179 51.4345 113.839 52.3625 113.43 53.6041C113.02 54.8329 112.675 55.9721 112.393 57.0217C112.124 58.0713 111.875 59.3001 111.644 60.7081C111.427 62.1161 111.318 63.3257 111.318 64.3369C111.318 65.3353 111.414 66.1033 111.606 66.6409C111.811 67.1913 112.086 67.4665 112.431 67.4665C112.726 67.4665 113.007 67.3257 113.276 67.0441C113.545 66.7753 113.737 66.5065 113.852 66.2377C113.916 66.0969 114.031 66.0585 114.198 66.1225C114.262 66.1481 114.275 66.1993 114.236 66.2761C114.211 66.3657 114.159 66.4745 114.083 66.6025C114.019 66.7305 113.897 66.9289 113.718 67.1977C113.334 67.7993 112.879 68.1001 112.355 68.1001ZM115.109 71.3065C116.261 71.3065 117.163 70.7625 117.816 69.6745C118.379 68.7145 118.814 67.5177 119.122 66.0841C116.805 66.1353 115.026 67.0185 113.784 68.7337C113.707 68.8489 113.586 68.8681 113.419 68.7913C113.33 68.7401 113.304 68.6761 113.342 68.5993C113.893 67.7673 114.661 67.0569 115.646 66.4681C116.632 65.8921 117.829 65.5785 119.237 65.5273C119.378 64.8873 119.512 64.1385 119.64 63.2809C119.768 62.4233 119.915 61.5913 120.082 60.7849H119.909C118.245 63.7417 116.978 65.2201 116.107 65.2201C115.134 65.2201 114.648 64.4713 114.648 62.9737C114.648 61.4761 114.968 59.9721 115.608 58.4617C116.248 56.9385 116.83 56.1193 117.355 56.0041L117.47 55.9849C117.688 55.9849 117.797 56.1257 117.797 56.4073C117.656 56.7529 117.477 57.2073 117.259 57.7705C117.042 58.3209 116.754 59.2361 116.395 60.5161C116.037 61.7833 115.858 62.7753 115.858 63.4921C115.858 64.1961 116.011 64.5481 116.318 64.5481C116.677 64.5481 117.253 63.9273 118.046 62.6857C119.211 60.8681 120.222 59.0249 121.08 57.1561C121.451 56.3753 121.848 55.9849 122.27 55.9849C122.539 55.9849 122.674 56.1321 122.674 56.4265C122.43 56.8745 122.136 57.7129 121.79 58.9417C121.445 60.1705 121.163 61.4121 120.946 62.6665C120.728 63.9081 120.542 64.8809 120.389 65.5849C121.362 65.7513 121.925 66.1737 122.078 66.8521C122.104 66.9673 122.117 67.1209 122.117 67.3129C122.117 67.5177 122.04 67.6905 121.886 67.8313C121.733 67.9849 121.598 68.0617 121.483 68.0617C121.509 67.9721 121.515 67.8121 121.502 67.5817C121.49 67.3641 121.445 67.1785 121.368 67.0249C121.304 66.8713 121.176 66.7113 120.984 66.5449C120.792 66.3785 120.542 66.2569 120.235 66.1801C119.25 69.8921 117.541 71.7481 115.109 71.7481C114.059 71.7481 113.362 71.3769 113.016 70.6345C113.003 70.5961 112.997 70.5641 112.997 70.5385C112.997 70.4617 113.067 70.4105 113.208 70.3849C113.336 70.3721 113.432 70.4169 113.496 70.5193C113.726 71.0441 114.264 71.3065 115.109 71.3065ZM124 63.6649C124 61.7705 124.192 60.0809 124.576 58.5961C124.973 57.1113 125.472 56.3689 126.074 56.3689C126.368 56.3689 126.515 56.5289 126.515 56.8489C126.387 57.1817 126.227 57.6233 126.035 58.1737C125.843 58.7241 125.587 59.7225 125.267 61.1689C124.96 62.6025 124.807 63.8825 124.807 65.0089C124.807 65.1881 124.711 65.2777 124.519 65.2777C124.173 65.2777 124 64.7401 124 63.6649ZM126.573 54.5641C126.304 54.5641 126.17 54.3081 126.17 53.7961C126.17 53.4889 126.253 53.1689 126.419 52.8361C126.586 52.4905 126.823 52.3177 127.13 52.3177C127.386 52.3177 127.514 52.4649 127.514 52.7593C127.514 53.0537 127.277 53.5465 126.803 54.2377L126.573 54.5641ZM129.175 62.1865C130.826 58.1033 132.432 56.0617 133.994 56.0617C134.647 56.0617 134.973 56.3753 134.973 57.0025C134.883 57.2969 134.768 57.6873 134.627 58.1737C134.487 58.6473 134.295 59.5049 134.051 60.7465C133.821 61.9881 133.706 63.0761 133.706 64.0105C133.706 65.3673 133.904 66.0457 134.301 66.0457C134.455 66.0457 134.602 65.9817 134.743 65.8537C134.883 65.7385 134.979 65.6809 135.031 65.6809C135.21 65.6809 135.21 65.8217 135.031 66.1033C134.967 66.1929 134.845 66.3145 134.666 66.4681C134.499 66.6217 134.327 66.6985 134.147 66.6985C133.661 66.6985 133.277 66.3465 132.995 65.6425C132.727 64.9513 132.592 64.0489 132.592 62.9353C132.592 61.1689 132.867 59.2297 133.418 57.1177C133.469 56.9513 133.418 56.8681 133.264 56.8681C133.162 56.8681 133.047 56.9193 132.919 57.0217C132.304 57.5593 131.658 58.4489 130.979 59.6905C130.301 60.9321 129.77 62.0457 129.386 63.0313C129.002 64.0041 128.81 64.5737 128.81 64.7401C128.81 64.8937 128.72 64.9705 128.541 64.9705C128.131 64.9705 127.927 64.4649 127.927 63.4537C127.927 61.5465 128.119 59.8185 128.503 58.2697C128.899 56.7209 129.373 55.9465 129.923 55.9465C130.154 55.9465 130.269 56.0873 130.269 56.3689C129.68 58.2761 129.258 60.2153 129.002 62.1865H129.175ZM137.93 65.2969C136.88 65.2969 136.355 64.4713 136.355 62.8201C136.355 61.8345 136.599 60.7529 137.085 59.5753C137.763 57.9241 138.653 56.7977 139.754 56.1961C140.227 55.9401 140.669 55.8121 141.079 55.8121C141.488 55.8121 141.808 55.9017 142.039 56.0809C142.282 56.2601 142.435 56.4393 142.499 56.6185L142.615 56.8681C142.576 57.0857 142.467 57.1945 142.288 57.1945C142.083 57.1945 141.962 57.1497 141.923 57.0601C141.898 56.9577 141.866 56.8745 141.827 56.8105C141.789 56.7337 141.699 56.6377 141.559 56.5225C141.418 56.3945 141.258 56.3305 141.079 56.3305C140.247 56.3305 139.491 57.0793 138.813 58.5769C138.045 60.3049 137.661 61.9305 137.661 63.4537C137.661 64.2217 137.815 64.6057 138.122 64.6057C138.544 64.6057 139.223 63.8697 140.157 62.3977C141.104 60.9129 141.955 59.3961 142.711 57.8473C143.095 57.0665 143.498 56.6761 143.92 56.6761C144.189 56.6761 144.323 56.8297 144.323 57.1369C144.272 57.2265 144.195 57.3737 144.093 57.5785C143.991 57.7833 143.805 58.3721 143.536 59.3449C143.267 60.3049 143.024 61.4121 142.807 62.6665C142.589 63.9081 142.403 64.8809 142.25 65.5849C143.223 65.7513 143.786 66.1737 143.939 66.8521C143.965 66.9673 143.978 67.1209 143.978 67.3129C143.978 67.5177 143.901 67.6905 143.747 67.8313C143.594 67.9849 143.459 68.0617 143.344 68.0617C143.37 67.9721 143.376 67.8121 143.363 67.5817C143.351 67.3641 143.306 67.1785 143.229 67.0249C143.165 66.8713 143.037 66.7113 142.845 66.5449C142.653 66.3785 142.403 66.2569 142.096 66.1801C141.699 67.7417 141.13 69.0281 140.387 70.0393C139.543 71.1785 138.403 71.7481 136.97 71.7481C135.92 71.7481 135.223 71.3769 134.877 70.6345C134.864 70.5961 134.858 70.5641 134.858 70.5385C134.858 70.4617 134.928 70.4041 135.069 70.3657C135.21 70.3401 135.306 70.3913 135.357 70.5193C135.587 71.0441 136.125 71.3065 136.97 71.3065C138.122 71.3065 139.018 70.7625 139.658 69.6745C140.234 68.7145 140.675 67.5177 140.983 66.0841C138.679 66.1353 136.899 67.0185 135.645 68.7337C135.568 68.8489 135.447 68.8681 135.28 68.7913C135.191 68.7401 135.165 68.6761 135.203 68.5993C135.754 67.7673 136.522 67.0569 137.507 66.4681C138.493 65.8921 139.69 65.5785 141.098 65.5273C141.239 64.8873 141.36 64.2153 141.463 63.5113C141.578 62.7945 141.674 62.2313 141.751 61.8217C141.827 61.4121 141.879 61.1177 141.904 60.9385H141.693C140.003 63.8441 138.749 65.2969 137.93 65.2969ZM153.804 59.7289C153.125 60.9577 152.594 62.0457 152.21 62.9929C151.839 63.9401 151.653 64.5033 151.653 64.6825C151.653 64.8489 151.564 64.9321 151.384 64.9321C151 64.9321 150.808 64.4201 150.808 63.3961C150.808 61.3609 151.013 59.3193 151.423 57.2713C151.832 55.2105 152.319 53.5657 152.882 52.3369C153.445 51.0953 153.97 50.4745 154.456 50.4745C154.661 50.4745 154.764 50.5769 154.764 50.7817C154.085 52.2793 153.516 53.9881 153.055 55.9081C152.607 57.8281 152.229 59.8761 151.922 62.0521H152.056C153.682 58.0585 155.276 56.0617 156.837 56.0617C157.49 56.0617 157.816 56.3753 157.816 57.0025C157.727 57.2969 157.612 57.6873 157.471 58.1737C157.33 58.6473 157.144 59.5049 156.914 60.7465C156.684 61.9881 156.568 63.0761 156.568 64.0105C156.568 65.3673 156.767 66.0457 157.164 66.0457C157.304 66.0457 157.445 65.9817 157.586 65.8537C157.727 65.7385 157.823 65.6809 157.874 65.6809C158.053 65.6809 158.047 65.8217 157.855 66.1033C157.804 66.1929 157.688 66.3145 157.509 66.4681C157.343 66.6217 157.176 66.6985 157.01 66.6985C156.511 66.6985 156.12 66.3465 155.839 65.6425C155.57 64.9513 155.436 64.0489 155.436 62.9353C155.436 61.0537 155.717 59.1145 156.28 57.1177C156.306 56.9257 156.229 56.8425 156.05 56.8681C155.96 56.8809 155.871 56.9321 155.781 57.0217C155.141 57.5977 154.482 58.5001 153.804 59.7289ZM159.555 63.6649C159.555 61.7705 159.747 60.0809 160.131 58.5961C160.528 57.1113 161.027 56.3689 161.628 56.3689C161.923 56.3689 162.07 56.5289 162.07 56.8489C161.942 57.1817 161.782 57.6233 161.59 58.1737C161.398 58.7241 161.142 59.7225 160.822 61.1689C160.515 62.6025 160.361 63.8825 160.361 65.0089C160.361 65.1881 160.265 65.2777 160.073 65.2777C159.728 65.2777 159.555 64.7401 159.555 63.6649ZM162.128 54.5641C161.859 54.5641 161.724 54.3081 161.724 53.7961C161.724 53.4889 161.808 53.1689 161.974 52.8361C162.14 52.4905 162.377 52.3177 162.684 52.3177C162.94 52.3177 163.068 52.4649 163.068 52.7593C163.068 53.0537 162.832 53.5465 162.358 54.2377L162.128 54.5641ZM164.883 65.2969C163.833 65.2969 163.309 64.4713 163.309 62.8201C163.309 61.8345 163.552 60.7529 164.038 59.5753C164.717 57.9241 165.606 56.7977 166.707 56.1961C167.181 55.9401 167.622 55.8121 168.032 55.8121C168.441 55.8121 168.761 55.9017 168.992 56.0809C169.235 56.2601 169.389 56.4393 169.453 56.6185L169.568 56.8681C169.529 57.0857 169.421 57.1945 169.241 57.1945C169.037 57.1945 168.915 57.1497 168.877 57.0601C168.851 56.9577 168.819 56.8745 168.781 56.8105C168.742 56.7337 168.653 56.6377 168.512 56.5225C168.371 56.3945 168.211 56.3305 168.032 56.3305C167.2 56.3305 166.445 57.0793 165.766 58.5769C164.998 60.3049 164.614 61.9305 164.614 63.4537C164.614 64.2217 164.768 64.6057 165.075 64.6057C165.497 64.6057 166.176 63.8697 167.11 62.3977C168.057 60.9129 168.909 59.3961 169.664 57.8473C170.048 57.0665 170.451 56.6761 170.873 56.6761C171.142 56.6761 171.277 56.8297 171.277 57.1369C171.225 57.2265 171.149 57.3737 171.046 57.5785C170.944 57.7833 170.758 58.3721 170.489 59.3449C170.221 60.3049 169.977 61.4121 169.76 62.6665C169.542 63.9081 169.357 64.8809 169.203 65.5849C170.176 65.7513 170.739 66.1737 170.893 66.8521C170.918 66.9673 170.931 67.1209 170.931 67.3129C170.931 67.5177 170.854 67.6905 170.701 67.8313C170.547 67.9849 170.413 68.0617 170.297 68.0617C170.323 67.9721 170.329 67.8121 170.317 67.5817C170.304 67.3641 170.259 67.1785 170.182 67.0249C170.118 66.8713 169.99 66.7113 169.798 66.5449C169.606 66.3785 169.357 66.2569 169.049 66.1801C168.653 67.7417 168.083 69.0281 167.341 70.0393C166.496 71.1785 165.357 71.7481 163.923 71.7481C162.873 71.7481 162.176 71.3769 161.83 70.6345C161.817 70.5961 161.811 70.5641 161.811 70.5385C161.811 70.4617 161.881 70.4041 162.022 70.3657C162.163 70.3401 162.259 70.3913 162.31 70.5193C162.541 71.0441 163.078 71.3065 163.923 71.3065C165.075 71.3065 165.971 70.7625 166.611 69.6745C167.187 68.7145 167.629 67.5177 167.936 66.0841C165.632 66.1353 163.853 67.0185 162.598 68.7337C162.521 68.8489 162.4 68.8681 162.233 68.7913C162.144 68.7401 162.118 68.6761 162.157 68.5993C162.707 67.7673 163.475 67.0569 164.461 66.4681C165.446 65.8921 166.643 65.5785 168.051 65.5273C168.192 64.8873 168.313 64.2153 168.416 63.5113C168.531 62.7945 168.627 62.2313 168.704 61.8217C168.781 61.4121 168.832 61.1177 168.857 60.9385H168.646C166.957 63.8441 165.702 65.2969 164.883 65.2969ZM175.624 59.7289C174.946 60.9577 174.414 62.0457 174.03 62.9929C173.659 63.9401 173.474 64.5033 173.474 64.6825C173.474 64.8489 173.384 64.9321 173.205 64.9321C172.821 64.9321 172.629 64.4201 172.629 63.3961C172.629 61.3609 172.834 59.3193 173.243 57.2713C173.653 55.2105 174.139 53.5657 174.702 52.3369C175.266 51.0953 175.79 50.4745 176.277 50.4745C176.482 50.4745 176.584 50.5769 176.584 50.7817C175.906 52.2793 175.336 53.9881 174.875 55.9081C174.427 57.8281 174.05 59.8761 173.742 62.0521H173.877C175.502 58.0585 177.096 56.0617 178.658 56.0617C179.31 56.0617 179.637 56.3753 179.637 57.0025C179.547 57.2969 179.432 57.6873 179.291 58.1737C179.15 58.6473 178.965 59.5049 178.734 60.7465C178.504 61.9881 178.389 63.0761 178.389 64.0105C178.389 65.3673 178.587 66.0457 178.984 66.0457C179.125 66.0457 179.266 65.9817 179.406 65.8537C179.547 65.7385 179.643 65.6809 179.694 65.6809C179.874 65.6809 179.867 65.8217 179.675 66.1033C179.624 66.1929 179.509 66.3145 179.33 66.4681C179.163 66.6217 178.997 66.6985 178.83 66.6985C178.331 66.6985 177.941 66.3465 177.659 65.6425C177.39 64.9513 177.256 64.0489 177.256 62.9353C177.256 61.0537 177.538 59.1145 178.101 57.1177C178.126 56.9257 178.05 56.8425 177.87 56.8681C177.781 56.8809 177.691 56.9321 177.602 57.0217C176.962 57.5977 176.302 58.5001 175.624 59.7289Z" fill="#F9F8F6"/>
<path d="M1.58984 56.1479L88.281 56.1479" stroke="#F9F8F6" stroke-width="1.5"/>
<path d="M200.061 56.4058H293" stroke="#F9F8F6" stroke-width="1.5"/>
<path d="M15.408 37.24C12.912 37.24 10.672 36.696 8.688 35.608C6.736 34.52 5.2 33 4.08 31.048C2.96 29.064 2.4 26.84 2.4 24.376C2.4 21.912 2.96 19.704 4.08 17.752C5.2 15.8 6.736 14.28 8.688 13.192C10.672 12.104 12.912 11.56 15.408 11.56C17.584 11.56 19.52 11.992 21.216 12.856C22.944 13.688 24.304 14.92 25.296 16.552L22.752 18.28C21.92 17.032 20.864 16.104 19.584 15.496C18.304 14.856 16.912 14.536 15.408 14.536C13.584 14.536 11.936 14.952 10.464 15.784C9.024 16.584 7.888 17.736 7.056 19.24C6.256 20.744 5.856 22.456 5.856 24.376C5.856 26.328 6.256 28.056 7.056 29.56C7.888 31.032 9.024 32.184 10.464 33.016C11.936 33.816 13.584 34.216 15.408 34.216C16.912 34.216 18.304 33.912 19.584 33.304C20.864 32.696 21.92 31.768 22.752 30.52L25.296 32.248C24.304 33.88 22.944 35.128 21.216 35.992C19.488 36.824 17.552 37.24 15.408 37.24ZM41.889 37.24C39.457 37.24 37.265 36.696 35.313 35.608C33.361 34.488 31.825 32.952 30.705 31C29.585 29.048 29.025 26.84 29.025 24.376C29.025 21.912 29.585 19.704 30.705 17.752C31.825 15.8 33.361 14.28 35.313 13.192C37.265 12.104 39.457 11.56 41.889 11.56C44.321 11.56 46.513 12.104 48.465 13.192C50.417 14.28 51.937 15.8 53.025 17.752C54.145 19.704 54.705 21.912 54.705 24.376C54.705 26.84 54.145 29.048 53.025 31C51.937 32.952 50.417 34.488 48.465 35.608C46.513 36.696 44.321 37.24 41.889 37.24ZM41.889 34.216C43.681 34.216 45.281 33.816 46.689 33.016C48.129 32.184 49.249 31.016 50.049 29.512C50.849 28.008 51.249 26.296 51.249 24.376C51.249 22.456 50.849 20.744 50.049 19.24C49.249 17.736 48.129 16.584 46.689 15.784C45.281 14.952 43.681 14.536 41.889 14.536C40.097 14.536 38.481 14.952 37.041 15.784C35.633 16.584 34.513 17.736 33.681 19.24C32.881 20.744 32.481 22.456 32.481 24.376C32.481 26.296 32.881 28.008 33.681 29.512C34.513 31.016 35.633 32.184 37.041 33.016C38.481 33.816 40.097 34.216 41.889 34.216ZM71.1566 25.768H65.3966V37H61.9886V11.752H65.3966V22.84H71.2046L80.0846 11.752H83.7806L73.8446 23.992L84.5006 37H80.4686L71.1566 25.768ZM99.4046 37.24C96.9726 37.24 94.7806 36.696 92.8286 35.608C90.8766 34.488 89.3406 32.952 88.2206 31C87.1006 29.048 86.5406 26.84 86.5406 24.376C86.5406 21.912 87.1006 19.704 88.2206 17.752C89.3406 15.8 90.8766 14.28 92.8286 13.192C94.7806 12.104 96.9726 11.56 99.4046 11.56C101.837 11.56 104.029 12.104 105.981 13.192C107.933 14.28 109.453 15.8 110.541 17.752C111.661 19.704 112.221 21.912 112.221 24.376C112.221 26.84 111.661 29.048 110.541 31C109.453 32.952 107.933 34.488 105.981 35.608C104.029 36.696 101.837 37.24 99.4046 37.24ZM99.4046 34.216C101.197 34.216 102.797 33.816 104.205 33.016C105.645 32.184 106.765 31.016 107.565 29.512C108.365 28.008 108.765 26.296 108.765 24.376C108.765 22.456 108.365 20.744 107.565 19.24C106.765 17.736 105.645 16.584 104.205 15.784C102.797 14.952 101.197 14.536 99.4046 14.536C97.6126 14.536 95.9966 14.952 94.5566 15.784C93.1486 16.584 92.0286 17.736 91.1966 19.24C90.3966 20.744 89.9966 22.456 89.9966 24.376C89.9966 26.296 90.3966 28.008 91.1966 29.512C92.0286 31.016 93.1486 32.184 94.5566 33.016C95.9966 33.816 97.6126 34.216 99.4046 34.216ZM140.004 11.752V37H136.596V14.776H124.5L124.164 21.016C123.908 26.264 123.3 30.296 122.34 33.112C121.38 35.928 119.668 37.336 117.204 37.336C116.532 37.336 115.716 37.208 114.756 36.952L114.996 34.024C115.572 34.152 115.972 34.216 116.196 34.216C117.508 34.216 118.5 33.608 119.172 32.392C119.844 31.176 120.292 29.672 120.516 27.88C120.74 26.088 120.932 23.72 121.092 20.776L121.524 11.752H140.004ZM160.54 20.68C163.708 20.712 166.108 21.416 167.74 22.792C169.404 24.168 170.236 26.152 170.236 28.744C170.236 31.432 169.34 33.496 167.548 34.936C165.788 36.376 163.228 37.08 159.868 37.048L149.692 37V11.752H153.1V20.584L160.54 20.68ZM159.676 34.456C162.012 34.488 163.772 34.024 164.956 33.064C166.172 32.072 166.78 30.632 166.78 28.744C166.78 26.888 166.188 25.512 165.004 24.616C163.82 23.72 162.044 23.256 159.676 23.224L153.1 23.128V34.36L159.676 34.456ZM187.299 37.24C184.803 37.24 182.563 36.696 180.579 35.608C178.627 34.52 177.091 33 175.971 31.048C174.851 29.064 174.291 26.84 174.291 24.376C174.291 21.912 174.851 19.704 175.971 17.752C177.091 15.8 178.627 14.28 180.579 13.192C182.563 12.104 184.803 11.56 187.299 11.56C189.475 11.56 191.411 11.992 193.107 12.856C194.835 13.688 196.195 14.92 197.187 16.552L194.643 18.28C193.811 17.032 192.755 16.104 191.475 15.496C190.195 14.856 188.803 14.536 187.299 14.536C185.475 14.536 183.827 14.952 182.355 15.784C180.915 16.584 179.779 17.736 178.947 19.24C178.147 20.744 177.747 22.456 177.747 24.376C177.747 26.328 178.147 28.056 178.947 29.56C179.779 31.032 180.915 32.184 182.355 33.016C183.827 33.816 185.475 34.216 187.299 34.216C188.803 34.216 190.195 33.912 191.475 33.304C192.755 32.696 193.811 31.768 194.643 30.52L197.187 32.248C196.195 33.88 194.835 35.128 193.107 35.992C191.379 36.824 189.443 37.24 187.299 37.24ZM212.954 25.768H207.194V37H203.786V11.752H207.194V22.84H213.002L221.882 11.752H225.578L215.642 23.992L226.298 37H222.266L212.954 25.768ZM231.676 11.752H235.084V31.816L251.932 11.752H254.956V37H251.548V16.936L234.748 37H231.676V11.752ZM264.723 11.752H268.131V31.816L284.979 11.752H288.003V37H284.595V16.936L267.795 37H264.723V11.752ZM276.195 8.104C274.019 8.104 272.291 7.56 271.011 6.472C269.731 5.384 269.075 3.848 269.043 1.864H271.491C271.523 3.112 271.971 4.12 272.835 4.888C273.699 5.624 274.819 5.992 276.195 5.992C277.571 5.992 278.691 5.624 279.555 4.888C280.451 4.12 280.915 3.112 280.947 1.864H283.395C283.363 3.848 282.691 5.384 281.379 6.472C280.099 7.56 278.371 8.104 276.195 8.104Z" fill="#F9F8F6"/>
</svg>
