<svg width="152" height="107" viewBox="0 0 152 107" fill="none" xmlns="http://www.w3.org/2000/svg">
<path d="M137.2 80.178C137.2 80.0203 137.2 79.8626 137.06 79.6418C136.747 79.2318 136.259 79.0425 136.189 78.7587C136.119 78.4748 135.875 78.3171 135.806 78.1278C135.701 77.9701 135.98 76.8662 135.875 76.6454C135.771 76.4246 135.248 76.2984 135.248 76.2353C135.248 76.2038 136.189 75.636 136.154 75.4153C136.119 75.1945 136.119 75.1314 136.119 75.1314C136.119 75.1314 136.398 75.0052 136.503 74.9106C135.736 75.1629 134.9 75.2575 134.691 75.2575C135.109 75.0368 135.422 74.879 135.527 74.7213C135.631 74.5636 136.119 74.3744 136.154 74.2482C135.875 74.3113 135.562 74.3428 135.562 74.3428C135.562 74.3428 136.154 74.1851 136.294 73.9328C135.422 74.2167 135.004 74.2167 134.795 74.1536C134.586 74.122 134.412 73.9959 134.238 74.0274C134.063 74.059 134.098 73.8382 133.994 73.8066C133.889 73.7751 133.959 73.5858 134.029 73.4912C134.098 73.4281 134.203 73.3335 134.377 73.3335C134.551 73.3335 135.666 73.1127 136.015 72.7027C135.597 72.9235 135.144 72.8919 135.144 72.8919C135.144 72.8919 135.597 72.6711 135.736 72.3242C135.875 71.9772 135.875 71.7564 135.457 71.8195C135.039 71.8826 134.969 72.0403 134.725 71.9457C134.482 71.8511 134.307 71.788 134.098 71.8195C133.889 71.8511 133.645 71.7564 133.576 71.6618C133.471 71.5672 133.471 71.5041 133.471 71.5041C133.471 71.5041 134.412 71.3779 134.621 71.031C134.377 71.0625 133.959 71.1571 133.959 71.1571C133.959 71.1571 134.586 70.6525 134.725 70.1794C134.516 70.274 134.098 70.684 134.098 70.684C134.098 70.684 134.063 70.4632 133.889 70.4948C133.715 70.5263 133.68 70.5894 133.68 70.5894C133.68 70.5894 133.436 70.4948 133.401 70.4002C133.366 70.3055 133.192 70.274 133.192 70.274C133.192 70.274 133.541 69.9901 133.506 69.6747C133.471 69.3593 133.192 69.3908 133.053 69.3593C132.913 69.3277 132.669 69.0123 132.6 68.8546C132.53 68.6969 132.495 68.1292 132.495 67.8453C132.46 67.5614 132.53 67.246 132.426 67.1514C132.321 67.0567 132.391 66.6467 132.321 66.6467C132.251 66.6467 132.216 66.899 132.182 67.246C132.182 67.593 131.938 68.7915 131.52 69.17C131.589 69.17 131.729 69.1069 131.729 69.1069C131.729 69.1069 131.415 69.4854 131.241 69.4854C131.554 69.5485 131.868 69.2962 131.868 69.2962C131.868 69.2962 131.868 69.6116 131.833 69.7378C131.763 69.8639 130.857 69.9901 130.718 69.8955C130.579 69.8324 130.404 69.7693 130.37 69.7693C130.3 69.7693 130.439 69.9901 130.613 70.1163C130.823 70.2109 131.206 70.3055 131.206 70.3055C131.206 70.3055 130.997 70.4632 131.101 70.6525C131.206 70.8417 131.276 70.8417 131.276 70.8417C131.276 70.8417 130.788 71.0625 130.718 71.3149C130.648 71.5672 130.788 71.8511 130.962 71.9141C130.892 72.0403 130.091 72.3873 129.847 72.3557C129.603 72.3242 129.533 72.3557 129.533 72.4504C129.533 72.545 129.847 72.6711 130.23 72.6711C130.404 72.7342 130.3 72.8288 130.195 72.8288C130.474 72.9866 131.136 72.7658 131.136 72.7658C131.136 72.7658 130.892 72.9865 130.892 73.1127C131.345 73.0812 131.52 72.7973 131.52 72.7973C131.52 72.7973 131.485 73.2389 131.136 73.7751C130.753 74.3113 130.335 74.469 130.335 74.469C130.335 74.469 130.579 74.469 130.753 74.469C130.718 74.6267 130.962 74.816 131.31 74.7213C131.101 74.879 131.136 75.0683 131.101 75.1945C131.067 75.3206 130.892 75.4153 130.683 75.4468C130.474 75.4783 130.404 75.3837 129.986 75.3837C129.882 75.3837 129.882 75.3837 129.882 75.3837C129.882 75.3837 130.021 75.2575 130.126 75.1629C130.23 75.0683 130.23 74.9106 130.126 74.7844C130.021 74.6583 129.812 74.6898 129.673 74.6583C129.533 74.6583 129.498 74.5636 129.498 74.5636C129.498 74.5636 130.23 74.4059 130.335 74.2482C130.439 74.122 130.857 73.5228 130.648 73.3335C130.439 73.1443 130.335 73.5228 130.056 73.3966C129.777 73.302 129.777 73.2704 129.429 73.3335L129.603 73.2073C129.603 73.2073 129.254 73.0181 128.871 72.8919C128.523 72.7342 128.348 72.5765 128.348 72.5765C128.348 72.5765 128.488 72.3873 128.627 72.3557C128.767 72.3242 128.906 72.2296 128.941 72.0403C128.976 71.8195 129.08 71.6303 128.976 71.5987C128.871 71.5356 128.558 71.6934 128.348 71.6618C128.139 71.6303 127.617 71.3149 127.477 71.1887C127.338 71.0625 127.059 71.0625 127.059 71.0625C127.059 71.0625 127.059 70.8733 127.024 70.8102C126.955 70.7471 127.268 70.4948 127.373 70.5263C127.477 70.5579 128.348 70.7156 128.697 70.4632C128.314 70.4948 127.721 70.2109 127.721 70.2109C127.721 70.2109 128.523 70.1478 128.697 69.9586C128.871 69.7693 129.115 69.5801 128.976 69.4224C128.801 69.2962 128.558 69.5485 128.418 69.4539C128.279 69.3593 127.93 69.17 127.721 69.17C128.383 69.1069 129.08 68.4761 129.08 68.35C129.115 68.2238 129.08 68.0976 129.15 67.9715C129.254 67.8137 129.22 67.5614 129.22 67.5614C129.22 67.5614 128.662 68.2238 128 68.35C127.338 68.4761 126.815 68.413 126.467 68.1922C126.118 67.9399 126.258 67.4983 126.258 67.4983C126.258 67.4983 126.536 67.5614 126.885 67.5614C126.711 67.3091 126.502 67.2775 126.502 67.2775C126.502 67.2775 126.815 67.246 126.745 66.9621C126.955 67.0567 127.651 66.9306 127.826 66.6782C127.686 66.6782 127.582 66.6782 127.582 66.6782C127.582 66.6782 127.686 66.6152 127.686 66.5205C127.686 66.4259 127.198 66.2051 127.198 66.2051C127.198 66.2051 127.233 66.1105 127.164 66.079C127.129 66.0474 127.059 66.0159 127.059 66.0159C127.059 66.0159 127.094 65.9213 126.955 65.7951C126.815 65.6689 126.676 65.6374 126.676 65.6374V65.385C126.711 65.385 126.745 65.4481 126.815 65.4166C126.885 65.385 126.885 65.2273 126.815 65.0066C126.78 64.8173 126.502 64.5334 126.432 64.4073C126.362 64.2811 126.258 64.1865 126.258 63.9657C126.258 63.7449 126.258 63.6187 126.223 63.5241C126.188 63.4295 126.118 63.3979 126.118 63.2718C126.118 63.1456 126.049 62.7671 126.014 62.7356C125.979 62.7356 125.979 63.0825 125.944 63.1771C125.909 63.2718 125.909 63.5556 125.909 63.7134C125.909 63.9026 125.909 64.0918 125.839 64.1865C125.805 64.2811 125.317 65.1643 125.317 65.1643C125.317 65.1643 125.595 64.975 125.7 64.8488C125.63 65.1643 125.596 65.2904 125.596 65.2904H125.735C125.735 65.2904 125.317 65.7005 125.142 65.8266C124.933 65.9528 125.108 66.4575 125.038 66.5521C124.968 66.6467 124.515 66.6152 124.515 66.6152C124.515 66.6152 124.759 66.7413 125.003 66.7729C124.655 66.8675 123.853 66.836 123.609 66.6467C124.097 67.2145 124.655 67.246 124.655 67.246C124.655 67.246 124.062 67.3722 123.679 67.246C123.958 67.4983 124.55 67.7507 124.899 67.656C124.794 67.8453 123.958 68.5392 123.958 68.5392C123.958 68.5392 124.306 68.5077 124.48 68.35C124.48 68.5077 124.515 68.6338 124.515 68.6338C124.515 68.6338 124.759 68.413 124.933 68.2869C125.108 68.1607 125.665 67.4037 125.665 67.4037C125.665 67.4037 125.282 68.3815 124.933 68.7915C124.585 69.2016 123.679 69.8639 123.679 69.8639C123.679 69.8639 123.888 69.8955 124.027 69.8324C124.202 70.0532 124.724 69.9901 124.724 69.9901C124.724 69.9901 124.48 70.4317 124.411 70.6209C124.341 70.8102 123.749 71.1571 123.749 71.1571C123.749 71.1571 124.097 70.6525 123.958 70.5894C123.818 70.5263 123.54 70.9048 123.052 70.9679C122.564 71.031 122.076 70.8417 122.076 70.8417C122.076 70.8417 122.494 70.5894 122.494 70.4632C122.494 70.3371 121.971 70.2109 121.867 69.9586C121.727 69.6747 121.588 69.2331 121.588 69.2331C121.588 69.2331 122.006 69.7693 122.215 69.8639C122.424 69.9586 122.668 70.1163 122.773 70.1478C122.877 70.2109 123.435 70.1794 123.435 70.1794L122.843 69.9586C122.843 69.9586 123.505 69.8955 123.54 69.7062C123.54 69.4854 122.982 69.4224 122.599 69.0123C122.215 68.6023 121.727 68.1292 121.727 68.1292C121.727 68.1292 122.041 68.2238 122.111 68.3184C122.18 68.413 122.494 68.413 122.633 68.413C122.773 68.413 123.017 68.4446 123.191 68.2869C122.982 68.3184 122.877 68.2553 122.843 68.2238C122.808 68.1607 122.599 68.0661 122.459 68.003C122.32 67.9399 122.25 67.7822 122.006 67.5614C121.797 67.3406 121.518 66.899 121.518 66.899C121.518 66.899 121.971 66.8675 122.215 66.5521C122.459 66.2367 122.215 66.0159 122.18 66.0159C122.146 66.0159 121.937 66.0474 121.727 65.9843C121.518 65.9213 121.414 65.732 121.309 65.732C121.344 65.5743 121.135 65.3851 121.065 65.2904C120.996 65.1958 120.961 65.0381 120.961 65.0066C120.996 64.975 121.588 64.9435 121.588 64.6596C121.588 64.3757 121.309 64.1865 121.065 64.1865C120.821 64.1549 120.926 63.7449 120.717 63.5556C120.508 63.3979 120.647 61.7893 120.473 61.7578C120.299 61.7262 120.403 62.0417 120.194 62.3255C119.985 62.6409 120.09 62.8933 120.09 63.1771C120.09 63.461 119.95 63.6818 119.95 63.8711C119.95 64.0603 119.776 64.1234 119.741 64.2811C119.706 64.4388 119.741 64.5019 119.671 64.6281C119.602 64.7542 119.149 64.8804 119.149 64.975C119.149 65.0696 119.323 65.4481 119.532 65.4481C119.114 65.5428 119.288 65.7635 119.114 65.8582C118.94 65.9528 118.556 66.079 118.417 66.1421C118.278 66.2051 117.964 66.4259 117.964 66.5521C117.964 66.6783 118.382 66.7729 118.382 66.7729L117.999 67.0883C117.999 67.0883 118.382 67.0252 118.626 66.899C118.87 66.7729 119.184 66.8675 119.184 66.8675C119.184 66.8675 118.905 67.3091 118.556 67.5299C118.208 67.7507 118.243 67.9084 117.929 67.9715C117.72 68.003 117.581 67.9715 117.406 68.0976C117.197 68.2238 116.814 68.6023 116.709 68.6023C116.605 68.6023 116.256 68.6023 116.047 68.9177C116.396 68.76 116.64 68.76 116.814 68.8862L116.431 69.2331C116.431 69.2331 116.744 69.0754 117.058 69.0123C117.372 68.9492 117.546 68.7915 117.894 68.8231C117.755 69.107 117.511 69.517 117.302 69.6747C117.093 69.8324 116.57 70.1478 116.396 70.4002C116.779 70.2109 117.023 70.0847 117.197 70.0847C117.372 70.0847 117.964 69.8639 118.347 69.5485C118.731 69.2331 119.358 68.5707 119.358 68.5707C119.358 68.5707 119.253 69.1069 119.044 69.4854C118.835 69.8324 118.591 69.9586 118.487 70.2109C118.382 70.4632 117.999 70.6525 117.894 70.7786C117.79 70.9048 117.441 70.9994 117.302 71.2833C117.65 71.1256 118.731 71.1256 118.731 71.1256C118.731 71.1256 117.929 71.5672 117.372 71.9141C116.814 72.2611 116.152 72.3557 115.943 72.3557C115.734 72.3242 115.106 72.3873 114.897 72.5134C115.211 72.5134 115.42 72.545 115.49 72.6396C115.594 72.7658 115.699 72.6711 115.873 72.7342C116.047 72.7973 116.361 72.8288 116.884 72.7027C117.406 72.5765 118.138 72.4819 118.138 72.4819C118.138 72.4819 117.267 73.0496 116.814 73.0812C116.361 73.1127 115.873 73.0496 115.699 73.1127C115.838 73.302 116.047 73.3335 116.222 73.3651C116.396 73.3966 116.709 73.5543 116.709 73.5543L116.256 73.7435C116.256 73.7435 116.535 73.8066 117.058 73.712C117.581 73.6174 117.825 73.4597 117.825 73.4597C117.825 73.4597 117.79 73.712 117.581 73.8382C117.372 73.9643 117.232 73.7435 116.953 73.9643C116.675 74.1851 116.5 74.0274 116.396 74.0905C116.291 74.1536 116.047 73.9959 115.838 74.122C115.629 74.2482 115.49 74.469 115.455 74.6267C115.42 74.7844 115.49 74.7844 115.385 74.9421C115.281 75.0998 115.176 75.1945 114.932 75.2575C114.688 75.3206 114.619 75.573 114.479 75.6045C114.305 75.6045 114.061 75.636 113.957 75.6676C114.235 75.4152 114.27 74.879 114.27 74.879C114.27 74.879 113.817 75.3206 113.782 75.4468C113.922 75.0052 113.713 73.6489 113.713 73.6489C113.713 73.6489 113.504 74.3744 113.364 74.9106C113.225 75.4783 113.051 75.8884 113.051 75.8884C113.051 75.8884 112.737 76.1407 112.667 76.1407C112.598 76.1407 112.598 76.0776 112.528 76.0776C112.458 76.1092 112.388 76.4877 112.667 76.74C112.458 76.9292 112.179 76.9608 112.075 76.8977C111.97 76.8346 111.622 76.8346 111.517 76.7715C111.413 76.74 110.96 76.74 110.716 76.8346C110.507 76.8977 110.228 76.8977 110.193 76.8346C110.123 76.7715 109.775 76.8031 109.601 76.7715C109.461 76.74 109.67 76.5192 109.845 76.4246C110.019 76.3299 110.054 75.9199 109.984 75.8568C109.914 75.7937 109.392 75.8884 109.322 75.7937C109.252 75.6991 109.74 75.573 109.879 75.6045C109.984 75.6045 110.576 75.573 110.576 75.573C110.576 75.573 110.263 75.4152 110.054 75.3837C110.298 75.2891 110.402 74.9737 110.402 74.816C110.402 74.6898 110.925 74.3113 111.204 73.6805C110.82 73.9643 110.019 74.6267 109.392 74.5321C110.054 74.4059 110.576 73.7751 110.576 73.7751C110.576 73.7751 109.74 74.2482 109.252 74.0905C108.764 73.9328 108.695 73.9328 108.695 73.9328C108.695 73.9328 108.799 73.7436 109.008 73.6805C109.217 73.6174 109.252 73.4281 109.148 73.3651C109.043 73.302 108.834 73.2389 108.799 73.2073C108.764 73.1443 109.217 73.2073 109.252 73.1443C109.287 73.0812 109.566 73.1127 109.705 73.1443C109.81 73.1758 110.123 73.0496 110.123 73.0496C110.123 73.0496 110.019 72.9235 109.81 72.8919C109.601 72.8288 109.636 72.7658 109.636 72.7658C109.636 72.7342 109.81 72.7342 109.984 72.7027C110.158 72.6396 110.367 72.4188 110.367 72.4188C110.367 72.4188 109.984 72.545 109.636 72.5134C109.287 72.4819 109.113 72.4188 109.043 72.3873C108.973 72.3557 108.869 72.3242 108.869 72.3242C108.869 72.3242 108.869 72.198 108.799 72.1034C108.729 72.0088 108.52 71.9457 108.52 71.8826C108.52 71.788 108.834 71.8195 108.939 71.5672C109.078 71.3149 108.799 71.2202 108.695 71.1256C108.59 71.031 108.451 70.9048 108.451 70.9048C108.451 70.9048 108.939 71.031 109.182 70.9048C108.939 70.8417 108.52 70.5579 108.416 70.4317C108.311 70.3055 108.346 69.927 108.346 69.5801C108.346 69.2647 108.451 68.0976 108.451 68.0976C108.416 68.0976 108.276 68.6969 108.242 68.9177C108.207 69.1385 108.067 69.3277 108.033 69.4224C107.998 69.517 108.067 69.8324 107.963 69.9901C107.858 70.1478 107.44 70.3371 107.44 70.3686C107.44 70.4317 107.196 70.4948 107.196 70.4948C107.196 70.4948 107.684 70.5579 107.823 70.4948C107.963 70.4317 107.893 70.684 107.823 70.7471C107.754 70.8102 107.719 70.9994 107.684 71.1571C107.649 71.3149 107.475 71.2518 107.405 71.3464C107.336 71.4726 107.231 71.4726 107.231 71.5356C107.231 71.5672 107.475 71.6303 107.51 71.7249C107.545 71.8195 107.336 72.1349 107.127 72.2296C106.917 72.3242 106.673 72.3873 106.639 72.4819C106.604 72.5765 106.708 72.7027 106.708 72.7027C106.708 72.7027 106.708 72.8604 106.848 72.8604C106.952 72.8604 106.325 72.9866 106.116 72.8919C105.907 72.7973 106.011 73.1443 106.151 73.2389C106.29 73.302 106.29 73.4281 106.464 73.4912C106.604 73.5543 106.848 73.4912 106.848 73.4912C106.848 73.4912 106.708 74.059 106.604 74.0274C106.499 73.9959 106.36 73.8066 106.255 73.6489C106.151 73.4597 106.011 73.2704 105.907 73.2073C105.802 73.1443 105.454 72.545 105.419 72.3242C105.384 72.1349 105.245 71.7249 105.245 71.7249C105.245 71.7249 105.628 72.1034 105.872 72.198C106.116 72.2926 106.395 72.1665 106.395 72.1665C106.395 72.1665 106.081 72.0088 105.872 71.8826C106.186 71.9772 107.022 71.5987 107.022 71.5987C107.022 71.5987 106.569 71.5356 106.29 71.5672C106.325 71.4726 107.266 71.2518 107.336 70.9048C107.022 70.8733 106.604 71.031 106.604 71.031C106.604 71.031 106.604 70.9364 106.395 70.9048C106.22 70.8733 105.837 70.8102 105.698 70.6209C105.558 70.4317 105.175 69.8324 105.245 69.7062C105.314 69.5801 105.489 69.4539 105.454 69.2962C105.593 69.4854 105.907 69.4539 106.081 69.4539C106.255 69.4539 106.464 69.4539 106.743 69.3277C106.43 69.2647 105.872 69.2016 105.872 69.2016C105.872 69.2016 106.395 69.2016 106.604 69.0123C106.813 68.8546 106.987 68.6338 106.987 68.6338L106.395 68.76C106.395 68.76 106.464 68.5392 106.36 68.5077C106.29 68.4761 105.907 68.5392 105.733 68.2553C105.558 67.9715 105.349 67.6876 105.349 67.6876L105.419 67.4983C105.419 67.4983 105.733 67.6245 105.907 67.5299C106.081 67.4353 106.255 67.246 106.255 67.246C106.255 67.246 106.848 67.1198 106.848 66.836C106.848 66.7413 106.43 66.8044 106.29 66.8044C106.151 66.8044 105.907 66.6152 105.872 66.489C105.837 66.3944 105.872 66.2682 105.802 66.2367C105.733 66.2051 105.558 66.2367 105.489 66.1736C105.454 66.142 105.28 65.8897 105.28 65.8897C105.28 65.8897 105.489 66.0474 105.663 66.0159C105.837 65.9843 105.942 65.9213 105.942 65.9213C105.942 65.9213 105.767 65.6689 105.524 65.6058C105.28 65.5112 105.349 65.4797 105.384 65.4481C105.454 65.4481 105.593 65.4166 105.628 65.2904C105.663 65.1643 105.733 65.0381 105.558 64.9119C105.419 64.7858 105.384 64.6596 105.419 64.5965C105.454 64.5334 105.419 64.2496 105.314 64.1549C105.21 64.0603 105.21 63.808 105.21 63.7134C105.21 63.6187 105.14 63.2087 105.14 63.2087C105.14 63.2087 105.001 63.808 105.001 63.9341C105.001 64.0919 105.001 64.2811 104.896 64.4388C104.792 64.565 104.687 64.6281 104.757 64.8488C104.792 65.0696 104.722 65.2273 104.583 65.3535C104.443 65.4797 104.408 65.6689 104.478 65.732C104.548 65.7951 104.757 65.7951 104.792 65.8582C104.827 65.9213 104.827 66.2682 104.687 66.3628C104.548 66.4575 104.269 66.6783 103.781 66.7098C103.328 66.7413 103.189 66.8675 103.084 66.7729C102.98 66.7098 102.91 66.6467 102.84 66.7413C102.771 66.836 102.457 67.1198 102.457 67.2145C102.457 67.3406 102.736 67.3091 102.84 67.2145C102.945 67.1514 102.91 67.3406 103.224 67.2775C103.084 67.4668 102.84 67.7507 102.701 67.7507C102.562 67.7507 102.527 67.7507 102.527 67.8137C102.527 67.9084 102.666 67.9715 102.875 67.9399C103.084 67.9084 103.572 67.8453 103.711 67.6876C103.816 67.5299 103.851 67.4983 103.886 67.4983C103.921 67.4983 103.886 67.593 103.955 67.656C104.025 67.7191 104.339 67.6876 104.339 67.6876C104.339 67.6876 103.642 68.1292 103.154 68.2553C103.398 68.3184 103.677 68.2553 103.677 68.2553C103.677 68.2553 103.189 68.5392 102.945 68.5392C102.701 68.5392 102.701 68.6338 102.527 68.5392C102.318 68.4761 101.83 68.2553 101.725 68.2553C101.621 68.2553 101.795 68.4761 101.899 68.5392C102.004 68.6023 102.004 68.6023 102.074 68.6969C102.143 68.7915 102.283 68.8862 102.457 68.8862C102.596 68.8862 103.119 68.8862 103.154 68.9492C103.189 68.9808 102.771 69.2962 102.562 69.2962C102.352 69.2962 102.039 69.2962 102.004 69.3277C101.969 69.3908 102.248 69.4224 102.283 69.4854C102.318 69.5485 102.527 69.4539 102.631 69.4854C102.736 69.517 102.84 69.5485 103.015 69.4854C103.154 69.3908 103.258 69.3908 103.398 69.3908C103.537 69.3908 103.851 69.17 103.851 69.17C103.851 69.17 103.642 69.4539 103.502 69.517C103.363 69.6116 103.119 69.7378 103.119 69.7378C103.119 69.7378 103.642 69.7062 104.199 69.2962C104.164 69.6116 104.13 70.0532 103.363 70.5579C102.596 71.0625 100.959 70.9994 100.749 70.9679C100.993 71.1887 101.168 71.2202 101.237 71.3779C100.959 71.4095 100.784 71.3779 100.784 71.3779C100.784 71.3779 101.168 71.5672 101.586 71.5356C102.004 71.4726 102.318 71.2833 102.318 71.2833C102.318 71.2833 101.899 71.7249 101.586 71.788C101.272 71.8511 100.61 71.7564 100.61 71.7564C100.61 71.7564 100.924 72.0403 101.168 72.1034C101.412 72.1665 101.481 72.198 101.551 72.2611C101.655 72.3242 102.492 72.0403 102.492 72.0403L101.865 72.4188C101.865 72.4188 102.457 72.4503 102.945 72.0718C103.433 71.6934 103.711 71.441 103.781 71.4726C103.816 71.5041 103.502 71.9772 102.91 72.3873C102.352 72.7973 101.69 73.1443 101.028 73.1443C101.272 72.9866 101.586 72.8604 101.655 72.6711C101.342 72.7973 100.784 72.545 100.784 72.545L101.063 72.4504C101.063 72.4504 99.3556 71.9141 99.2162 71.3779C99.1116 70.8417 99.0071 70.8102 99.0071 70.6209C99.0071 70.4317 98.9026 70.3055 98.9026 70.3055C98.9026 70.3055 99.4253 70.6209 99.6692 70.6525C99.9131 70.6525 100.54 70.5263 100.54 70.5263L100.122 70.4002C100.122 70.4002 101.028 70.4632 101.377 70.2109H100.749C100.749 70.2109 101.063 70.0532 101.202 70.0532C101.342 70.0532 101.481 69.927 101.516 69.8639C101.586 69.8009 101.69 69.5801 101.586 69.5485C101.481 69.4854 101.063 69.6747 100.784 69.7062C100.471 69.7378 100.087 69.6432 99.7737 69.517C99.4601 69.3908 99.3904 69.3277 99.3904 69.3277C99.3904 69.3277 99.6692 69.3908 99.9828 69.3277C100.296 69.2647 100.436 69.0123 100.645 68.9492C100.854 68.8862 100.854 68.8231 100.959 68.7915C101.063 68.76 101.412 68.4761 101.412 68.4761C101.412 68.4761 100.819 68.76 100.331 68.6969C99.8434 68.6338 99.704 68.6654 99.5647 68.5707C99.3904 68.4761 99.1813 68.35 99.042 68.2869C98.9374 68.1922 98.7632 68.0661 98.5889 67.8453C98.4147 67.6245 98.3102 67.4037 98.345 67.3406C98.3799 67.2775 98.4147 67.3722 98.5192 67.3722C98.6238 67.4037 98.7632 67.2775 98.8677 67.3091C98.9723 67.3406 99.1116 67.4983 99.251 67.4983C99.4253 67.4983 99.5995 67.4037 99.7389 67.4668C99.8783 67.5299 100.262 67.5614 100.645 67.4668C100.366 67.3091 100.192 67.3091 100.192 67.3091C100.192 67.3091 100.784 67.1198 101.028 66.9306C100.715 66.9306 100.296 67.0883 100.053 67.0883C99.8086 67.0883 99.251 66.7729 99.251 66.7729C99.251 66.7729 99.7737 66.5836 99.9131 66.4259C100.018 66.2682 100.296 65.7636 100.087 65.6689C99.8783 65.5743 99.5298 65.9213 99.1813 65.7951C98.8329 65.6689 98.345 65.3535 98.2405 65.322C98.1708 65.2904 98.2056 65.1643 98.4496 65.1012C98.6586 65.0381 98.798 64.975 98.8677 64.8804C98.9374 64.7858 98.8677 64.6911 98.8677 64.565C98.8677 64.4388 98.9026 64.3126 98.8329 64.2811C98.7632 64.2496 98.4844 64.2811 98.3799 64.2496C98.2753 64.1865 98.0314 64.1234 98.0314 64.0919C98.0314 64.0603 98.0662 63.9972 98.0662 63.9341C98.1011 63.8711 98.0314 63.5872 98.0314 63.5872C98.0314 63.5872 98.3102 63.7449 98.4147 63.7449C98.5192 63.7449 98.798 63.5872 98.798 63.5872L98.2405 63.3979C98.2405 63.3979 98.798 63.1771 98.7632 62.9879C98.7632 62.9248 98.5541 63.0194 98.3799 62.8933C98.2056 62.7671 97.9617 62.704 97.9617 62.5463C97.9617 62.3886 97.8223 62.3571 97.8572 62.1363C97.892 61.9155 97.7875 61.9155 97.7875 61.7578C97.7875 61.6001 97.7526 61.5054 97.7178 61.4108C97.6829 61.3162 97.6829 60.5907 97.6829 60.5907C97.6481 60.78 97.4738 61.1585 97.4738 61.3793C97.4738 61.6001 97.5435 61.7262 97.4738 61.8839C97.4041 62.0417 97.2299 62.2309 97.2648 62.3255C97.2648 62.4202 97.1602 62.5148 97.1254 62.6094C97.1254 62.704 97.0208 62.8302 96.8466 62.9248C96.6723 63.0194 96.4633 63.0194 96.4633 63.0825C96.4633 63.1456 96.4981 63.1771 96.7072 63.2718C96.3587 63.3979 95.9754 63.4295 95.9754 63.4295C95.9754 63.4295 96.3239 63.4926 96.4981 63.4926C96.6723 63.4926 97.0905 63.461 97.2299 63.3664C97.2648 63.3349 97.3344 63.3664 97.2996 63.4295C97.2647 63.4926 97.0208 63.7449 96.7769 63.8395C96.533 63.9341 96.4981 64.0603 96.533 64.1234C96.5678 64.1865 96.6723 64.218 96.7769 64.1865C96.8814 64.1549 96.9511 64.1234 96.986 64.1549C97.0208 64.1865 97.1254 64.1549 97.1951 64.1234C97.2299 64.218 97.2648 64.4073 97.0557 64.5019C96.8814 64.5965 96.5678 64.6281 96.4633 64.6911C96.3587 64.7542 95.3133 64.7227 95.2088 64.6596C95.4527 64.8804 95.8012 64.9119 95.8012 64.9119C95.8012 64.9119 95.6618 65.0696 95.4178 65.1327C95.1739 65.2273 94.8254 65.1012 94.7209 65.1643C94.6164 65.2273 94.7906 65.4166 94.93 65.5112C95.0345 65.6058 95.2436 65.5743 95.3133 65.6374C95.383 65.6689 95.5921 65.7005 95.5921 65.7005C95.5921 65.7005 95.4178 65.8582 95.1739 65.8897C94.93 65.9213 94.8603 66.0474 94.8951 66.1105C94.8951 66.1736 95.1042 66.2682 95.2436 66.2682C95.383 66.2682 95.5572 66.2051 95.6966 66.2367C95.8709 66.2682 96.1148 66.2367 96.1845 66.2051C96.2193 66.1736 96.3239 66.0474 96.3587 66.0474C96.4284 66.0474 96.5678 66.2998 96.3587 66.5205C96.1496 66.7413 95.2436 67.4037 93.7103 67.2145C93.9543 67.4668 94.6861 67.4983 94.6861 67.4983C94.6861 67.4983 94.2679 67.6245 94.1285 67.7191C94.5467 67.8768 94.8603 67.6876 95.0345 67.7507C95.2088 67.7822 95.4527 67.7507 95.5921 67.8137C95.7315 67.8768 95.9754 67.9084 96.0799 67.8137C96.1845 67.7191 96.3587 67.8137 96.4981 67.8137C96.6375 67.8137 96.8466 67.656 96.8466 67.656C96.8466 67.656 96.7072 67.9715 96.4284 68.2553C96.1496 68.5392 95.1739 68.8546 94.3724 68.8546C93.5709 68.8546 93.327 68.7915 93.2922 68.8862C93.2573 68.9808 93.5361 69.17 93.6755 69.2647C93.8497 69.3593 94.5815 69.3908 94.7209 69.4224C94.8951 69.4539 94.7558 69.5801 94.477 69.6116C94.1634 69.6432 94.0588 69.6432 94.024 69.7062C93.9891 69.7693 94.3027 69.9586 94.5118 69.927C94.7209 69.927 94.7557 69.8324 94.8951 69.8639C95.0345 69.8955 95.1391 69.7693 95.2785 69.7693C95.383 69.7693 95.4527 69.8639 95.5921 69.7693C95.7315 69.6747 95.9057 69.7062 95.9406 69.7693C95.9754 69.8324 96.2193 69.8639 96.4284 69.7693C96.2193 69.9901 95.9754 70.3371 95.5224 70.5579C95.0694 70.7471 94.6861 70.684 94.477 70.8417C94.3027 70.9994 94.233 71.031 94.233 71.0941C94.233 71.1571 94.5467 71.1887 94.8254 71.1887C95.0694 71.1887 95.7315 71.1256 96.1148 70.7786C95.836 71.0625 95.6966 71.3149 95.6966 71.3149C95.6966 71.3149 96.2542 71.0625 96.533 70.8417C96.7769 70.6209 96.9163 70.4948 96.9511 70.5263C96.986 70.5579 97.0208 70.684 97.3344 70.6209C97.1602 70.8733 97.0905 71.1256 96.742 71.3149C96.3936 71.5041 96.1496 71.788 95.8709 71.9457C95.6269 72.0719 95.1391 72.3873 94.5467 72.3873C93.9543 72.3873 93.7103 72.4188 93.5361 72.3873C93.3619 72.3557 93.1876 72.4188 93.1528 72.5134C93.1528 72.5765 93.2573 72.6081 93.5012 72.7973C93.7452 72.955 94.0588 72.8919 94.0588 72.8919C94.0588 72.8919 93.6755 73.1443 93.327 73.1758C92.9785 73.2073 92.6998 73.2073 92.5255 73.2704C92.3513 73.302 91.7937 73.2073 91.7937 73.2073C91.7937 73.2073 92.0028 73.5228 92.4558 73.6489C92.9088 73.7751 93.6406 73.7435 94.233 73.4912C93.8149 73.8066 93.0482 74.1536 93.0482 74.1536C93.0482 74.1536 93.3619 74.3428 93.7103 74.2167C94.0937 74.0905 94.1633 73.9643 94.2679 73.9643C94.3724 73.9643 94.5118 74.0274 94.7209 73.9013C94.93 73.8066 95.1042 73.8066 95.2088 73.7751C95.3133 73.712 95.4527 73.5543 95.4527 73.5543C95.4527 73.5543 95.383 73.8066 95.2088 73.9643C95.0345 74.122 95.0345 74.2482 95.0345 74.2482C95.0345 74.2482 95.3133 74.1221 95.5921 74.0274C95.8709 73.9328 96.7769 73.2704 96.7769 73.2704C96.7769 73.2704 96.533 73.9013 95.7663 74.2798C94.9997 74.6583 94.1285 75.226 93.78 75.3837C93.4664 75.573 93.1528 76.0776 93.1528 76.0776C93.1528 76.0776 94.9997 75.3522 95.5572 75.0052C94.477 75.6991 93.7452 76.3615 93.0134 76.4877C92.2816 76.6138 92.1074 76.6769 91.8634 76.6454C91.6544 76.6138 91.5847 76.5823 91.5498 76.7085C91.515 76.8346 91.8983 77.087 92.0028 77.1816C92.1074 77.2762 92.6998 77.15 92.6998 77.15C92.6998 77.15 92.4907 77.3708 92.5255 77.4654C92.5604 77.5601 93.0134 77.6547 93.5709 77.4654C94.1285 77.2762 94.3376 77.0554 94.4073 77.0869C94.477 77.0869 94.4421 77.3077 94.7557 77.3077C95.0694 77.3077 95.4875 76.9292 95.5921 76.9608C95.6618 76.9608 95.7663 76.9292 95.7663 76.9292C95.7663 76.9292 94.1982 78.664 93.6406 79.0741C93.2225 79.3895 92.6998 79.8626 92.421 80.1149H52.3119C51.9286 79.9888 51.371 79.7995 51.0225 79.8311C51.1271 79.6418 50.8135 79.6418 50.4998 79.5472C50.1862 79.4526 50.1862 79.4526 50.1862 79.4526C50.1862 79.4526 50.8135 79.5156 51.1619 79.2633C51.5104 79.011 51.4407 78.664 51.3362 78.664C51.2316 78.664 51.1271 78.8217 51.0574 78.8217C50.9877 78.8217 50.1165 78.5063 49.8377 77.9701C50.4301 78.3486 51.371 77.9701 51.371 77.9701C51.371 77.9701 51.0225 77.8755 50.8135 77.907C51.5104 77.7493 51.6149 77.4654 51.6149 77.4654C51.6149 77.4654 50.8483 77.6862 50.5695 77.5601C50.2908 77.4339 50.1514 77.3077 50.1514 77.3077C50.1514 77.3077 50.5695 77.3393 50.8832 77.2447C49.6984 77.1816 49.2802 76.7085 49.2453 76.5192C49.1756 76.33 49.0363 76.1092 49.1408 76.0776C49.2453 76.0461 49.5241 76.2669 49.9771 76.0776C49.9074 75.983 49.6635 75.9515 49.6635 75.9515C49.6635 75.9515 50.1165 75.7937 50.1165 75.636C50.1165 75.4783 49.7332 75.636 49.5938 75.573C49.4544 75.5099 49.1408 75.2575 49.1408 75.1945C49.1408 75.1314 49.559 75.0683 49.5241 74.8475C49.4893 74.6267 49.1408 74.816 48.9666 74.7213C48.7923 74.6267 49.0363 74.4059 48.862 74.2167C49.0363 74.1536 49.0363 74.0274 49.0014 73.9643C48.9666 73.9013 48.7923 73.8066 48.7923 73.6489C48.8272 73.4912 48.8272 73.4912 48.8969 73.4912C48.9666 73.4912 48.9317 73.3651 48.862 73.3335C48.7923 73.302 48.5832 73.2073 48.5832 73.1127C48.5832 73.0181 48.5484 72.7658 48.5484 72.6081C48.5832 72.4504 48.4787 71.9141 48.4787 71.9141C48.4787 71.9141 48.409 72.3242 48.409 72.6081C48.409 72.8919 48.3045 73.0181 48.3045 73.1758C48.3045 73.3335 48.3393 73.5228 48.3045 73.6174C48.2696 73.712 48.1302 73.9643 48.1999 74.0905C48.2696 74.2167 48.3393 74.2167 48.2348 74.2798C48.1302 74.3428 47.8863 74.4375 47.956 74.5321C48.0257 74.6267 48.0605 74.6267 48.0605 74.6267C48.0605 74.6267 47.7818 74.7844 47.5727 74.7844C47.3636 74.816 47.3636 74.9737 47.5378 75.0683C47.7121 75.1314 47.8515 75.2575 47.9212 75.2575C47.9908 75.2575 48.1302 75.1629 48.1302 75.1945C48.1651 75.1945 48.1999 75.4468 48.0257 75.573C47.8515 75.6991 47.8515 75.6045 47.7121 75.6991C47.5727 75.7937 47.6075 75.8884 47.4681 75.9199C47.3287 75.9199 47.2591 76.0145 47.2939 76.0776C47.3287 76.1407 47.5378 76.2038 47.6424 76.2038C47.7469 76.2038 47.956 76.1722 47.956 76.1722C47.956 76.1722 47.8166 76.4561 47.3984 76.6769C47.8863 76.74 48.1651 76.3615 48.1651 76.3615C48.1651 76.3615 47.8166 77.0554 47.3636 77.2447C46.8757 77.4654 46.6666 77.4024 46.6318 77.497C46.3879 77.497 46.3182 77.497 46.3182 77.497C46.3182 77.497 46.5273 77.6862 46.8757 77.7178C47.2242 77.7809 47.3984 77.7178 47.3984 77.7178C47.3984 77.7178 47.1197 77.8755 46.9106 77.8439C47.3287 77.9701 47.6772 77.7809 47.6772 77.7809C47.6772 77.7809 47.3984 78.1278 47.05 78.0963C47.1894 78.2855 47.3287 78.254 47.3287 78.254C47.3287 78.254 47.0848 79.011 46.0046 78.8533C46.597 78.7586 46.5273 78.4432 46.6666 78.3486C46.9106 78.1278 46.9454 77.9386 46.8757 77.907C46.806 77.907 45.6212 78.2855 44.994 77.9386C45.6212 78.0332 46.0742 77.8439 46.0742 77.8439C46.0742 77.8439 45.4818 77.7493 45.3773 77.6547C45.2728 77.5601 45.5864 77.497 45.7955 77.497C46.0046 77.5285 46.597 77.3077 46.7363 77.1185C46.8757 76.9292 46.6666 76.7085 46.6666 76.7085C46.6666 76.7085 47.0848 76.5507 47.1197 76.33C46.4924 76.6454 46.1439 76.6769 45.8652 76.5507C45.5515 76.4246 45.4818 76.4877 45.3076 76.4561C45.1334 76.393 44.8894 76.1722 44.8894 76.1722C44.8894 76.1722 45.0637 76.0776 45.0985 75.9515C45.5864 76.1092 46.0394 76.0461 46.1788 75.7937C46.3182 75.5414 46.1091 75.3837 45.8652 75.4783C45.6212 75.573 44.9591 75.0367 44.9591 75.0367C44.9591 75.0367 45.6909 75.1314 46.2136 74.816C45.9 74.8475 45.7606 74.8475 45.7606 74.8475C45.7606 74.8475 46.3182 74.5952 46.353 74.122C46.353 74.0274 46.1439 74.2167 45.7955 74.3113C45.447 74.4059 44.7152 74.0274 44.7152 74.0274C44.7152 74.0274 45.3076 73.8066 45.3076 73.4597C45.3076 73.1443 44.8546 73.3335 44.6107 73.1443C44.3667 72.955 44.2622 72.9235 44.2622 72.8919C44.2622 72.8604 44.7152 72.7027 44.9243 72.198C44.5758 72.2926 44.4713 72.4819 44.4713 72.4819C44.4713 72.4819 44.4713 71.6618 44.4713 71.441C44.4364 71.2202 44.2273 71.2202 44.2273 71.1256C44.2273 71.031 44.1925 70.1163 43.9486 70.1478C43.7046 70.1478 43.844 70.5579 43.9137 70.6209C43.9834 70.684 43.9137 70.8733 43.8092 71.031C43.7046 71.1887 43.7046 71.3464 43.7046 71.441C43.7046 71.5041 43.5304 71.6933 43.5304 71.7249C43.5304 71.788 43.7046 72.0088 43.6349 72.1665C43.6001 72.3242 43.4956 72.1349 43.5304 72.4504C43.5653 72.7658 43.7743 72.6396 43.7743 72.7342C43.7395 72.8288 43.6001 72.7658 43.4607 72.8288C43.3213 72.8919 43.3213 72.955 43.2516 72.955C43.1819 72.955 42.7986 72.8919 42.6941 73.0181C42.6244 73.1127 42.6244 73.1758 42.6244 73.1758C42.6244 73.1758 42.485 73.1127 42.3804 72.9866C42.485 73.3335 42.6244 73.3966 42.7638 73.4597C42.9032 73.5228 43.0425 73.4912 43.1122 73.5543C43.0425 73.6489 42.6941 73.6489 42.6941 73.6489C42.6941 73.6489 42.938 73.7435 43.2168 73.7435C43.5304 73.7435 43.7743 73.7435 43.7743 73.7435C43.7743 73.7435 43.4607 73.9328 43.2168 74.0274C42.938 74.1221 42.9728 74.2167 42.8335 74.2167C42.6941 74.2167 42.5895 74.2482 42.5547 74.3428C42.5198 74.4375 42.6592 74.5952 42.9032 74.6267C43.1471 74.6583 43.5653 74.6267 43.5653 74.6267C43.5653 74.6267 43.7395 74.6898 43.6001 74.816C43.4607 74.9106 43.2168 74.9106 43.1122 75.0052C43.0077 75.0998 42.938 75.1314 42.7638 75.1314C42.5895 75.1314 42.5547 75.226 42.4153 75.226C42.2759 75.226 42.1017 75.226 42.032 75.3206C41.9623 75.4152 41.9971 75.5414 41.9971 75.5414C41.9971 75.5414 41.6835 75.5099 41.579 75.4468C41.788 75.6676 42.2411 75.8884 42.5895 75.8884C42.938 75.8568 43.1471 75.8253 43.1471 75.8253C43.1471 75.8253 43.2168 75.9515 43.3213 75.9515C43.0425 76.1092 43.0077 76.2353 42.7638 76.2353C42.5198 76.2353 41.579 76.2353 41.1608 75.8884C41.5093 76.4246 41.9274 76.5192 41.9274 76.5192C41.9274 76.5192 41.4744 76.5192 41.4047 76.6769C41.335 76.8662 41.4744 77.1185 41.8229 77.15C42.1714 77.1816 42.2062 77.3393 42.3456 77.3708C42.485 77.4024 43.0425 77.4654 43.0425 77.4654C43.0425 77.4654 42.8335 77.8124 42.4501 77.8124C42.0668 77.8124 40.6729 77.4654 40.6729 77.4654C40.6729 77.4654 41.1608 77.9701 41.579 78.0963C40.7078 78.0963 38.3382 77.4024 37.8852 76.9608C38.6518 77.0554 40.0805 76.9292 40.6729 76.7085C38.7912 76.5823 36.5958 75.8253 36.0383 75.3522C37.467 75.7307 38.617 75.3837 38.617 75.3837C38.617 75.3837 37.7109 74.879 37.0837 74.6267C37.8852 74.6267 38.373 74.9737 38.7563 75.0683C39.1397 75.1629 40.9866 75.2891 41.5093 75.0367C42.032 74.7844 42.3804 74.3744 42.2759 74.2798C42.1714 74.2167 41.7184 74.4375 41.0911 74.4059C40.4639 74.3744 39.7669 73.9643 39.2791 73.8697C38.7912 73.7751 38.6518 73.3966 38.6518 73.3966C38.6518 73.3966 38.7563 73.4281 39.3487 73.2389C39.9411 73.0496 40.3245 73.1758 40.7078 73.0496C41.1259 72.8919 41.788 72.5765 41.6138 72.3873C41.4396 72.1665 40.6729 72.5765 40.1502 72.5134C39.6275 72.4503 38.8609 72.3873 38.4079 72.2296C37.9549 72.0718 37.467 72.1034 37.0488 71.9141C36.6307 71.7249 36.317 71.5041 35.8989 71.4095C35.4807 71.3464 35.0974 70.5894 35.0974 70.5894C35.0974 70.5894 35.6549 70.6209 35.864 70.4948C36.0731 70.3686 36.0731 70.2424 36.0731 70.2424C36.0731 70.2424 37.1185 70.5894 37.7109 70.6209C38.3033 70.6525 38.4776 70.4948 38.7215 70.4317C38.9654 70.3686 39.4533 70.3371 39.4533 70.1794C39.4881 70.0217 37.4321 69.3908 37.4321 69.3908C37.4321 69.3908 38.5821 69.4224 39.523 69.17C38.5124 69.17 36.7352 69.0123 35.6201 68.4446C34.505 67.9084 34.2611 67.4668 34.2611 67.4668C34.2611 67.4668 34.8883 67.5614 35.0625 67.4037C35.2019 67.246 34.4701 66.6782 34.4701 66.6782C34.4701 66.6782 35.2019 66.899 35.6549 66.899C36.108 66.899 36.8397 66.899 37.467 66.2367C37.014 66.1736 36.4216 65.8582 36.4216 65.8582C36.4216 65.8582 38.0246 65.7005 38.6866 64.6596C38.2336 64.9435 37.6064 64.9435 37.2928 64.8488C36.9791 64.7542 36.4913 64.565 36.1776 64.5965C35.864 64.628 35.4459 64.218 35.1671 64.218C34.8883 64.218 34.7838 64.4073 34.2262 64.3442C33.6687 64.2811 33.3899 64.0918 33.3899 64.0288C33.3899 63.9657 33.6338 63.6503 33.1808 63.3348C32.7278 63.0194 32.3445 62.3255 32.4142 62.2624C32.4839 62.1994 32.7278 62.4201 32.9717 62.4201C33.2156 62.4201 33.5641 62.5779 33.8429 62.5779C34.1217 62.5779 34.1565 62.4832 34.4353 62.5148C34.7141 62.5463 34.8535 62.5779 35.3413 62.5463C35.8292 62.5148 36.2473 61.9786 36.2473 61.9786C36.2473 61.9786 35.8989 62.1363 35.3762 62.0732C34.8535 62.0101 34.5398 61.8839 34.5398 61.8839C34.5398 61.8839 35.3065 61.8839 35.5852 61.537C35.1322 61.6316 33.7383 61.4108 33.4944 61.2531C33.2505 61.127 33.0414 60.3384 32.3793 60.1176C31.7172 59.9284 31.6475 59.5814 31.6475 59.5814C31.6475 59.5814 32.5884 59.7707 33.0763 59.3922C33.5641 59.0137 33.5293 58.5721 33.3899 58.5721C33.2505 58.5721 33.2505 58.6983 32.9717 58.6667C32.6929 58.6352 32.5187 58.2882 32.5187 58.2882L32.8672 58.3198C32.8672 58.3198 32.7278 58.0043 32.0308 57.9413C31.3339 57.8782 31.5778 57.6889 31.5081 57.5312C31.4384 57.3735 31.6475 57.342 31.7521 57.3104C31.8566 57.2789 32.449 57.1212 32.8323 56.8373C32.9369 56.7427 33.0066 56.6165 33.0763 56.4903C33.355 56.9635 34.2262 58.2567 35.8292 59.4237C37.6064 60.7484 40.4987 61.9155 47.2939 60.4646C52.2422 59.4237 53.6361 58.5721 53.6361 58.5721C53.6361 58.5721 51.7892 60.1807 46.8757 61.4108C42.6941 62.4832 38.8609 62.1047 38.8609 62.1047C38.8609 62.1047 40.7426 63.3664 42.3108 63.8711C43.844 64.3757 46.7712 63.9026 49.4893 62.8933C52.2422 61.8839 54.7163 59.8653 54.7163 59.8653C54.7163 59.8653 52.6255 62.0732 49.9771 63.3664C47.3287 64.6596 44.9591 64.8488 44.9591 64.8488C44.9591 64.8488 48.1302 66.5836 51.1968 64.7542C54.2633 62.9248 56.3542 60.8115 56.3542 60.8115C56.3542 60.8115 55.2739 62.704 53.1482 64.1865C51.0225 65.7005 49.768 66.1105 49.768 66.1105C49.768 66.1105 50.4301 66.3628 51.371 66.3628C52.4164 66.3944 53.8103 66.079 55.1345 64.8804C56.0754 64.0288 57.0511 63.0825 57.8874 62.2624C58.2708 62.3255 58.6192 62.1994 58.6192 62.1994C58.6192 62.1994 58.5495 62.5779 58.8283 62.9564C59.1071 63.3349 59.7343 63.2718 59.7343 63.2718C59.7343 63.2718 59.9086 63.9657 60.6404 64.1865C61.6509 64.4388 61.9297 63.9026 62.9054 63.6818C63.8812 63.461 64.1599 63.1771 64.3342 62.8302C64.5432 62.4832 64.7872 61.4424 64.7872 61.4424C64.7872 61.4424 64.8569 61.6632 64.9614 61.9786C65.066 62.2624 65.5887 62.9879 65.5887 62.9879C65.5887 62.9879 64.8569 63.5872 65.2053 64.0919C65.519 64.5965 66.2856 64.5019 67.575 64.6596C68.8643 64.7858 69.7355 63.4926 70.537 62.9248C71.3384 62.3571 70.7809 62.0416 70.6067 61.3162C70.5718 61.1585 70.5718 61.0323 70.5718 60.9062C73.2202 60.9062 76.0777 60.7485 78.2382 60.1492C86.2182 57.8782 94.6861 54.4401 98.7283 53.1469C102.178 52.043 103.328 52.9577 103.433 53.7147C103.502 54.2824 103.537 54.2509 103.537 54.2509C103.537 54.2509 105.245 53.21 105.419 51.286C105.558 49.362 103.781 48.1319 102.562 47.8795C101.377 47.6272 100.122 47.5641 100.122 47.5641L99.8086 47.0594C99.8086 47.0594 99.1465 46.3971 96.1496 46.0186C94.4421 45.7978 93.4664 45.7347 92.9785 45.7347C94.5467 45.577 99.1465 44.5677 101.063 44.6938C103.293 44.82 103.607 45.3562 107.405 46.1763C111.204 46.9964 110.332 48.1003 111.691 49.2358C113.051 50.3713 118.696 52.8631 120.543 53.3047C122.39 53.7462 127.059 52.5161 127.059 52.5161C122.773 49.3304 108.242 38.9848 108.242 38.9848C122.006 35.1998 127.408 29.6801 129.08 22.4255C129.115 22.3309 129.115 22.2994 129.115 22.2994C127.582 24.0341 125.108 27.1567 123.226 28.5761C121.379 29.9639 120.403 30.6579 120.403 30.6579C120.403 30.6579 120.961 30.2478 122.25 28.0399C124.341 24.4757 123.853 21.1639 123.853 21.1639C119.393 28.1976 114.758 31.6041 114.758 31.6041C114.758 31.6041 115.943 30.6894 116.605 28.0399C117.267 25.3904 115.978 23.4664 115.978 23.4664C115.385 27.1252 110.611 32.3611 110.611 32.3611C110.611 32.3611 112.284 29.9324 111.482 26.8413C111.482 26.8413 110.995 28.3553 110.228 29.4593C108.973 31.3202 106.743 33.465 104.792 34.7582C104.722 34.8213 104.618 34.8529 104.513 34.916L102.666 33.3389L99.0071 29.9955C98.4147 29.4277 97.8223 28.86 97.2648 28.2922C96.6724 27.7245 96.0799 27.1567 95.5572 26.5575C94.9997 25.9582 94.4421 25.3904 93.9194 24.7596C93.3967 24.1603 92.874 23.5295 92.3861 22.8986L91.9331 22.2994L91.3059 22.7409C91.062 22.8986 90.9574 23.0248 90.8529 23.1825C90.7483 23.3087 90.6438 23.4348 90.5741 23.561C90.3999 23.8133 90.2605 24.0341 90.0862 24.2865C89.7726 24.7596 89.4938 25.2012 89.1802 25.6112C88.8666 26.0212 88.5181 26.3997 88.1696 26.6521C87.7863 26.9044 87.5075 26.9675 87.1591 26.9044H87.1242H87.0545C86.95 26.9044 86.7757 26.8098 86.5667 26.6205C86.3576 26.4313 86.1485 26.179 85.9743 25.9266C85.5909 25.3904 85.2425 24.7596 84.8592 24.1603C84.1274 22.9302 83.3607 21.7001 82.4895 20.5015C81.6184 19.3345 80.6426 18.199 79.5624 17.1581C78.4821 16.1172 77.2625 15.171 76.008 14.3194L75.555 14.0355L75.1368 14.3509C74.9277 14.5086 74.6838 14.6663 74.4747 14.7609C74.2308 14.8556 74.0217 14.9502 73.7778 14.9817C73.5687 15.0133 73.3247 15.0133 73.1157 14.9502C72.9066 14.8871 72.6626 14.7925 72.4187 14.6348C71.5127 14.067 70.746 13.0892 70.0491 12.143C68.6204 10.2505 67.2613 8.2003 65.4841 6.43397L65.2402 6.18164L64.9614 6.37089C63.9508 7.03326 63.2191 7.85334 62.5221 8.67342C61.8252 9.4935 61.1631 10.3451 60.5358 11.1967C59.2465 12.8684 57.9571 14.5401 56.4936 16.1172C55.7618 16.9058 54.9951 17.6312 54.1936 18.3567C53.8103 18.7036 53.3573 19.0506 52.9391 19.366C52.521 19.6814 52.068 19.9968 51.6149 20.2807C51.1619 20.5646 50.6741 20.8484 50.1862 21.1008C49.6984 21.3531 49.2105 21.5739 48.6878 21.7947C48.1999 22.0155 47.6424 22.1732 47.1197 22.3309C46.597 22.4886 46.0394 22.6148 45.5167 22.7094L45.3773 22.7409L45.3076 22.8671C44.4713 24.0972 43.5652 25.2958 42.6244 26.4313C42.2411 26.936 41.788 27.4406 41.3699 27.9453C38.3382 23.6556 38.1291 17.8835 38.8609 11.8907L38.5473 12.1745C33.2853 16.9373 34.8535 23.4348 34.8535 23.4348C34.8535 23.4348 31.7172 19.776 29.6612 14.5401C28.4764 11.5437 28.2673 10.3767 28.2673 10.3767C27.0825 13.2154 26.6295 14.9817 27.4659 18.956C28.3022 22.9617 30.4627 25.7058 30.4627 25.7058C30.4627 25.7058 25.8977 21.9839 21.8903 14.5086C21.5418 15.6441 20.9843 17.852 22.0645 21.5108C23.2494 25.5166 27.2916 29.0177 27.2916 29.0177C27.2916 29.0177 22.3085 26.2736 17.6738 18.1043V18.5775C17.0466 20.7223 17.5344 23.2771 19.2071 26.1474C21.054 29.3331 23.5281 31.3518 23.5281 31.3518C23.5281 31.3518 21.3328 30.0901 18.1268 27.5352C14.9209 24.9804 14.5376 24.5703 14.5376 24.5703C14.9557 26.5259 15.4436 29.9639 19.6949 33.5912C24.3645 37.597 31.5081 38.7956 31.5081 38.7956C31.5081 38.7956 28.8597 38.9848 25.6887 38.0701C22.413 37.1239 20.1828 35.5468 20.1828 35.5468C20.1828 35.5468 22.3433 38.764 26.1068 40.2465C27.0825 40.625 28.128 40.8458 29.1385 40.9719C28.9643 41.0981 28.7552 41.2558 28.5461 41.445C27.884 41.382 27.431 41.3189 27.431 41.3189C27.431 41.3189 27.6749 41.5081 28.128 41.7605C24.6432 44.473 17.4299 50.119 15.0951 51.7276C15.0951 51.7276 18.7541 54.3771 20.9843 54.3771C23.1797 54.3771 23.3539 51.6645 27.0825 50.7813C30.846 49.8982 29.6264 48.1949 33.7035 47.5641C35.2019 47.3118 36.5958 47.091 37.7109 46.8702C39.4881 47.7849 42.2411 48.6681 44.8894 48.7627C48.1651 48.8888 50.3605 48.6365 48.9317 48.8888C47.4681 49.1412 46.0743 49.1727 45.4818 49.1727C44.8894 49.1727 44.8894 49.1727 44.8894 49.1727C44.8894 49.1727 45.7606 49.8035 47.3287 51.2229C48.3393 52.1376 50.4301 53.5885 52.521 54.6294C50.7786 55.1025 47.6075 55.828 43.4956 56.2696C37.7458 56.9004 33.9126 56.4904 33.1459 56.3957C33.1459 56.2065 33.1111 56.0803 33.0414 56.0803C32.902 56.0803 32.8672 56.2696 32.6929 56.238C32.5187 56.238 32.2399 56.1434 32.1354 55.9857C32.0308 55.828 31.7172 55.8911 31.543 55.9857C31.3687 56.0803 31.2642 56.1749 31.1945 56.0803C31.09 56.0172 30.9854 55.7649 30.9854 55.5756C30.9854 55.3864 31.2642 55.3233 31.4384 54.9764C31.6127 54.6294 31.543 53.8409 31.5778 53.6201C31.5778 53.3993 31.8566 52.9577 31.7172 52.6423C31.5778 52.3269 31.09 51.7276 31.0203 51.4437C30.9506 51.1598 30.637 50.4659 30.637 50.4659C30.637 50.4659 30.5324 51.3806 30.4976 51.8222C30.4627 52.2638 30.4279 53.0839 30.3582 53.3362C30.2885 53.5885 30.3582 53.9355 30.1839 54.2509C30.0445 54.5663 29.8355 54.9133 29.9052 55.2287C29.9749 55.5441 30.1839 55.6072 30.1839 55.6072C30.1839 55.6072 30.2536 55.7333 30.1491 55.828C30.0794 55.8911 28.8249 56.0803 28.4764 55.8911C28.0234 55.6703 27.884 55.2918 27.884 55.2918C27.884 55.2918 27.8492 55.7333 28.0583 56.1118C28.2673 56.5219 28.581 56.7427 28.581 56.7427C28.581 56.7427 28.4764 56.995 28.7552 57.1212C29.034 57.2789 29.6961 57.3104 29.6961 57.3104C29.6961 57.3104 29.4521 57.9413 29.2082 58.0674C28.9991 58.1936 28.6158 58.0359 28.337 58.2567C28.0583 58.4775 27.7098 58.4459 27.4659 58.6667C27.2219 58.8875 27.3265 59.0452 27.3962 59.0452C27.4659 59.0452 27.6749 58.919 27.8143 58.9821C27.9537 59.0452 28.0234 59.2029 28.2673 59.266C28.4764 59.3606 28.7204 59.3606 28.7204 59.3606C28.7204 59.3606 28.2325 59.8653 27.884 59.9284C28.7552 60.1176 29.2431 59.4553 29.487 59.5183C29.7309 59.5814 29.5915 60.1176 29.1734 60.433C28.7204 60.7485 27.3613 61.2847 26.6992 61.2847C26.0371 61.2847 26.0023 61.2531 25.8629 61.4108C25.7235 61.5685 25.8977 61.6947 26.3159 61.7578C26.7341 61.8209 26.7341 61.947 27.0825 61.947C27.431 61.9786 27.5704 61.947 27.5704 61.947C27.5704 61.947 26.4901 62.4832 26.8386 62.7356C27.1871 62.9879 27.3613 62.6094 27.7098 62.6094C28.0583 62.6094 28.2673 62.6409 28.337 62.7986C28.4416 62.9564 29.034 62.6409 29.3128 62.3255C29.6264 61.9786 29.3476 62.8617 29.2082 63.051C29.1037 63.2402 28.4764 63.7133 27.9189 64.1234C27.3613 64.5334 26.3159 65.0065 25.4796 65.0696C24.6432 65.1327 24.1902 65.0381 24.1205 65.2273C24.0508 65.385 24.1902 65.7635 24.7826 65.8582C25.375 65.9528 26.0023 65.8266 26.1417 65.9213C26.2811 66.0159 25.8629 66.7729 25.4796 66.836C25.0963 66.899 24.8872 66.899 24.8523 67.1514C24.8175 67.3722 25.3402 67.4983 25.6538 67.4983C25.9674 67.4983 26.7341 67.0568 26.7341 67.0568C26.7341 67.0568 26.4901 67.7191 26.5947 67.9715C26.072 68.3184 24.3993 70.0217 24.3993 70.0217C24.3993 70.0217 24.0508 69.8324 23.2842 69.7062C22.5176 69.5801 22.5873 69.2647 22.5873 69.2647C22.5873 69.2647 22.7266 68.9808 23.2494 69.0439C23.8069 69.1069 24.7826 68.3815 24.8523 68.0976C24.922 67.7822 24.6432 67.7822 24.6432 67.7822C24.6432 67.7822 24.7478 67.1829 24.016 67.1198C23.2842 67.0567 23.1448 66.836 22.5873 66.489C22.0645 66.142 21.9949 66.2051 21.9949 66.2051C21.9949 66.2051 22.3085 65.7951 22.5176 65.732C22.7266 65.6689 23.2145 65.7005 23.563 65.322C23.9114 64.9435 24.1205 64.7858 24.2599 64.7542C24.3993 64.7227 24.3993 64.4073 23.9114 64.0603C23.4236 63.7134 23.4236 63.7449 23.2145 63.461C23.0054 63.2087 22.7266 63.0825 22.7266 63.0825C22.7266 63.0825 22.866 62.7671 22.7963 62.6094C22.7266 62.4517 22.4479 62.294 22.4479 62.1047C22.4479 61.9155 22.413 61.4108 22.0994 61.0639C21.7858 60.7169 21.7858 60.433 21.8206 60.2753C21.8206 60.1176 21.8206 59.676 21.6115 59.4868C21.3676 59.2975 21.5767 58.8875 21.4025 58.919C21.1934 58.9506 21.3328 59.3606 21.2979 59.5183C21.2631 59.676 21.1237 59.613 21.0888 60.0545C21.054 60.4961 21.1585 60.8746 20.9843 61.127C20.81 61.3793 20.3919 61.7578 20.2873 62.2309C20.148 62.704 20.4964 62.8617 20.4964 62.8617C20.4964 62.8617 20.6358 62.9248 20.6358 63.1771C20.601 63.461 20.9843 63.7449 21.0888 63.7449C21.0191 64.0288 20.8797 64.1865 20.5313 64.1865C20.1828 64.1865 19.9737 63.9657 19.5904 64.2811C19.2419 64.565 18.7889 64.5019 18.7192 64.8488C18.6495 65.1643 18.7192 65.3535 19.1722 65.385C19.6252 65.4166 20.0434 65.3535 20.4616 65.322C20.8797 65.2904 20.9494 65.2904 20.9494 65.4481C20.9843 65.5743 21.1237 66.079 20.7404 66.2682C20.357 66.4575 19.1374 66.5836 18.1268 66.5836C17.1162 66.5836 16.3148 66.4259 16.3148 66.4259C16.3148 66.4259 17.7783 67.2145 18.4056 67.3406C17.3253 67.5299 17.5693 68.2238 17.7783 68.3184C17.9526 68.413 18.5798 68.1922 18.8586 68.2238C19.1374 68.2553 19.7298 68.5707 19.9737 68.6969C20.2176 68.8231 20.81 68.9177 20.81 68.9177C20.81 68.9177 20.7404 69.1069 20.601 69.2016C20.4616 69.2962 19.9737 69.1069 19.6949 69.3908C19.3813 69.6747 19.1374 69.7062 18.9283 69.7062C18.7192 69.7062 18.4404 69.6747 17.9526 69.9901C17.4647 70.3055 16.3148 70.0532 16.1405 70.2109C15.9663 70.3686 15.8966 70.6209 16.2799 70.7156C16.6284 70.8417 19.3465 71.1256 19.3465 71.1256C19.3465 71.1256 18.8586 71.441 18.545 71.788C18.2314 72.1349 18.4753 72.4503 18.8238 72.4188C19.2071 72.4188 20.7055 72.1665 20.7752 72.2926C20.81 72.3873 19.5904 72.9235 18.4753 73.0496C17.3602 73.1758 13.1437 72.9235 13.1437 72.9235C13.1437 72.9235 14.2239 73.4597 14.6769 73.6174C14.1542 73.9013 14.5027 74.2167 14.7466 74.3428C14.9906 74.469 16.5587 74.8475 16.5587 74.8475C16.5587 74.8475 15.7224 74.879 14.886 75.3206C15.8269 75.5099 16.6284 75.3206 16.6284 75.3206C16.6284 75.3206 16.2451 75.636 16.6284 76.0461C16.3148 76.4246 16.2102 76.6769 15.8617 76.7085C15.5133 76.74 15.3042 76.74 15.0951 76.9292C14.886 77.1185 14.6421 76.9608 14.3633 77.1185C14.0845 77.2447 13.4921 77.3708 13.1785 77.7178C12.8649 78.0647 12.5513 78.5063 11.924 78.5379L11.3665 78.0016C11.3665 78.0016 11.5059 77.907 11.6452 77.9386C11.7846 77.9701 11.9589 78.0332 12.1331 77.907C12.3073 77.7809 12.2725 77.4654 12.2725 77.4654C12.2725 77.4654 12.83 77.5285 13.1785 77.2131C13.527 76.8977 13.3179 76.7715 13.2482 76.7715C13.1785 76.7715 12.8649 76.9292 12.6558 76.8346C12.4467 76.74 12.377 76.5823 12.2028 76.5823C12.0286 76.5507 11.6801 76.2353 11.6801 76.2353C11.6801 76.2353 12.0983 76.1722 12.4467 76.1407C12.7604 76.1092 12.8997 75.8884 12.83 75.7307C12.7255 75.573 12.6907 75.5414 12.2725 75.5414C11.8543 75.5414 11.6104 75.3837 11.5407 75.1945C11.471 74.9737 11.4362 74.816 11.2968 74.7213C11.1574 74.6267 11.1922 74.5636 11.2271 74.5636C11.2619 74.5636 11.4362 74.7844 11.6104 74.7529C11.7846 74.6898 11.7498 74.6267 11.8195 74.5952C11.8892 74.5636 12.0983 74.6267 12.3422 74.4059C12.5513 74.1851 12.6907 73.9643 12.5513 73.9328C12.4119 73.9013 12.2028 74.0905 12.0286 73.9643C11.8543 73.8382 11.8195 73.9013 11.7149 73.8066C11.6104 73.712 11.5407 73.365 11.1922 73.302C11.1574 73.1443 11.1922 73.0812 11.2271 73.0181C11.2619 72.955 11.471 72.7027 11.471 72.4819C11.471 72.2611 11.4013 72.1665 11.3316 71.9772C11.2619 71.7564 11.4013 71.6303 11.2619 71.4095C11.1225 71.1887 11.1225 70.9994 11.0528 70.8102C10.9831 70.6209 10.9831 70.4002 10.8089 70.4002C10.6347 70.4002 10.8089 70.8417 10.8089 71.1256C10.8089 71.4095 10.6695 71.5987 10.5301 71.9772C10.3907 72.3557 10.3211 72.545 10.3559 72.6711C10.3907 72.7973 10.5998 72.8604 10.6695 72.8288C10.7044 72.9866 10.7044 72.9866 10.565 73.1443C10.4256 73.3335 10.2862 73.3335 9.90288 73.4912C9.51956 73.6489 9.31048 73.9013 9.38018 74.059C9.44987 74.1851 9.55441 74.1221 9.6938 74.1851C9.86804 74.2167 9.86804 74.3428 10.0074 74.3428C10.1468 74.3428 10.2514 74.2798 10.2514 74.2798C10.2514 74.2798 10.4256 74.469 10.2165 74.6267C10.0074 74.816 10.0771 74.816 9.72865 74.816C9.38018 74.816 8.64838 74.9737 8.36961 74.8475C8.64838 75.1314 9.65895 75.1629 9.27563 75.2575C8.64838 75.4468 8.82262 75.4468 8.61354 75.5099C8.40446 75.573 8.26507 75.6045 8.26507 75.7622C8.26507 75.9199 8.509 75.8884 8.57869 75.9199C8.64838 75.9515 8.68323 76.1092 8.85747 76.1092C9.0317 76.1092 9.24079 76.0461 9.38018 76.0461C9.51956 76.0461 9.79834 76.0776 10.0074 75.983C9.93773 76.2353 9.79834 76.3615 9.27563 76.5192C8.75293 76.6769 7.9166 76.8346 7.08026 76.74C7.35904 77.1185 8.82262 77.0554 8.82262 77.0554C8.82262 77.0554 8.4393 77.2762 7.63782 77.4024C6.83633 77.5285 6.55756 77.6232 6.55756 77.6232C6.55756 77.6232 6.90603 77.8755 7.21965 77.907C7.49843 77.9701 7.74236 77.8439 7.98629 77.8755C8.23022 77.907 8.36961 78.0647 8.75293 78.0016C9.1014 77.9701 9.24079 77.8439 9.24079 77.8439C9.24079 77.8439 9.27563 78.0963 9.55441 78.0963C8.85747 78.7587 7.98629 79.2002 7.49843 79.2633C6.97572 79.3264 6.41817 79.1371 6 79.2633C6.69694 79.7995 7.32419 79.8626 7.56812 79.8626C7.77721 79.8626 8.47415 79.8626 8.47415 79.8626C8.47415 79.8626 7.67267 79.9572 7.21965 80.1149H6.73179V80.7458H137.618V80.1149H137.2V80.178ZM100.401 74.3113L99.5995 74.5005L99.1813 73.8382L100.401 74.3113ZM58.1314 61.4424C57.9223 61.127 58.3405 60.9062 59.1419 60.5277C59.9434 60.1492 60.1177 59.8653 60.4661 59.5499C60.8146 59.2345 61.0934 59.4868 61.0934 59.4868C61.1979 59.7391 61.3025 59.9284 60.9191 60.2753C60.1874 60.9377 59.7343 61.2216 59.1768 61.4424C58.6541 61.6947 58.3405 61.6947 58.1314 61.4424ZM59.6646 62.6725C59.1768 62.4202 59.6298 62.1363 60.1525 61.7893C60.6404 61.4739 61.5115 60.7485 61.7903 60.4961C62.2433 60.0861 62.5918 60.3699 62.5918 60.3699C62.8357 60.5907 62.4524 61.0639 61.6161 61.6947C60.8146 62.294 60.1177 62.8933 59.6646 62.6725ZM63.9508 61.6316C63.6721 62.5148 63.3933 62.9248 62.2085 63.2718C61.6161 63.4295 61.1282 63.8395 60.7449 63.5556C60.5358 63.4295 60.4313 63.2402 60.4313 63.2402C60.4313 63.2402 61.4767 62.9248 62.2085 62.4517C62.9403 61.9786 63.1145 61.4108 63.3584 60.9692C63.5327 60.6854 63.8463 60.78 63.8463 60.78C63.8463 60.78 64.2645 60.7484 63.9508 61.6316ZM67.8537 61.6632C67.8537 61.8524 67.7143 62.1994 67.7143 62.1994C67.7143 62.1994 67.7143 62.0417 67.7143 61.7262C67.7143 61.4424 67.5401 61.0323 67.5053 60.9692C67.6446 60.9692 67.7492 60.9692 67.8886 61.0008C67.8537 61.1269 67.8537 61.5054 67.8537 61.6632ZM69.387 61.6316C69.387 62.0416 69.3173 62.3255 69.0037 62.7356C68.6901 63.1456 68.7249 63.0825 68.8643 62.7356C69.0037 62.3571 68.9688 62.1994 68.9688 61.7262C68.9688 61.3477 68.9688 61.1585 68.9688 61.0639C69.1082 61.0639 69.2825 61.0639 69.4219 61.0639C69.4219 61.1269 69.387 61.3162 69.387 61.6316ZM105.942 35.0106C108.625 33.055 110.507 30.6263 110.507 30.6263C110.507 30.6263 110.228 32.1718 109.322 33.465C108.451 34.7582 107.37 35.6414 107.37 35.6414C107.37 35.6414 110.158 34.0643 112.005 32.1403C114.41 29.6485 115.35 27.8822 115.35 27.8822C115.35 27.8822 115.246 30.5001 112.284 33.1812C109.914 35.326 107.963 36.1776 107.963 36.1776C107.963 36.1776 116.256 34.7267 122.459 24.9173C122.459 24.9173 120.717 34.222 107.127 37.5024C100.54 39.0794 97.0557 40.1518 95.6966 40.7511C94.9997 41.035 94.477 41.382 93.7452 41.3504C91.515 41.2558 86.9151 40.4673 82.9077 41.5081C76.7746 43.0852 74.9277 44.82 74.9277 44.82C74.9277 44.82 80.8517 38.354 94.024 37.25C97.892 36.9346 102.562 37.5339 105.942 35.0106ZM86.7757 28.4184C86.95 28.4499 87.1591 28.4815 87.3681 28.4815C87.5772 28.4815 87.8212 28.4499 88.0302 28.3869C88.4484 28.2922 88.7969 28.103 89.1105 27.9137C89.7029 27.5037 90.1211 27.0306 90.4696 26.5575C90.818 26.0843 91.1316 25.5797 91.4453 25.1381C91.5498 24.9488 91.6544 24.7911 91.7937 24.6334C92.1074 25.0119 92.421 25.3904 92.7346 25.7689C93.2573 26.3997 93.8846 26.9675 94.4421 27.5983C94.9997 28.1976 95.6269 28.7654 96.2193 29.3331C96.8117 29.9009 97.4041 30.4686 98.0314 31.0363C99.2859 32.1403 100.54 33.2443 101.795 34.3167L103.363 35.6099C102.596 35.8937 101.76 36.083 100.854 36.2092C98.3799 35.326 95.0345 32.1403 93.6755 30.6894C92.1074 32.8973 96.4633 35.8307 94.024 36.493C91.6195 35.2314 88.7272 31.5095 86.5667 28.3869C86.6712 28.3869 86.7409 28.3869 86.7757 28.4184ZM45.6909 23.2141C46.2136 23.0879 46.7015 22.9933 47.2242 22.8356C47.503 22.7725 47.7818 22.6463 48.0257 22.5517C48.3045 22.4571 48.5484 22.3624 48.8272 22.2363C49.3499 22.0155 49.8726 21.7631 50.3605 21.5108C50.8483 21.2585 51.3362 20.9746 51.824 20.6592C53.7058 19.4606 55.3436 17.9782 56.842 16.4326C58.3405 14.8556 59.6646 13.1839 61.0237 11.5437C61.6858 10.7236 62.3479 9.872 63.0448 9.115C63.6721 8.42109 64.3342 7.75872 65.066 7.25405C66.5992 8.92575 67.784 10.8182 69.1082 12.7107C69.4567 13.2154 69.84 13.6885 70.2233 14.1932C70.6415 14.6663 71.0945 15.1394 71.6869 15.5495C71.9657 15.7387 72.3142 15.928 72.6975 16.0541C73.0808 16.1803 73.499 16.2118 73.9171 16.1803C74.3353 16.1488 74.7186 16.0226 75.0671 15.8649C75.2413 15.8018 75.3807 15.7072 75.5201 15.6126C77.7155 17.2212 79.5972 19.1452 81.1305 21.3216C81.9668 22.4571 82.6986 23.6556 83.3956 24.8858C83.4304 24.9488 83.4653 24.9804 83.5001 25.0435C83.3956 26.3051 83.2562 28.0399 82.9426 28.7969C82.4547 29.9955 80.5033 26.3997 78.2033 26.2736C78.8306 26.3051 86.3924 35.8307 86.6364 37.0292C83.988 35.3891 81.2002 32.708 78.4124 31.6041C78.7261 32.6765 79.0397 33.7805 79.0397 34.916C78.2382 34.3797 77.5064 33.7489 76.8095 33.1181C74.8232 31.2571 73.2899 29.0492 71.7218 26.8413C72.349 27.7245 72.802 33.6858 72.8717 34.7582C71.7915 33.465 71.2688 31.7618 70.5718 30.3109C69.1431 31.8564 66.6341 31.1625 65.1705 32.3611C64.1251 33.2127 64.2993 34.6005 63.3236 35.6099C62.9054 36.0514 62.3479 36.3669 61.6858 36.6507C61.0934 36.4615 60.4313 36.2722 59.7343 36.083C59.3859 35.9884 59.0722 35.9253 58.7238 35.8307C58.7935 34.5375 58.7586 32.9288 61.9646 30.3424C66.3205 28.0399 63.0448 25.832 62.8009 23.4348C63.3933 22.1101 64.1251 18.9244 61.8252 18.1674C60.8494 23.4979 55.7966 24.2865 51.7892 27.346C50.918 28.0084 47.8863 29.7747 44.994 31.5095C43.9137 30.8156 42.9728 29.9955 42.2062 29.1439C43.4956 26.8098 44.8894 24.5388 45.6909 23.2141ZM37.1534 17.1896C37.1882 17.095 37.5018 16.5903 37.5018 16.5903C37.7458 25.485 40.7078 30.027 45.7955 32.708C46.5621 33.2127 47.3287 33.6543 48.1651 34.0328C48.5484 34.1274 48.8969 34.2536 49.2453 34.4428C49.315 34.4744 49.3847 34.4744 49.4544 34.5059C52.4861 35.3891 55.5875 35.8622 58.6541 36.493C63.3584 37.597 65.3447 38.7325 71.5824 43.5899C74.3005 45.7347 75.8337 47.1541 78.8654 47.1541C78.8654 47.1541 82.0365 46.9333 83.744 46.9333C89.0408 46.9333 92.0028 47.1856 96.6375 47.6587C98.4844 47.848 98.6586 48.2265 99.0071 48.3842C99.3556 48.5419 99.4253 48.5419 99.251 48.6996C99.0768 48.8573 99.042 48.9835 98.345 48.8888C97.6481 48.8258 95.6269 48.6365 94.6164 48.6681C93.6058 48.6996 93.1876 48.7627 92.9437 48.7627C92.6998 48.7627 92.6649 48.7627 92.8043 48.8888C92.9437 49.015 92.9437 48.9835 93.5709 49.0465C94.1982 49.1096 94.8951 49.3304 94.8951 49.3304C94.8951 49.3304 94.7906 50.3082 95.4178 50.5605C96.0451 50.8129 96.742 50.7183 97.1951 50.3713C97.6829 49.9928 97.6481 49.8035 97.7178 49.7405C97.7875 49.6774 97.7875 49.6774 97.9268 49.6774C98.0662 49.6774 98.8329 49.6143 99.0768 49.5828C99.3207 49.5512 99.3207 49.5828 99.3207 49.3935C99.3207 49.2043 99.3207 49.1727 99.495 49.1096C99.6692 49.0781 100.331 49.0466 101.621 49.2358C103.224 49.4881 103.781 50.4659 103.886 51.2229C103.99 52.0114 103.781 52.3899 103.711 52.5161C103.677 52.6423 103.677 52.6423 103.677 52.6423C103.677 52.6423 103.607 52.2322 103.049 51.8537C101.655 50.939 97.7875 52.1376 97.7875 52.1376C97.7875 52.1376 84.2668 56.6165 77.9246 58.7298C76.6004 59.1714 73.7429 59.3291 72.4536 59.1083C72.349 59.0767 72.2096 59.0768 72.1051 59.0768C71.7566 58.9821 71.3733 58.8875 70.99 58.7929C69.0037 58.2567 65.7977 57.342 63.2191 56.2696C62.557 55.9857 62.1039 55.7018 61.7903 55.4179C63.1842 55.1341 64.6826 54.8502 66.1811 54.6925C70.084 54.2824 71.3036 54.8817 73.0111 55.1971C74.6838 55.5126 75.9383 55.1025 77.9943 54.2824C80.0502 53.4308 82.1759 53.7778 82.385 52.2638C82.5941 50.7813 79.9457 50.182 78.6912 49.8982C77.4367 49.6143 75.311 50.3082 70.1885 45.1985C65.7281 40.7511 61.9994 38.4801 56.1102 37.2185C50.2211 35.9568 42.6592 33.9382 39.3139 29.4908C35.6201 24.665 35.8292 19.8391 37.1534 17.1896ZM96.6027 49.6774C96.6027 49.6774 96.6027 49.6774 96.5678 49.8035C96.533 49.9297 96.3239 50.0874 96.0799 50.0874C95.836 50.0874 95.5921 49.8982 95.5921 49.7089C95.5921 49.5197 95.7315 49.362 96.0103 49.362C96.3239 49.362 96.6027 49.5512 96.6027 49.6774ZM23.8418 34.8213C18.5101 32.1403 17.1511 28.0399 17.1511 28.0399C17.1511 28.0399 20.1828 30.5948 22.6221 31.9195C25.0963 33.2758 27.884 34.3482 27.884 34.3482C27.884 34.3482 29.1037 35.326 30.393 36.083C32.0657 37.0608 33.6338 37.4708 33.6338 37.4708C33.6338 37.4708 29.1734 37.4708 23.8418 34.8213ZM23.2494 29.0177C19.7646 25.2643 19.1722 22.2994 19.1722 22.2994C19.1722 22.2994 21.2979 25.2327 23.6327 27.346C25.9326 29.4277 25.6887 29.3016 28.79 30.9733C28.79 30.9733 30.2188 32.5819 31.543 33.6228C33.355 35.0106 34.7838 35.7676 34.7838 35.7676C34.7838 35.7676 27.8492 33.9697 23.2494 29.0177ZM32.8323 31.888C31.1597 30.8786 27.431 28.7023 25.1659 25.0119C22.9009 21.3216 22.9009 18.1674 22.9009 18.1674C22.9009 18.1674 24.9917 21.6685 27.2916 24.0026C29.5915 26.3682 31.3339 27.6614 31.3339 27.6614C31.3339 27.6614 32.2748 29.2069 33.8777 31.0048C35.4807 32.8342 37.014 33.6858 37.014 33.6858C37.014 33.6858 34.505 32.8658 32.8323 31.888ZM37.014 31.0363C35.4807 29.9324 31.9263 26.4944 30.1839 22.394C28.0234 17.3789 28.6507 15.0448 28.6507 15.0448C28.6507 15.0448 30.1839 18.262 31.7521 21.0377C32.3445 22.0786 33.8429 23.908 35.0625 25.0435C35.0625 25.0435 35.7246 27.1252 36.8397 29.2069C37.92 31.2256 39.7669 32.8027 39.7669 32.8027C39.7669 32.8027 38.5821 32.1718 37.014 31.0363ZM45.5864 39.6156C42.1714 37.7232 41.0563 36.3038 40.8123 35.7991C40.6032 35.2945 40.5684 35.2945 41.0911 35.7991C43.0774 37.7862 45.5167 39.7733 55.0648 42.2967C58.5495 43.2429 59.6995 44.063 61.5464 45.8293C63.4281 47.6587 65.4841 49.015 67.1568 50.0243C67.1568 50.0243 67.7492 50.3398 67.6098 50.6236C67.5401 50.7813 67.331 50.9075 66.7038 50.5921C65.5538 50.0243 62.5918 47.8795 61.0237 46.4601C59.1419 44.7569 58.2359 43.9368 55.1694 43.0537C51.5801 42.0128 48.5832 41.2558 45.5864 39.6156ZM47.0848 56.6481C50.2211 55.9857 52.2422 55.5126 53.4618 55.1971C54.2285 55.5441 54.9951 55.7964 55.6572 55.9226C52.4513 57.4366 48.2696 58.509 44.297 59.0452C38.6518 59.7707 35.5156 57.5628 35.5156 57.5628C35.5156 57.5628 40.7775 57.9728 47.0848 56.6481Z" fill="#F9F8F6"/>
<path d="M70.2231 5.17281C70.5716 4.98356 70.9201 4.79431 71.3382 4.57352C71.7564 4.38427 72.2094 4.16348 72.6973 3.94269C73.673 3.53265 74.7881 3.12261 76.0426 2.77565C77.2971 2.4287 78.691 2.23945 80.0849 2.14482C80.8166 2.08174 81.653 2.11328 82.4545 2.11328C82.8029 2.14482 83.1863 2.17636 83.5696 2.20791C83.9529 2.23945 84.3711 2.23945 84.7544 2.30253C85.521 2.46024 86.3225 2.52332 87.0891 2.77565C87.4725 2.87028 87.8906 2.9649 88.2739 3.09107C88.6573 3.21723 89.0406 3.3434 89.4239 3.50111C89.8072 3.62727 90.1905 3.78498 90.539 3.97423C90.8875 4.16348 91.3056 4.28964 91.6541 4.47889C92.3511 4.88893 93.0829 5.23589 93.745 5.74055C93.954 5.86672 94.1631 6.02443 94.3722 6.18213H70.6413L72.8715 8.39004L94.0586 11.9858H75.1017C76.0774 12.8059 77.088 13.6575 78.0637 14.4776L100.261 13.3421C100.505 13.9098 100.749 14.4776 100.958 15.0453H87.8906L101.342 16.3385C101.342 16.4016 101.376 16.4647 101.376 16.5277C101.446 16.8432 101.516 17.1586 101.586 17.474C101.62 17.821 101.655 18.1364 101.725 18.4833C101.725 18.6095 101.76 18.7041 101.76 18.8303L94.9646 18.1679L91.7587 20.8489H101.899C101.899 21.259 101.864 21.6375 101.864 22.016C101.795 22.5522 101.795 23.0884 101.69 23.5615C101.62 24.0346 101.516 24.4762 101.411 24.9178C101.342 25.3278 101.202 25.7063 101.098 26.0533C100.889 26.7157 100.68 27.2519 100.505 27.6304C100.331 27.9773 100.261 28.1666 100.261 28.1666C100.261 28.1666 100.401 28.0089 100.645 27.6934C100.784 27.5357 100.923 27.3465 101.098 27.0942C101.272 26.8418 101.481 26.5895 101.655 26.2425C101.829 25.9271 102.073 25.5486 102.248 25.1386C102.457 24.7285 102.631 24.287 102.805 23.7823C103.014 23.3092 103.119 22.7414 103.293 22.2052C103.398 21.6375 103.537 21.0382 103.607 20.4074C103.642 20.0919 103.676 19.7765 103.711 19.4296C103.711 19.0826 103.711 18.7672 103.746 18.4202C103.746 18.0733 103.746 17.7579 103.746 17.4109C103.711 17.0324 103.676 16.6855 103.607 16.307C103.432 14.793 103.014 13.279 102.387 11.7334C102.213 11.3549 102.004 10.9764 101.829 10.5979C101.725 10.4087 101.655 10.2194 101.551 10.0302L101.202 9.49399C100.958 9.11549 100.749 8.76854 100.505 8.39004C100.227 8.04308 99.9477 7.69613 99.669 7.34917C99.3902 7.00222 99.0766 6.65526 98.7629 6.33984C98.4493 6.02443 98.1357 5.67747 97.7872 5.36206C97.0903 4.76277 96.3933 4.16348 95.5918 3.65881C94.8252 3.09107 93.9889 2.68103 93.1525 2.23945C92.7344 2.01866 92.2814 1.86095 91.8632 1.6717C91.4102 1.48245 90.992 1.2932 90.539 1.16704C90.086 1.00933 89.633 0.883162 89.18 0.725454C88.727 0.599288 88.2739 0.536206 87.8209 0.441582C86.9149 0.220791 86.0089 0.157708 85.1028 0.0630833C84.6498 2.39703e-07 84.1968 0.0315415 83.7787 0H83.1166H82.8029H82.6287H82.559H82.5242H82.4893H82.4196C81.5833 0.0946245 80.8167 0.126166 80.0152 0.252332C79.597 0.315415 79.1788 0.41004 78.7955 0.473123C78.4122 0.536206 77.994 0.599288 77.6456 0.725454C77.2971 0.85162 76.9138 0.946246 76.5653 1.07241C76.3911 1.13549 76.2168 1.16704 76.0426 1.23012C75.8683 1.2932 75.729 1.35628 75.5547 1.45091C74.2305 1.95557 73.1503 2.5864 72.2094 3.18569C71.7564 3.50111 71.3382 3.78498 70.9549 4.06885C70.6064 4.38427 70.258 4.6366 69.9792 4.88893C69.3868 5.36206 69.0035 5.83518 68.6898 6.11905C68.4111 6.40293 68.2368 6.56063 68.2368 6.56063C68.2368 6.56063 68.4111 6.43447 68.7944 6.24522C69.0383 5.86672 69.561 5.55131 70.2231 5.17281Z" fill="#F9F8F6"/>
<path d="M7.704 104.12C6.456 104.12 5.336 103.848 4.344 103.304C3.368 102.76 2.6 102 2.04 101.024C1.48 100.032 1.2 98.92 1.2 97.688C1.2 96.456 1.48 95.352 2.04 94.376C2.6 93.4 3.368 92.64 4.344 92.096C5.336 91.552 6.456 91.28 7.704 91.28C8.792 91.28 9.76 91.496 10.608 91.928C11.472 92.344 12.152 92.96 12.648 93.776L11.376 94.64C10.96 94.016 10.432 93.552 9.792 93.248C9.152 92.928 8.456 92.768 7.704 92.768C6.792 92.768 5.968 92.976 5.232 93.392C4.512 93.792 3.944 94.368 3.528 95.12C3.128 95.872 2.928 96.728 2.928 97.688C2.928 98.664 3.128 99.528 3.528 100.28C3.944 101.016 4.512 101.592 5.232 102.008C5.968 102.408 6.792 102.608 7.704 102.608C8.456 102.608 9.152 102.456 9.792 102.152C10.432 101.848 10.96 101.384 11.376 100.76L12.648 101.624C12.152 102.44 11.472 103.064 10.608 103.496C9.744 103.912 8.776 104.12 7.704 104.12ZM20.9445 104.12C19.7285 104.12 18.6325 103.848 17.6565 103.304C16.6805 102.744 15.9125 101.976 15.3525 101C14.7925 100.024 14.5125 98.92 14.5125 97.688C14.5125 96.456 14.7925 95.352 15.3525 94.376C15.9125 93.4 16.6805 92.64 17.6565 92.096C18.6325 91.552 19.7285 91.28 20.9445 91.28C22.1605 91.28 23.2565 91.552 24.2325 92.096C25.2085 92.64 25.9685 93.4 26.5125 94.376C27.0725 95.352 27.3525 96.456 27.3525 97.688C27.3525 98.92 27.0725 100.024 26.5125 101C25.9685 101.976 25.2085 102.744 24.2325 103.304C23.2565 103.848 22.1605 104.12 20.9445 104.12ZM20.9445 102.608C21.8405 102.608 22.6405 102.408 23.3445 102.008C24.0645 101.592 24.6245 101.008 25.0245 100.256C25.4245 99.504 25.6245 98.648 25.6245 97.688C25.6245 96.728 25.4245 95.872 25.0245 95.12C24.6245 94.368 24.0645 93.792 23.3445 93.392C22.6405 92.976 21.8405 92.768 20.9445 92.768C20.0485 92.768 19.2405 92.976 18.5205 93.392C17.8165 93.792 17.2565 94.368 16.8405 95.12C16.4405 95.872 16.2405 96.728 16.2405 97.688C16.2405 98.648 16.4405 99.504 16.8405 100.256C17.2565 101.008 17.8165 101.592 18.5205 102.008C19.2405 102.408 20.0485 102.608 20.9445 102.608ZM35.5783 98.384H32.6983V104H30.9943V91.376H32.6983V96.92H35.6023L40.0423 91.376H41.8903L36.9223 97.496L42.2503 104H40.2343L35.5783 98.384ZM49.7023 104.12C48.4863 104.12 47.3903 103.848 46.4143 103.304C45.4383 102.744 44.6703 101.976 44.1103 101C43.5503 100.024 43.2703 98.92 43.2703 97.688C43.2703 96.456 43.5503 95.352 44.1103 94.376C44.6703 93.4 45.4383 92.64 46.4143 92.096C47.3903 91.552 48.4863 91.28 49.7023 91.28C50.9183 91.28 52.0143 91.552 52.9903 92.096C53.9663 92.64 54.7263 93.4 55.2703 94.376C55.8303 95.352 56.1103 96.456 56.1103 97.688C56.1103 98.92 55.8303 100.024 55.2703 101C54.7263 101.976 53.9663 102.744 52.9903 103.304C52.0143 103.848 50.9183 104.12 49.7023 104.12ZM49.7023 102.608C50.5983 102.608 51.3983 102.408 52.1023 102.008C52.8223 101.592 53.3823 101.008 53.7823 100.256C54.1823 99.504 54.3823 98.648 54.3823 97.688C54.3823 96.728 54.1823 95.872 53.7823 95.12C53.3823 94.368 52.8223 93.792 52.1023 93.392C51.3983 92.976 50.5983 92.768 49.7023 92.768C48.8063 92.768 47.9983 92.976 47.2783 93.392C46.5743 93.792 46.0143 94.368 45.5983 95.12C45.1983 95.872 44.9983 96.728 44.9983 97.688C44.9983 98.648 45.1983 99.504 45.5983 100.256C46.0143 101.008 46.5743 101.592 47.2783 102.008C47.9983 102.408 48.8063 102.608 49.7023 102.608ZM70.0018 91.376V104H68.2978V92.888H62.2498L62.0818 96.008C61.9538 98.632 61.6498 100.648 61.1698 102.056C60.6898 103.464 59.8338 104.168 58.6018 104.168C58.2658 104.168 57.8578 104.104 57.3778 103.976L57.4978 102.512C57.7858 102.576 57.9858 102.608 58.0978 102.608C58.7538 102.608 59.2498 102.304 59.5858 101.696C59.9218 101.088 60.1458 100.336 60.2578 99.44C60.3698 98.544 60.4658 97.36 60.5458 95.888L60.7618 91.376H70.0018ZM80.2699 95.84C81.8539 95.856 83.0539 96.208 83.8699 96.896C84.7019 97.584 85.1179 98.576 85.1179 99.872C85.1179 101.216 84.6699 102.248 83.7739 102.968C82.8939 103.688 81.6139 104.04 79.9339 104.024L74.8459 104V91.376H76.5499V95.792L80.2699 95.84ZM79.8379 102.728C81.0059 102.744 81.8859 102.512 82.4779 102.032C83.0859 101.536 83.3899 100.816 83.3899 99.872C83.3899 98.944 83.0939 98.256 82.5019 97.808C81.9099 97.36 81.0219 97.128 79.8379 97.112L76.5499 97.064V102.68L79.8379 102.728ZM93.6493 104.12C92.4013 104.12 91.2813 103.848 90.2893 103.304C89.3133 102.76 88.5453 102 87.9853 101.024C87.4253 100.032 87.1453 98.92 87.1453 97.688C87.1453 96.456 87.4253 95.352 87.9853 94.376C88.5453 93.4 89.3133 92.64 90.2893 92.096C91.2813 91.552 92.4013 91.28 93.6493 91.28C94.7373 91.28 95.7053 91.496 96.5533 91.928C97.4173 92.344 98.0973 92.96 98.5933 93.776L97.3213 94.64C96.9053 94.016 96.3773 93.552 95.7373 93.248C95.0973 92.928 94.4013 92.768 93.6493 92.768C92.7373 92.768 91.9133 92.976 91.1773 93.392C90.4573 93.792 89.8893 94.368 89.4733 95.12C89.0733 95.872 88.8733 96.728 88.8733 97.688C88.8733 98.664 89.0733 99.528 89.4733 100.28C89.8893 101.016 90.4573 101.592 91.1773 102.008C91.9133 102.408 92.7373 102.608 93.6493 102.608C94.4013 102.608 95.0973 102.456 95.7373 102.152C96.3773 101.848 96.9053 101.384 97.3213 100.76L98.5933 101.624C98.0973 102.44 97.4173 103.064 96.5533 103.496C95.6893 103.912 94.7213 104.12 93.6493 104.12ZM106.477 98.384H103.597V104H101.893V91.376H103.597V96.92H106.501L110.941 91.376H112.789L107.821 97.496L113.149 104H111.133L106.477 98.384ZM115.838 91.376H117.542V101.408L125.966 91.376H127.478V104H125.774V93.968L117.374 104H115.838V91.376ZM132.362 91.376H134.066V101.408L142.49 91.376H144.002V104H142.298V93.968L133.898 104H132.362V91.376ZM138.098 89.552C137.01 89.552 136.146 89.28 135.506 88.736C134.866 88.192 134.538 87.424 134.522 86.432H135.746C135.762 87.056 135.986 87.56 136.418 87.944C136.85 88.312 137.41 88.496 138.098 88.496C138.786 88.496 139.346 88.312 139.778 87.944C140.226 87.56 140.458 87.056 140.474 86.432H141.698C141.682 87.424 141.346 88.192 140.69 88.736C140.05 89.28 139.186 89.552 138.098 89.552Z" fill="#F9F8F6"/>
</svg>
