<svg width="320" height="85" viewBox="0 0 320 85" fill="none" xmlns="http://www.w3.org/2000/svg">
<g clip-path="url(#clip0_14_1445)">
<path d="M17.68 44.84C21.22 44.84 24.1 43.76 26.32 41.66C28.54 39.56 29.92 36.68 30.46 32.9H26.68C26.56 34.16 26.26 35.36 25.72 36.44C25.18 37.52 24.52 38.42 23.74 39.2C22.96 39.98 22 40.64 20.98 41.06C19.96 41.48 18.82 41.72 17.68 41.72C15.88 41.72 14.32 41.36 12.94 40.58C11.56 39.8 10.48 38.84 9.58 37.58C8.68 36.32 7.96 34.94 7.54 33.32C7.06 31.76 6.82 30.14 6.82 28.52C6.82 26.9 7.06 25.28 7.54 23.66C7.96 22.1 8.68 20.72 9.58 19.46C10.48 18.2 11.56 17.24 12.94 16.46C14.32 15.68 15.88 15.32 17.68 15.32C20.2 15.32 22.18 15.98 23.56 17.3C24.94 18.62 25.9 20.42 26.44 22.76H30.22C29.8 19.22 28.42 16.52 26.14 14.78C23.8 13.04 20.98 12.14 17.68 12.14C15.34 12.14 13.24 12.56 11.44 13.46C9.58 14.36 8.08 15.5 6.82 17C5.56 18.5 4.66 20.24 4 22.22C3.34 24.2 3.04 26.3 3.04 28.52C3.04 30.74 3.34 32.84 4 34.82C4.66 36.8 5.56 38.54 6.82 40.04C8.08 41.54 9.58 42.68 11.44 43.52C13.24 44.42 15.34 44.84 17.68 44.84ZM48.7933 44.84C51.1333 44.84 53.2333 44.42 55.0933 43.52C56.8933 42.68 58.3933 41.54 59.6533 40.04C60.9133 38.54 61.8133 36.8 62.4733 34.82C63.1333 32.84 63.4333 30.74 63.4333 28.52C63.4333 26.3 63.1333 24.2 62.4733 22.22C61.8133 20.24 60.9133 18.5 59.6533 17C58.3933 15.5 56.8933 14.36 55.0933 13.46C53.2333 12.56 51.1333 12.14 48.7933 12.14C46.4533 12.14 44.3533 12.56 42.5533 13.46C40.6933 14.36 39.1933 15.5 37.9333 17C36.6733 18.5 35.7733 20.24 35.1133 22.22C34.4533 24.2 34.1533 26.3 34.1533 28.52C34.1533 30.74 34.4533 32.84 35.1133 34.82C35.7733 36.8 36.6733 38.54 37.9333 40.04C39.1933 41.54 40.6933 42.68 42.5533 43.52C44.3533 44.42 46.4533 44.84 48.7933 44.84ZM48.7933 41.72C46.9933 41.72 45.4333 41.36 44.0533 40.58C42.6733 39.8 41.5933 38.84 40.6933 37.58C39.7933 36.32 39.0733 34.94 38.6533 33.32C38.1733 31.76 37.9333 30.14 37.9333 28.52C37.9333 26.9 38.1733 25.28 38.6533 23.66C39.0733 22.1 39.7933 20.72 40.6933 19.46C41.5933 18.2 42.6733 17.24 44.0533 16.46C45.4333 15.68 46.9933 15.32 48.7933 15.32C50.5933 15.32 52.1533 15.68 53.5333 16.46C54.9133 17.24 56.0533 18.2 56.9533 19.46C57.8533 20.72 58.5133 22.1 58.9933 23.66C59.4133 25.28 59.6533 26.9 59.6533 28.52C59.6533 30.14 59.4133 31.76 58.9933 33.32C58.5133 34.94 57.8533 36.32 56.9533 37.58C56.0533 38.84 54.9133 39.8 53.5333 40.58C52.1533 41.36 50.5933 41.72 48.7933 41.72ZM72.8331 28.94V13.04H69.0531V44H72.8331V33.56L79.1331 27.74L91.0731 44H95.8131L81.8931 25.16L95.0331 13.04H89.9931L72.8331 28.94ZM112.016 44.84C114.356 44.84 116.456 44.42 118.316 43.52C120.116 42.68 121.616 41.54 122.876 40.04C124.136 38.54 125.036 36.8 125.696 34.82C126.356 32.84 126.656 30.74 126.656 28.52C126.656 26.3 126.356 24.2 125.696 22.22C125.036 20.24 124.136 18.5 122.876 17C121.616 15.5 120.116 14.36 118.316 13.46C116.456 12.56 114.356 12.14 112.016 12.14C109.676 12.14 107.576 12.56 105.776 13.46C103.916 14.36 102.416 15.5 101.156 17C99.8959 18.5 98.9959 20.24 98.3359 22.22C97.6759 24.2 97.3759 26.3 97.3759 28.52C97.3759 30.74 97.6759 32.84 98.3359 34.82C98.9959 36.8 99.8959 38.54 101.156 40.04C102.416 41.54 103.916 42.68 105.776 43.52C107.576 44.42 109.676 44.84 112.016 44.84ZM112.016 41.72C110.216 41.72 108.656 41.36 107.276 40.58C105.896 39.8 104.816 38.84 103.916 37.58C103.016 36.32 102.296 34.94 101.876 33.32C101.396 31.76 101.156 30.14 101.156 28.52C101.156 26.9 101.396 25.28 101.876 23.66C102.296 22.1 103.016 20.72 103.916 19.46C104.816 18.2 105.896 17.24 107.276 16.46C108.656 15.68 110.216 15.32 112.016 15.32C113.816 15.32 115.376 15.68 116.756 16.46C118.136 17.24 119.276 18.2 120.176 19.46C121.076 20.72 121.736 22.1 122.216 23.66C122.636 25.28 122.876 26.9 122.876 28.52C122.876 30.14 122.636 31.76 122.216 33.32C121.736 34.94 121.076 36.32 120.176 37.58C119.276 38.84 118.136 39.8 116.756 40.58C115.376 41.36 113.816 41.72 112.016 41.72ZM131.916 44.3C132.756 44.3 133.596 44.24 134.436 44.12C135.216 43.94 135.996 43.58 136.776 42.98C137.496 42.44 138.156 41.54 138.816 40.34C139.476 39.14 140.016 37.52 140.496 35.42C140.976 33.32 141.336 30.74 141.636 27.62C141.876 24.5 141.996 20.72 141.996 16.22H155.256V44H159.036V13.04H138.336C138.336 17.6 138.216 21.44 138.036 24.56C137.856 27.74 137.556 30.32 137.256 32.36C136.956 34.46 136.536 36.08 136.116 37.22C135.696 38.36 135.216 39.2 134.736 39.74C134.256 40.28 133.776 40.64 133.296 40.76C132.816 40.88 132.396 40.94 131.976 40.94C131.556 40.94 131.016 40.88 130.356 40.82C129.696 40.76 129.216 40.64 128.916 40.52V43.82C129.036 43.88 129.216 43.88 129.516 43.94C129.756 44.06 130.056 44.06 130.356 44.12L131.196 44.24C131.496 44.3 131.736 44.3 131.916 44.3ZM170.222 25.46V13.04H166.442V44H181.322C184.322 44 186.722 43.16 188.462 41.48C190.202 39.86 191.102 37.58 191.102 34.64C191.102 31.7 190.202 29.48 188.462 27.86C186.722 26.24 184.322 25.46 181.322 25.46H170.222ZM180.422 40.82H170.222V28.64H180.422C182.582 28.64 184.262 29.12 185.522 30.08C186.722 31.1 187.322 32.6 187.322 34.64C187.322 36.68 186.722 38.24 185.522 39.26C184.262 40.28 182.582 40.82 180.422 40.82ZM209.282 44.84C212.822 44.84 215.702 43.76 217.922 41.66C220.142 39.56 221.522 36.68 222.062 32.9H218.282C218.162 34.16 217.862 35.36 217.322 36.44C216.782 37.52 216.122 38.42 215.342 39.2C214.562 39.98 213.602 40.64 212.582 41.06C211.562 41.48 210.422 41.72 209.282 41.72C207.482 41.72 205.922 41.36 204.542 40.58C203.162 39.8 202.082 38.84 201.182 37.58C200.282 36.32 199.562 34.94 199.142 33.32C198.662 31.76 198.422 30.14 198.422 28.52C198.422 26.9 198.662 25.28 199.142 23.66C199.562 22.1 200.282 20.72 201.182 19.46C202.082 18.2 203.162 17.24 204.542 16.46C205.922 15.68 207.482 15.32 209.282 15.32C211.802 15.32 213.782 15.98 215.162 17.3C216.542 18.62 217.502 20.42 218.042 22.76H221.822C221.402 19.22 220.022 16.52 217.742 14.78C215.402 13.04 212.582 12.14 209.282 12.14C206.942 12.14 204.842 12.56 203.042 13.46C201.182 14.36 199.682 15.5 198.422 17C197.162 18.5 196.262 20.24 195.602 22.22C194.942 24.2 194.642 26.3 194.642 28.52C194.642 30.74 194.942 32.84 195.602 34.82C196.262 36.8 197.162 38.54 198.422 40.04C199.682 41.54 201.182 42.68 203.042 43.52C204.842 44.42 206.942 44.84 209.282 44.84ZM231.095 28.94V13.04H227.315V44H231.095V33.56L237.395 27.74L249.335 44H254.075L240.155 25.16L253.295 13.04H248.255L231.095 28.94ZM260.918 39.56V13.04H257.138V44H261.818L278.918 17.48V44H282.698V13.04H278.018L260.918 39.56ZM302.434 8.48C304.954 8.48 306.934 7.82 308.374 6.44C309.814 5.12 310.774 3.2 311.194 0.679996H308.854C308.554 2.24 307.834 3.44 306.754 4.28C305.614 5.18 304.234 5.6 302.494 5.6C300.694 5.6 299.254 5.18 298.234 4.28C297.154 3.38 296.494 2.18 296.314 0.679996H293.974C294.274 3.2 295.174 5.12 296.554 6.44C297.934 7.82 299.914 8.48 302.434 8.48ZM293.554 39.56V13.04H289.774V44H294.454L311.554 17.48V44H315.334V13.04H310.654L293.554 39.56Z" fill="#F9F8F6"/>
<path d="M114.886 82.035C114.233 82.035 113.906 81.6446 113.906 80.8638C113.906 80.3134 114.079 79.5582 114.425 78.5982C114.77 77.6382 115.116 76.8062 115.462 76.1022C116.089 74.8734 116.537 74.0286 116.806 73.5678C117.1 70.8158 117.362 68.8446 117.593 67.6542C117.286 67.6926 116.978 67.7118 116.671 67.7118C116.364 67.7118 116.178 67.5518 116.114 67.2318C116.114 66.9758 116.191 66.8286 116.345 66.7902C116.396 66.867 116.582 66.9054 116.902 66.9054C117.222 66.9054 117.51 66.8926 117.766 66.867C118.598 63.0398 120.018 61.1262 122.028 61.1262C122.284 61.1262 122.406 61.2222 122.393 61.4142C122.38 61.5422 122.335 61.6062 122.258 61.6062C121.388 61.6062 120.69 62.0606 120.166 62.9694C119.641 63.8782 119.218 65.1518 118.898 66.7902C120.422 66.675 121.35 66.6174 121.682 66.6174C121.798 66.6174 121.842 66.6942 121.817 66.8478C121.804 67.0014 121.676 67.0782 121.433 67.0782C121.19 67.0782 120.3 67.2062 118.764 67.4622C118.598 68.4094 118.418 69.7854 118.226 71.5902C118.047 73.395 117.9 74.771 117.785 75.7182C117.67 76.6654 117.535 77.4974 117.382 78.2142C117.228 78.931 117.042 79.5902 116.825 80.1918C116.377 81.4206 115.73 82.035 114.886 82.035ZM114.905 81.4782C115.302 81.4782 115.602 81.1454 115.807 80.4798C116.038 79.7502 116.204 78.9886 116.306 78.195C116.46 77.0046 116.594 75.7822 116.71 74.5278C115.75 76.563 115.167 77.907 114.962 78.5598C114.617 79.6606 114.444 80.4222 114.444 80.8446C114.444 81.267 114.598 81.4782 114.905 81.4782ZM122.604 64.2174C122.45 64.2174 122.367 64.0894 122.354 63.8334C122.354 63.027 122.489 62.2846 122.758 61.6062C123.039 60.9278 123.385 60.5886 123.794 60.5886C123.948 60.5886 124.025 60.6846 124.025 60.8766C123.935 61.0174 123.852 61.1454 123.775 61.2606C123.698 61.3758 123.615 61.5102 123.526 61.6638C123.449 61.8174 123.366 61.9902 123.276 62.1822C123.186 62.3742 123.103 62.5662 123.026 62.7582C122.86 63.1806 122.777 63.5902 122.777 63.987C122.777 64.1406 122.719 64.2174 122.604 64.2174ZM124.448 78.8286C123.706 78.8286 123.156 78.4382 122.797 77.6574C122.452 76.8766 122.279 75.7054 122.279 74.1438C122.279 72.5822 122.509 70.7326 122.97 68.595C123.431 66.4574 123.968 64.6846 124.583 63.2766C125.21 61.8686 125.754 61.1646 126.215 61.1646C126.432 61.1646 126.541 61.2926 126.541 61.5486C126.272 62.163 125.933 63.091 125.524 64.3326C125.114 65.5614 124.768 66.7006 124.487 67.7502C124.218 68.7998 123.968 70.0286 123.738 71.4366C123.52 72.8446 123.412 74.0542 123.412 75.0654C123.412 76.0638 123.508 76.8318 123.7 77.3694C123.904 77.9198 124.18 78.195 124.525 78.195C124.82 78.195 125.101 78.0542 125.37 77.7726C125.639 77.5038 125.831 77.235 125.946 76.9662C126.01 76.8254 126.125 76.787 126.292 76.851C126.356 76.8766 126.368 76.9278 126.33 77.0046C126.304 77.0942 126.253 77.203 126.176 77.331C126.112 77.459 125.991 77.6574 125.812 77.9262C125.428 78.5278 124.973 78.8286 124.448 78.8286ZM127.203 82.035C128.355 82.035 129.257 81.491 129.91 80.403C130.473 79.443 130.908 78.2462 131.215 76.8126C128.899 76.8638 127.119 77.747 125.878 79.4622C125.801 79.5774 125.679 79.5966 125.513 79.5198C125.423 79.4686 125.398 79.4046 125.436 79.3278C125.987 78.4958 126.755 77.7854 127.74 77.1966C128.726 76.6206 129.923 76.307 131.331 76.2558C131.471 75.6158 131.606 74.867 131.734 74.0094C131.862 73.1518 132.009 72.3198 132.175 71.5134H132.003C130.339 74.4702 129.071 75.9486 128.201 75.9486C127.228 75.9486 126.742 75.1998 126.742 73.7022C126.742 72.2046 127.062 70.7006 127.702 69.1902C128.342 67.667 128.924 66.8478 129.449 66.7326L129.564 66.7134C129.782 66.7134 129.891 66.8542 129.891 67.1358C129.75 67.4814 129.571 67.9358 129.353 68.499C129.135 69.0494 128.847 69.9646 128.489 71.2446C128.131 72.5118 127.951 73.5038 127.951 74.2206C127.951 74.9246 128.105 75.2766 128.412 75.2766C128.771 75.2766 129.347 74.6558 130.14 73.4142C131.305 71.5966 132.316 69.7534 133.174 67.8846C133.545 67.1038 133.942 66.7134 134.364 66.7134C134.633 66.7134 134.767 66.8606 134.767 67.155C134.524 67.603 134.23 68.4414 133.884 69.6702C133.539 70.899 133.257 72.1406 133.039 73.395C132.822 74.6366 132.636 75.6094 132.483 76.3134C133.455 76.4798 134.019 76.9022 134.172 77.5806C134.198 77.6958 134.211 77.8494 134.211 78.0414C134.211 78.2462 134.134 78.419 133.98 78.5598C133.827 78.7134 133.692 78.7902 133.577 78.7902C133.603 78.7006 133.609 78.5406 133.596 78.3102C133.583 78.0926 133.539 77.907 133.462 77.7534C133.398 77.5998 133.27 77.4398 133.078 77.2734C132.886 77.107 132.636 76.9854 132.329 76.9086C131.343 80.6206 129.635 82.4766 127.203 82.4766C126.153 82.4766 125.455 82.1054 125.11 81.363C125.097 81.3246 125.091 81.2926 125.091 81.267C125.091 81.1902 125.161 81.139 125.302 81.1134C125.43 81.1006 125.526 81.1454 125.59 81.2478C125.82 81.7726 126.358 82.035 127.203 82.035ZM136.094 74.3934C136.094 72.499 136.286 70.8094 136.67 69.3246C137.067 67.8398 137.566 67.0974 138.168 67.0974C138.462 67.0974 138.609 67.2574 138.609 67.5774C138.481 67.9102 138.321 68.3518 138.129 68.9022C137.937 69.4526 137.681 70.451 137.361 71.8974C137.054 73.331 136.9 74.611 136.9 75.7374C136.9 75.9166 136.804 76.0062 136.612 76.0062C136.267 76.0062 136.094 75.4686 136.094 74.3934ZM138.667 65.2926C138.398 65.2926 138.264 65.0366 138.264 64.5246C138.264 64.2174 138.347 63.8974 138.513 63.5646C138.68 63.219 138.916 63.0462 139.224 63.0462C139.48 63.0462 139.608 63.1934 139.608 63.4878C139.608 63.7822 139.371 64.275 138.897 64.9662L138.667 65.2926ZM141.268 72.915C142.92 68.8318 144.526 66.7902 146.088 66.7902C146.74 66.7902 147.067 67.1038 147.067 67.731C146.977 68.0254 146.862 68.4158 146.721 68.9022C146.58 69.3758 146.388 70.2334 146.145 71.475C145.915 72.7166 145.8 73.8046 145.8 74.739C145.8 76.0958 145.998 76.7742 146.395 76.7742C146.548 76.7742 146.696 76.7102 146.836 76.5822C146.977 76.467 147.073 76.4094 147.124 76.4094C147.304 76.4094 147.304 76.5502 147.124 76.8318C147.06 76.9214 146.939 77.043 146.76 77.1966C146.593 77.3502 146.42 77.427 146.241 77.427C145.755 77.427 145.371 77.075 145.089 76.371C144.82 75.6798 144.686 74.7774 144.686 73.6638C144.686 71.8974 144.961 69.9582 145.512 67.8462C145.563 67.6798 145.512 67.5966 145.358 67.5966C145.256 67.5966 145.14 67.6478 145.012 67.7502C144.398 68.2878 143.752 69.1774 143.073 70.419C142.395 71.6606 141.864 72.7742 141.48 73.7598C141.096 74.7326 140.904 75.3022 140.904 75.4686C140.904 75.6222 140.814 75.699 140.635 75.699C140.225 75.699 140.02 75.1934 140.02 74.1822C140.02 72.275 140.212 70.547 140.596 68.9982C140.993 67.4494 141.467 66.675 142.017 66.675C142.248 66.675 142.363 66.8158 142.363 67.0974C141.774 69.0046 141.352 70.9438 141.096 72.915H141.268ZM150.024 76.0254C148.974 76.0254 148.449 75.1998 148.449 73.5486C148.449 72.563 148.692 71.4814 149.179 70.3038C149.857 68.6526 150.747 67.5262 151.848 66.9246C152.321 66.6686 152.763 66.5406 153.172 66.5406C153.582 66.5406 153.902 66.6302 154.132 66.8094C154.376 66.9886 154.529 67.1678 154.593 67.347L154.708 67.5966C154.67 67.8142 154.561 67.923 154.382 67.923C154.177 67.923 154.056 67.8782 154.017 67.7886C153.992 67.6862 153.96 67.603 153.921 67.539C153.883 67.4622 153.793 67.3662 153.652 67.251C153.512 67.123 153.352 67.059 153.172 67.059C152.34 67.059 151.585 67.8078 150.907 69.3054C150.139 71.0334 149.755 72.659 149.755 74.1822C149.755 74.9502 149.908 75.3342 150.216 75.3342C150.638 75.3342 151.316 74.5982 152.251 73.1262C153.198 71.6414 154.049 70.1246 154.804 68.5758C155.188 67.795 155.592 67.4046 156.014 67.4046C156.283 67.4046 156.417 67.5582 156.417 67.8654C156.366 67.955 156.289 68.1022 156.187 68.307C156.084 68.5118 155.899 69.1006 155.63 70.0734C155.361 71.0334 155.118 72.1406 154.9 73.395C154.683 74.6366 154.497 75.6094 154.344 76.3134C155.316 76.4798 155.88 76.9022 156.033 77.5806C156.059 77.6958 156.072 77.8494 156.072 78.0414C156.072 78.2462 155.995 78.419 155.841 78.5598C155.688 78.7134 155.553 78.7902 155.438 78.7902C155.464 78.7006 155.47 78.5406 155.457 78.3102C155.444 78.0926 155.4 77.907 155.323 77.7534C155.259 77.5998 155.131 77.4398 154.939 77.2734C154.747 77.107 154.497 76.9854 154.19 76.9086C153.793 78.4702 153.224 79.7566 152.481 80.7678C151.636 81.907 150.497 82.4766 149.064 82.4766C148.014 82.4766 147.316 82.1054 146.971 81.363C146.958 81.3246 146.952 81.2926 146.952 81.267C146.952 81.1902 147.022 81.1326 147.163 81.0942C147.304 81.0686 147.4 81.1198 147.451 81.2478C147.681 81.7726 148.219 82.035 149.064 82.035C150.216 82.035 151.112 81.491 151.752 80.403C152.328 79.443 152.769 78.2462 153.076 76.8126C150.772 76.8638 148.993 77.747 147.739 79.4622C147.662 79.5774 147.54 79.5966 147.374 79.5198C147.284 79.4686 147.259 79.4046 147.297 79.3278C147.848 78.4958 148.616 77.7854 149.601 77.1966C150.587 76.6206 151.784 76.307 153.192 76.2558C153.332 75.6158 153.454 74.9438 153.556 74.2398C153.672 73.523 153.768 72.9598 153.844 72.5502C153.921 72.1406 153.972 71.8462 153.998 71.667H153.787C152.097 74.5726 150.843 76.0254 150.024 76.0254ZM165.897 70.4574C165.219 71.6862 164.688 72.7742 164.304 73.7214C163.933 74.6686 163.747 75.2318 163.747 75.411C163.747 75.5774 163.657 75.6606 163.478 75.6606C163.094 75.6606 162.902 75.1486 162.902 74.1246C162.902 72.0894 163.107 70.0478 163.517 67.9998C163.926 65.939 164.413 64.2942 164.976 63.0654C165.539 61.8238 166.064 61.203 166.55 61.203C166.755 61.203 166.857 61.3054 166.857 61.5102C166.179 63.0078 165.609 64.7166 165.149 66.6366C164.701 68.5566 164.323 70.6046 164.016 72.7806H164.15C165.776 68.787 167.369 66.7902 168.931 66.7902C169.584 66.7902 169.91 67.1038 169.91 67.731C169.821 68.0254 169.705 68.4158 169.565 68.9022C169.424 69.3758 169.238 70.2334 169.008 71.475C168.777 72.7166 168.662 73.8046 168.662 74.739C168.662 76.0958 168.861 76.7742 169.257 76.7742C169.398 76.7742 169.539 76.7102 169.68 76.5822C169.821 76.467 169.917 76.4094 169.968 76.4094C170.147 76.4094 170.141 76.5502 169.949 76.8318C169.897 76.9214 169.782 77.043 169.603 77.1966C169.437 77.3502 169.27 77.427 169.104 77.427C168.605 77.427 168.214 77.075 167.933 76.371C167.664 75.6798 167.529 74.7774 167.529 73.6638C167.529 71.7822 167.811 69.843 168.374 67.8462C168.4 67.6542 168.323 67.571 168.144 67.5966C168.054 67.6094 167.965 67.6606 167.875 67.7502C167.235 68.3262 166.576 69.2286 165.897 70.4574ZM171.649 74.3934C171.649 72.499 171.841 70.8094 172.225 69.3246C172.621 67.8398 173.121 67.0974 173.722 67.0974C174.017 67.0974 174.164 67.2574 174.164 67.5774C174.036 67.9102 173.876 68.3518 173.684 68.9022C173.492 69.4526 173.236 70.451 172.916 71.8974C172.609 73.331 172.455 74.611 172.455 75.7374C172.455 75.9166 172.359 76.0062 172.167 76.0062C171.821 76.0062 171.649 75.4686 171.649 74.3934ZM174.221 65.2926C173.953 65.2926 173.818 65.0366 173.818 64.5246C173.818 64.2174 173.901 63.8974 174.068 63.5646C174.234 63.219 174.471 63.0462 174.778 63.0462C175.034 63.0462 175.162 63.1934 175.162 63.4878C175.162 63.7822 174.925 64.275 174.452 64.9662L174.221 65.2926ZM176.977 76.0254C175.927 76.0254 175.402 75.1998 175.402 73.5486C175.402 72.563 175.646 71.4814 176.132 70.3038C176.81 68.6526 177.7 67.5262 178.801 66.9246C179.274 66.6686 179.716 66.5406 180.126 66.5406C180.535 66.5406 180.855 66.6302 181.086 66.8094C181.329 66.9886 181.482 67.1678 181.546 67.347L181.662 67.5966C181.623 67.8142 181.514 67.923 181.335 67.923C181.13 67.923 181.009 67.8782 180.97 67.7886C180.945 67.6862 180.913 67.603 180.874 67.539C180.836 67.4622 180.746 67.3662 180.606 67.251C180.465 67.123 180.305 67.059 180.126 67.059C179.294 67.059 178.538 67.8078 177.86 69.3054C177.092 71.0334 176.708 72.659 176.708 74.1822C176.708 74.9502 176.862 75.3342 177.169 75.3342C177.591 75.3342 178.27 74.5982 179.204 73.1262C180.151 71.6414 181.002 70.1246 181.758 68.5758C182.142 67.795 182.545 67.4046 182.967 67.4046C183.236 67.4046 183.37 67.5582 183.37 67.8654C183.319 67.955 183.242 68.1022 183.14 68.307C183.038 68.5118 182.852 69.1006 182.583 70.0734C182.314 71.0334 182.071 72.1406 181.854 73.395C181.636 74.6366 181.45 75.6094 181.297 76.3134C182.27 76.4798 182.833 76.9022 182.986 77.5806C183.012 77.6958 183.025 77.8494 183.025 78.0414C183.025 78.2462 182.948 78.419 182.794 78.5598C182.641 78.7134 182.506 78.7902 182.391 78.7902C182.417 78.7006 182.423 78.5406 182.41 78.3102C182.398 78.0926 182.353 77.907 182.276 77.7534C182.212 77.5998 182.084 77.4398 181.892 77.2734C181.7 77.107 181.45 76.9854 181.143 76.9086C180.746 78.4702 180.177 79.7566 179.434 80.7678C178.59 81.907 177.45 82.4766 176.017 82.4766C174.967 82.4766 174.27 82.1054 173.924 81.363C173.911 81.3246 173.905 81.2926 173.905 81.267C173.905 81.1902 173.975 81.1326 174.116 81.0942C174.257 81.0686 174.353 81.1198 174.404 81.2478C174.634 81.7726 175.172 82.035 176.017 82.035C177.169 82.035 178.065 81.491 178.705 80.403C179.281 79.443 179.722 78.2462 180.03 76.8126C177.726 76.8638 175.946 77.747 174.692 79.4622C174.615 79.5774 174.494 79.5966 174.327 79.5198C174.238 79.4686 174.212 79.4046 174.25 79.3278C174.801 78.4958 175.569 77.7854 176.554 77.1966C177.54 76.6206 178.737 76.307 180.145 76.2558C180.286 75.6158 180.407 74.9438 180.51 74.2398C180.625 73.523 180.721 72.9598 180.798 72.5502C180.874 72.1406 180.926 71.8462 180.951 71.667H180.74C179.05 74.5726 177.796 76.0254 176.977 76.0254ZM187.718 70.4574C187.039 71.6862 186.508 72.7742 186.124 73.7214C185.753 74.6686 185.567 75.2318 185.567 75.411C185.567 75.5774 185.478 75.6606 185.299 75.6606C184.915 75.6606 184.723 75.1486 184.723 74.1246C184.723 72.0894 184.927 70.0478 185.337 67.9998C185.747 65.939 186.233 64.2942 186.796 63.0654C187.359 61.8238 187.884 61.203 188.371 61.203C188.575 61.203 188.678 61.3054 188.678 61.5102C187.999 63.0078 187.43 64.7166 186.969 66.6366C186.521 68.5566 186.143 70.6046 185.836 72.7806H185.971C187.596 68.787 189.19 66.7902 190.751 66.7902C191.404 66.7902 191.731 67.1038 191.731 67.731C191.641 68.0254 191.526 68.4158 191.385 68.9022C191.244 69.3758 191.059 70.2334 190.828 71.475C190.598 72.7166 190.483 73.8046 190.483 74.739C190.483 76.0958 190.681 76.7742 191.078 76.7742C191.219 76.7742 191.359 76.7102 191.5 76.5822C191.641 76.467 191.737 76.4094 191.788 76.4094C191.967 76.4094 191.961 76.5502 191.769 76.8318C191.718 76.9214 191.603 77.043 191.423 77.1966C191.257 77.3502 191.091 77.427 190.924 77.427C190.425 77.427 190.035 77.075 189.753 76.371C189.484 75.6798 189.35 74.7774 189.35 73.6638C189.35 71.7822 189.631 69.843 190.195 67.8462C190.22 67.6542 190.143 67.571 189.964 67.5966C189.875 67.6094 189.785 67.6606 189.695 67.7502C189.055 68.3262 188.396 69.2286 187.718 70.4574Z" fill="#F9F8F6"/>
<path d="M16 68.6152L100.722 68.6152" stroke="#F9F8F6" stroke-width="1.5"/>
<path d="M209.963 68.918H300.791" stroke="#F9F8F6" stroke-width="1.5"/>
</g>
<defs>
<clipPath id="clip0_14_1445">
<rect width="320" height="85" fill="white"/>
</clipPath>
</defs>
</svg>
