<svg width="319" height="83" viewBox="0 0 319 83" fill="none" xmlns="http://www.w3.org/2000/svg">
<path d="M16.68 44.84C20.22 44.84 23.1 43.76 25.32 41.66C27.54 39.56 28.92 36.68 29.46 32.9H25.68C25.56 34.16 25.26 35.36 24.72 36.44C24.18 37.52 23.52 38.42 22.74 39.2C21.96 39.98 21 40.64 19.98 41.06C18.96 41.48 17.82 41.72 16.68 41.72C14.88 41.72 13.32 41.36 11.94 40.58C10.56 39.8 9.48 38.84 8.58 37.58C7.68 36.32 6.96 34.94 6.54 33.32C6.06 31.76 5.82 30.14 5.82 28.52C5.82 26.9 6.06 25.28 6.54 23.66C6.96 22.1 7.68 20.72 8.58 19.46C9.48 18.2 10.56 17.24 11.94 16.46C13.32 15.68 14.88 15.32 16.68 15.32C19.2 15.32 21.18 15.98 22.56 17.3C23.94 18.62 24.9 20.42 25.44 22.76H29.22C28.8 19.22 27.42 16.52 25.14 14.78C22.8 13.04 19.98 12.14 16.68 12.14C14.34 12.14 12.24 12.56 10.44 13.46C8.58 14.36 7.08 15.5 5.82 17C4.56 18.5 3.66 20.24 3 22.22C2.34 24.2 2.04 26.3 2.04 28.52C2.04 30.74 2.34 32.84 3 34.82C3.66 36.8 4.56 38.54 5.82 40.04C7.08 41.54 8.58 42.68 10.44 43.52C12.24 44.42 14.34 44.84 16.68 44.84ZM47.7933 44.84C50.1333 44.84 52.2333 44.42 54.0933 43.52C55.8933 42.68 57.3933 41.54 58.6533 40.04C59.9133 38.54 60.8133 36.8 61.4733 34.82C62.1333 32.84 62.4333 30.74 62.4333 28.52C62.4333 26.3 62.1333 24.2 61.4733 22.22C60.8133 20.24 59.9133 18.5 58.6533 17C57.3933 15.5 55.8933 14.36 54.0933 13.46C52.2333 12.56 50.1333 12.14 47.7933 12.14C45.4533 12.14 43.3533 12.56 41.5533 13.46C39.6933 14.36 38.1933 15.5 36.9333 17C35.6733 18.5 34.7733 20.24 34.1133 22.22C33.4533 24.2 33.1533 26.3 33.1533 28.52C33.1533 30.74 33.4533 32.84 34.1133 34.82C34.7733 36.8 35.6733 38.54 36.9333 40.04C38.1933 41.54 39.6933 42.68 41.5533 43.52C43.3533 44.42 45.4533 44.84 47.7933 44.84ZM47.7933 41.72C45.9933 41.72 44.4333 41.36 43.0533 40.58C41.6733 39.8 40.5933 38.84 39.6933 37.58C38.7933 36.32 38.0733 34.94 37.6533 33.32C37.1733 31.76 36.9333 30.14 36.9333 28.52C36.9333 26.9 37.1733 25.28 37.6533 23.66C38.0733 22.1 38.7933 20.72 39.6933 19.46C40.5933 18.2 41.6733 17.24 43.0533 16.46C44.4333 15.68 45.9933 15.32 47.7933 15.32C49.5933 15.32 51.1533 15.68 52.5333 16.46C53.9133 17.24 55.0533 18.2 55.9533 19.46C56.8533 20.72 57.5133 22.1 57.9933 23.66C58.4133 25.28 58.6533 26.9 58.6533 28.52C58.6533 30.14 58.4133 31.76 57.9933 33.32C57.5133 34.94 56.8533 36.32 55.9533 37.58C55.0533 38.84 53.9133 39.8 52.5333 40.58C51.1533 41.36 49.5933 41.72 47.7933 41.72ZM71.8331 28.94V13.04H68.0531V44H71.8331V33.56L78.1331 27.74L90.0731 44H94.8131L80.8931 25.16L94.0331 13.04H88.9931L71.8331 28.94ZM111.016 44.84C113.356 44.84 115.456 44.42 117.316 43.52C119.116 42.68 120.616 41.54 121.876 40.04C123.136 38.54 124.036 36.8 124.696 34.82C125.356 32.84 125.656 30.74 125.656 28.52C125.656 26.3 125.356 24.2 124.696 22.22C124.036 20.24 123.136 18.5 121.876 17C120.616 15.5 119.116 14.36 117.316 13.46C115.456 12.56 113.356 12.14 111.016 12.14C108.676 12.14 106.576 12.56 104.776 13.46C102.916 14.36 101.416 15.5 100.156 17C98.8959 18.5 97.9959 20.24 97.3359 22.22C96.6759 24.2 96.3759 26.3 96.3759 28.52C96.3759 30.74 96.6759 32.84 97.3359 34.82C97.9959 36.8 98.8959 38.54 100.156 40.04C101.416 41.54 102.916 42.68 104.776 43.52C106.576 44.42 108.676 44.84 111.016 44.84ZM111.016 41.72C109.216 41.72 107.656 41.36 106.276 40.58C104.896 39.8 103.816 38.84 102.916 37.58C102.016 36.32 101.296 34.94 100.876 33.32C100.396 31.76 100.156 30.14 100.156 28.52C100.156 26.9 100.396 25.28 100.876 23.66C101.296 22.1 102.016 20.72 102.916 19.46C103.816 18.2 104.896 17.24 106.276 16.46C107.656 15.68 109.216 15.32 111.016 15.32C112.816 15.32 114.376 15.68 115.756 16.46C117.136 17.24 118.276 18.2 119.176 19.46C120.076 20.72 120.736 22.1 121.216 23.66C121.636 25.28 121.876 26.9 121.876 28.52C121.876 30.14 121.636 31.76 121.216 33.32C120.736 34.94 120.076 36.32 119.176 37.58C118.276 38.84 117.136 39.8 115.756 40.58C114.376 41.36 112.816 41.72 111.016 41.72ZM130.916 44.3C131.756 44.3 132.596 44.24 133.436 44.12C134.216 43.94 134.996 43.58 135.776 42.98C136.496 42.44 137.156 41.54 137.816 40.34C138.476 39.14 139.016 37.52 139.496 35.42C139.976 33.32 140.336 30.74 140.636 27.62C140.876 24.5 140.996 20.72 140.996 16.22H154.256V44H158.036V13.04H137.336C137.336 17.6 137.216 21.44 137.036 24.56C136.856 27.74 136.556 30.32 136.256 32.36C135.956 34.46 135.536 36.08 135.116 37.22C134.696 38.36 134.216 39.2 133.736 39.74C133.256 40.28 132.776 40.64 132.296 40.76C131.816 40.88 131.396 40.94 130.976 40.94C130.556 40.94 130.016 40.88 129.356 40.82C128.696 40.76 128.216 40.64 127.916 40.52V43.82C128.036 43.88 128.216 43.88 128.516 43.94C128.756 44.06 129.056 44.06 129.356 44.12L130.196 44.24C130.496 44.3 130.736 44.3 130.916 44.3ZM169.222 25.46V13.04H165.442V44H180.322C183.322 44 185.722 43.16 187.462 41.48C189.202 39.86 190.102 37.58 190.102 34.64C190.102 31.7 189.202 29.48 187.462 27.86C185.722 26.24 183.322 25.46 180.322 25.46H169.222ZM179.422 40.82H169.222V28.64H179.422C181.582 28.64 183.262 29.12 184.522 30.08C185.722 31.1 186.322 32.6 186.322 34.64C186.322 36.68 185.722 38.24 184.522 39.26C183.262 40.28 181.582 40.82 179.422 40.82ZM208.282 44.84C211.822 44.84 214.702 43.76 216.922 41.66C219.142 39.56 220.522 36.68 221.062 32.9H217.282C217.162 34.16 216.862 35.36 216.322 36.44C215.782 37.52 215.122 38.42 214.342 39.2C213.562 39.98 212.602 40.64 211.582 41.06C210.562 41.48 209.422 41.72 208.282 41.72C206.482 41.72 204.922 41.36 203.542 40.58C202.162 39.8 201.082 38.84 200.182 37.58C199.282 36.32 198.562 34.94 198.142 33.32C197.662 31.76 197.422 30.14 197.422 28.52C197.422 26.9 197.662 25.28 198.142 23.66C198.562 22.1 199.282 20.72 200.182 19.46C201.082 18.2 202.162 17.24 203.542 16.46C204.922 15.68 206.482 15.32 208.282 15.32C210.802 15.32 212.782 15.98 214.162 17.3C215.542 18.62 216.502 20.42 217.042 22.76H220.822C220.402 19.22 219.022 16.52 216.742 14.78C214.402 13.04 211.582 12.14 208.282 12.14C205.942 12.14 203.842 12.56 202.042 13.46C200.182 14.36 198.682 15.5 197.422 17C196.162 18.5 195.262 20.24 194.602 22.22C193.942 24.2 193.642 26.3 193.642 28.52C193.642 30.74 193.942 32.84 194.602 34.82C195.262 36.8 196.162 38.54 197.422 40.04C198.682 41.54 200.182 42.68 202.042 43.52C203.842 44.42 205.942 44.84 208.282 44.84ZM230.095 28.94V13.04H226.315V44H230.095V33.56L236.395 27.74L248.335 44H253.075L239.155 25.16L252.295 13.04H247.255L230.095 28.94ZM259.918 39.56V13.04H256.138V44H260.818L277.918 17.48V44H281.698V13.04H277.018L259.918 39.56ZM301.434 8.48C303.954 8.48 305.934 7.82 307.374 6.44C308.814 5.12 309.774 3.2 310.194 0.679996H307.854C307.554 2.24 306.834 3.44 305.754 4.28C304.614 5.18 303.234 5.6 301.494 5.6C299.694 5.6 298.254 5.18 297.234 4.28C296.154 3.38 295.494 2.18 295.314 0.679996H292.974C293.274 3.2 294.174 5.12 295.554 6.44C296.934 7.82 298.914 8.48 301.434 8.48ZM292.554 39.56V13.04H288.774V44H293.454L310.554 17.48V44H314.334V13.04H309.654L292.554 39.56Z" fill="#F9F8F6"/>
<path d="M113.886 82.036C113.233 82.036 112.906 81.6456 112.906 80.8648C112.906 80.3144 113.079 79.5592 113.425 78.5992C113.77 77.6392 114.116 76.8072 114.462 76.1032C115.089 74.8744 115.537 74.0296 115.806 73.5688C116.1 70.8168 116.362 68.8456 116.593 67.6552C116.286 67.6936 115.978 67.7128 115.671 67.7128C115.364 67.7128 115.178 67.5528 115.114 67.2328C115.114 66.9768 115.191 66.8296 115.345 66.7912C115.396 66.868 115.582 66.9064 115.902 66.9064C116.222 66.9064 116.51 66.8936 116.766 66.868C117.598 63.0408 119.018 61.1272 121.028 61.1272C121.284 61.1272 121.406 61.2232 121.393 61.4152C121.38 61.5432 121.335 61.6072 121.258 61.6072C120.388 61.6072 119.69 62.0616 119.166 62.9704C118.641 63.8792 118.218 65.1528 117.898 66.7912C119.422 66.676 120.35 66.6184 120.682 66.6184C120.798 66.6184 120.842 66.6952 120.817 66.8488C120.804 67.0024 120.676 67.0792 120.433 67.0792C120.19 67.0792 119.3 67.2072 117.764 67.4632C117.598 68.4104 117.418 69.7864 117.226 71.5912C117.047 73.396 116.9 74.772 116.785 75.7192C116.67 76.6664 116.535 77.4984 116.382 78.2152C116.228 78.932 116.042 79.5912 115.825 80.1928C115.377 81.4216 114.73 82.036 113.886 82.036ZM113.905 81.4792C114.302 81.4792 114.602 81.1464 114.807 80.4808C115.038 79.7512 115.204 78.9896 115.306 78.196C115.46 77.0056 115.594 75.7832 115.71 74.5288C114.75 76.564 114.167 77.908 113.962 78.5608C113.617 79.6616 113.444 80.4232 113.444 80.8456C113.444 81.268 113.598 81.4792 113.905 81.4792ZM121.604 64.2184C121.45 64.2184 121.367 64.0904 121.354 63.8344C121.354 63.028 121.489 62.2856 121.758 61.6072C122.039 60.9288 122.385 60.5896 122.794 60.5896C122.948 60.5896 123.025 60.6856 123.025 60.8776C122.935 61.0184 122.852 61.1464 122.775 61.2616C122.698 61.3768 122.615 61.5112 122.526 61.6648C122.449 61.8184 122.366 61.9912 122.276 62.1832C122.186 62.3752 122.103 62.5672 122.026 62.7592C121.86 63.1816 121.777 63.5912 121.777 63.988C121.777 64.1416 121.719 64.2184 121.604 64.2184ZM123.448 78.8296C122.706 78.8296 122.156 78.4392 121.797 77.6584C121.452 76.8776 121.279 75.7064 121.279 74.1448C121.279 72.5832 121.509 70.7336 121.97 68.596C122.431 66.4584 122.968 64.6856 123.583 63.2776C124.21 61.8696 124.754 61.1656 125.215 61.1656C125.432 61.1656 125.541 61.2936 125.541 61.5496C125.272 62.164 124.933 63.092 124.524 64.3336C124.114 65.5624 123.768 66.7016 123.487 67.7512C123.218 68.8008 122.968 70.0296 122.738 71.4376C122.52 72.8456 122.412 74.0552 122.412 75.0664C122.412 76.0648 122.508 76.8328 122.7 77.3704C122.904 77.9208 123.18 78.196 123.525 78.196C123.82 78.196 124.101 78.0552 124.37 77.7736C124.639 77.5048 124.831 77.236 124.946 76.9672C125.01 76.8264 125.125 76.788 125.292 76.852C125.356 76.8776 125.368 76.9288 125.33 77.0056C125.304 77.0952 125.253 77.204 125.176 77.332C125.112 77.46 124.991 77.6584 124.812 77.9272C124.428 78.5288 123.973 78.8296 123.448 78.8296ZM126.203 82.036C127.355 82.036 128.257 81.492 128.91 80.404C129.473 79.444 129.908 78.2472 130.215 76.8136C127.899 76.8648 126.119 77.748 124.878 79.4632C124.801 79.5784 124.679 79.5976 124.513 79.5208C124.423 79.4696 124.398 79.4056 124.436 79.3288C124.987 78.4968 125.755 77.7864 126.74 77.1976C127.726 76.6216 128.923 76.308 130.331 76.2568C130.471 75.6168 130.606 74.868 130.734 74.0104C130.862 73.1528 131.009 72.3208 131.175 71.5144H131.003C129.339 74.4712 128.071 75.9496 127.201 75.9496C126.228 75.9496 125.742 75.2008 125.742 73.7032C125.742 72.2056 126.062 70.7016 126.702 69.1912C127.342 67.668 127.924 66.8488 128.449 66.7336L128.564 66.7144C128.782 66.7144 128.891 66.8552 128.891 67.1368C128.75 67.4824 128.571 67.9368 128.353 68.5C128.135 69.0504 127.847 69.9656 127.489 71.2456C127.131 72.5128 126.951 73.5048 126.951 74.2216C126.951 74.9256 127.105 75.2776 127.412 75.2776C127.771 75.2776 128.347 74.6568 129.14 73.4152C130.305 71.5976 131.316 69.7544 132.174 67.8856C132.545 67.1048 132.942 66.7144 133.364 66.7144C133.633 66.7144 133.767 66.8616 133.767 67.156C133.524 67.604 133.23 68.4424 132.884 69.6712C132.539 70.9 132.257 72.1416 132.039 73.396C131.822 74.6376 131.636 75.6104 131.483 76.3144C132.455 76.4808 133.019 76.9032 133.172 77.5816C133.198 77.6968 133.211 77.8504 133.211 78.0424C133.211 78.2472 133.134 78.42 132.98 78.5608C132.827 78.7144 132.692 78.7912 132.577 78.7912C132.603 78.7016 132.609 78.5416 132.596 78.3112C132.583 78.0936 132.539 77.908 132.462 77.7544C132.398 77.6008 132.27 77.4408 132.078 77.2744C131.886 77.108 131.636 76.9864 131.329 76.9096C130.343 80.6216 128.635 82.4776 126.203 82.4776C125.153 82.4776 124.455 82.1064 124.11 81.364C124.097 81.3256 124.091 81.2936 124.091 81.268C124.091 81.1912 124.161 81.14 124.302 81.1144C124.43 81.1016 124.526 81.1464 124.59 81.2488C124.82 81.7736 125.358 82.036 126.203 82.036ZM135.094 74.3944C135.094 72.5 135.286 70.8104 135.67 69.3256C136.067 67.8408 136.566 67.0984 137.168 67.0984C137.462 67.0984 137.609 67.2584 137.609 67.5784C137.481 67.9112 137.321 68.3528 137.129 68.9032C136.937 69.4536 136.681 70.452 136.361 71.8984C136.054 73.332 135.9 74.612 135.9 75.7384C135.9 75.9176 135.804 76.0072 135.612 76.0072C135.267 76.0072 135.094 75.4696 135.094 74.3944ZM137.667 65.2936C137.398 65.2936 137.264 65.0376 137.264 64.5256C137.264 64.2184 137.347 63.8984 137.513 63.5656C137.68 63.22 137.916 63.0472 138.224 63.0472C138.48 63.0472 138.608 63.1944 138.608 63.4888C138.608 63.7832 138.371 64.276 137.897 64.9672L137.667 65.2936ZM140.268 72.916C141.92 68.8328 143.526 66.7912 145.088 66.7912C145.74 66.7912 146.067 67.1048 146.067 67.732C145.977 68.0264 145.862 68.4168 145.721 68.9032C145.58 69.3768 145.388 70.2344 145.145 71.476C144.915 72.7176 144.8 73.8056 144.8 74.74C144.8 76.0968 144.998 76.7752 145.395 76.7752C145.548 76.7752 145.696 76.7112 145.836 76.5832C145.977 76.468 146.073 76.4104 146.124 76.4104C146.304 76.4104 146.304 76.5512 146.124 76.8328C146.06 76.9224 145.939 77.044 145.76 77.1976C145.593 77.3512 145.42 77.428 145.241 77.428C144.755 77.428 144.371 77.076 144.089 76.372C143.82 75.6808 143.686 74.7784 143.686 73.6648C143.686 71.8984 143.961 69.9592 144.512 67.8472C144.563 67.6808 144.512 67.5976 144.358 67.5976C144.256 67.5976 144.14 67.6488 144.012 67.7512C143.398 68.2888 142.752 69.1784 142.073 70.42C141.395 71.6616 140.864 72.7752 140.48 73.7608C140.096 74.7336 139.904 75.3032 139.904 75.4696C139.904 75.6232 139.814 75.7 139.635 75.7C139.225 75.7 139.02 75.1944 139.02 74.1832C139.02 72.276 139.212 70.548 139.596 68.9992C139.993 67.4504 140.467 66.676 141.017 66.676C141.248 66.676 141.363 66.8168 141.363 67.0984C140.774 69.0056 140.352 70.9448 140.096 72.916H140.268ZM149.024 76.0264C147.974 76.0264 147.449 75.2008 147.449 73.5496C147.449 72.564 147.692 71.4824 148.179 70.3048C148.857 68.6536 149.747 67.5272 150.848 66.9256C151.321 66.6696 151.763 66.5416 152.172 66.5416C152.582 66.5416 152.902 66.6312 153.132 66.8104C153.376 66.9896 153.529 67.1688 153.593 67.348L153.708 67.5976C153.67 67.8152 153.561 67.924 153.382 67.924C153.177 67.924 153.056 67.8792 153.017 67.7896C152.992 67.6872 152.96 67.604 152.921 67.54C152.883 67.4632 152.793 67.3672 152.652 67.252C152.512 67.124 152.352 67.06 152.172 67.06C151.34 67.06 150.585 67.8088 149.907 69.3064C149.139 71.0344 148.755 72.66 148.755 74.1832C148.755 74.9512 148.908 75.3352 149.216 75.3352C149.638 75.3352 150.316 74.5992 151.251 73.1272C152.198 71.6424 153.049 70.1256 153.804 68.5768C154.188 67.796 154.592 67.4056 155.014 67.4056C155.283 67.4056 155.417 67.5592 155.417 67.8664C155.366 67.956 155.289 68.1032 155.187 68.308C155.084 68.5128 154.899 69.1016 154.63 70.0744C154.361 71.0344 154.118 72.1416 153.9 73.396C153.683 74.6376 153.497 75.6104 153.344 76.3144C154.316 76.4808 154.88 76.9032 155.033 77.5816C155.059 77.6968 155.072 77.8504 155.072 78.0424C155.072 78.2472 154.995 78.42 154.841 78.5608C154.688 78.7144 154.553 78.7912 154.438 78.7912C154.464 78.7016 154.47 78.5416 154.457 78.3112C154.444 78.0936 154.4 77.908 154.323 77.7544C154.259 77.6008 154.131 77.4408 153.939 77.2744C153.747 77.108 153.497 76.9864 153.19 76.9096C152.793 78.4712 152.224 79.7576 151.481 80.7688C150.636 81.908 149.497 82.4776 148.064 82.4776C147.014 82.4776 146.316 82.1064 145.971 81.364C145.958 81.3256 145.952 81.2936 145.952 81.268C145.952 81.1912 146.022 81.1336 146.163 81.0952C146.304 81.0696 146.4 81.1208 146.451 81.2488C146.681 81.7736 147.219 82.036 148.064 82.036C149.216 82.036 150.112 81.492 150.752 80.404C151.328 79.444 151.769 78.2472 152.076 76.8136C149.772 76.8648 147.993 77.748 146.739 79.4632C146.662 79.5784 146.54 79.5976 146.374 79.5208C146.284 79.4696 146.259 79.4056 146.297 79.3288C146.848 78.4968 147.616 77.7864 148.601 77.1976C149.587 76.6216 150.784 76.308 152.192 76.2568C152.332 75.6168 152.454 74.9448 152.556 74.2408C152.672 73.524 152.768 72.9608 152.844 72.5512C152.921 72.1416 152.972 71.8472 152.998 71.668H152.787C151.097 74.5736 149.843 76.0264 149.024 76.0264ZM164.897 70.4584C164.219 71.6872 163.688 72.7752 163.304 73.7224C162.933 74.6696 162.747 75.2328 162.747 75.412C162.747 75.5784 162.657 75.6616 162.478 75.6616C162.094 75.6616 161.902 75.1496 161.902 74.1256C161.902 72.0904 162.107 70.0488 162.517 68.0008C162.926 65.94 163.413 64.2952 163.976 63.0664C164.539 61.8248 165.064 61.204 165.55 61.204C165.755 61.204 165.857 61.3064 165.857 61.5112C165.179 63.0088 164.609 64.7176 164.149 66.6376C163.701 68.5576 163.323 70.6056 163.016 72.7816H163.15C164.776 68.788 166.369 66.7912 167.931 66.7912C168.584 66.7912 168.91 67.1048 168.91 67.732C168.821 68.0264 168.705 68.4168 168.565 68.9032C168.424 69.3768 168.238 70.2344 168.008 71.476C167.777 72.7176 167.662 73.8056 167.662 74.74C167.662 76.0968 167.861 76.7752 168.257 76.7752C168.398 76.7752 168.539 76.7112 168.68 76.5832C168.821 76.468 168.917 76.4104 168.968 76.4104C169.147 76.4104 169.141 76.5512 168.949 76.8328C168.897 76.9224 168.782 77.044 168.603 77.1976C168.437 77.3512 168.27 77.428 168.104 77.428C167.605 77.428 167.214 77.076 166.933 76.372C166.664 75.6808 166.529 74.7784 166.529 73.6648C166.529 71.7832 166.811 69.844 167.374 67.8472C167.4 67.6552 167.323 67.572 167.144 67.5976C167.054 67.6104 166.965 67.6616 166.875 67.7512C166.235 68.3272 165.576 69.2296 164.897 70.4584ZM170.649 74.3944C170.649 72.5 170.841 70.8104 171.225 69.3256C171.621 67.8408 172.121 67.0984 172.722 67.0984C173.017 67.0984 173.164 67.2584 173.164 67.5784C173.036 67.9112 172.876 68.3528 172.684 68.9032C172.492 69.4536 172.236 70.452 171.916 71.8984C171.609 73.332 171.455 74.612 171.455 75.7384C171.455 75.9176 171.359 76.0072 171.167 76.0072C170.821 76.0072 170.649 75.4696 170.649 74.3944ZM173.221 65.2936C172.953 65.2936 172.818 65.0376 172.818 64.5256C172.818 64.2184 172.901 63.8984 173.068 63.5656C173.234 63.22 173.471 63.0472 173.778 63.0472C174.034 63.0472 174.162 63.1944 174.162 63.4888C174.162 63.7832 173.925 64.276 173.452 64.9672L173.221 65.2936ZM175.977 76.0264C174.927 76.0264 174.402 75.2008 174.402 73.5496C174.402 72.564 174.646 71.4824 175.132 70.3048C175.81 68.6536 176.7 67.5272 177.801 66.9256C178.274 66.6696 178.716 66.5416 179.126 66.5416C179.535 66.5416 179.855 66.6312 180.086 66.8104C180.329 66.9896 180.482 67.1688 180.546 67.348L180.662 67.5976C180.623 67.8152 180.514 67.924 180.335 67.924C180.13 67.924 180.009 67.8792 179.97 67.7896C179.945 67.6872 179.913 67.604 179.874 67.54C179.836 67.4632 179.746 67.3672 179.606 67.252C179.465 67.124 179.305 67.06 179.126 67.06C178.294 67.06 177.538 67.8088 176.86 69.3064C176.092 71.0344 175.708 72.66 175.708 74.1832C175.708 74.9512 175.862 75.3352 176.169 75.3352C176.591 75.3352 177.27 74.5992 178.204 73.1272C179.151 71.6424 180.002 70.1256 180.758 68.5768C181.142 67.796 181.545 67.4056 181.967 67.4056C182.236 67.4056 182.37 67.5592 182.37 67.8664C182.319 67.956 182.242 68.1032 182.14 68.308C182.038 68.5128 181.852 69.1016 181.583 70.0744C181.314 71.0344 181.071 72.1416 180.854 73.396C180.636 74.6376 180.45 75.6104 180.297 76.3144C181.27 76.4808 181.833 76.9032 181.986 77.5816C182.012 77.6968 182.025 77.8504 182.025 78.0424C182.025 78.2472 181.948 78.42 181.794 78.5608C181.641 78.7144 181.506 78.7912 181.391 78.7912C181.417 78.7016 181.423 78.5416 181.41 78.3112C181.398 78.0936 181.353 77.908 181.276 77.7544C181.212 77.6008 181.084 77.4408 180.892 77.2744C180.7 77.108 180.45 76.9864 180.143 76.9096C179.746 78.4712 179.177 79.7576 178.434 80.7688C177.59 81.908 176.45 82.4776 175.017 82.4776C173.967 82.4776 173.27 82.1064 172.924 81.364C172.911 81.3256 172.905 81.2936 172.905 81.268C172.905 81.1912 172.975 81.1336 173.116 81.0952C173.257 81.0696 173.353 81.1208 173.404 81.2488C173.634 81.7736 174.172 82.036 175.017 82.036C176.169 82.036 177.065 81.492 177.705 80.404C178.281 79.444 178.722 78.2472 179.03 76.8136C176.726 76.8648 174.946 77.748 173.692 79.4632C173.615 79.5784 173.494 79.5976 173.327 79.5208C173.238 79.4696 173.212 79.4056 173.25 79.3288C173.801 78.4968 174.569 77.7864 175.554 77.1976C176.54 76.6216 177.737 76.308 179.145 76.2568C179.286 75.6168 179.407 74.9448 179.51 74.2408C179.625 73.524 179.721 72.9608 179.798 72.5512C179.874 72.1416 179.926 71.8472 179.951 71.668H179.74C178.05 74.5736 176.796 76.0264 175.977 76.0264ZM186.718 70.4584C186.039 71.6872 185.508 72.7752 185.124 73.7224C184.753 74.6696 184.567 75.2328 184.567 75.412C184.567 75.5784 184.478 75.6616 184.299 75.6616C183.915 75.6616 183.723 75.1496 183.723 74.1256C183.723 72.0904 183.927 70.0488 184.337 68.0008C184.747 65.94 185.233 64.2952 185.796 63.0664C186.359 61.8248 186.884 61.204 187.371 61.204C187.575 61.204 187.678 61.3064 187.678 61.5112C186.999 63.0088 186.43 64.7176 185.969 66.6376C185.521 68.5576 185.143 70.6056 184.836 72.7816H184.971C186.596 68.788 188.19 66.7912 189.751 66.7912C190.404 66.7912 190.731 67.1048 190.731 67.732C190.641 68.0264 190.526 68.4168 190.385 68.9032C190.244 69.3768 190.059 70.2344 189.828 71.476C189.598 72.7176 189.483 73.8056 189.483 74.74C189.483 76.0968 189.681 76.7752 190.078 76.7752C190.219 76.7752 190.359 76.7112 190.5 76.5832C190.641 76.468 190.737 76.4104 190.788 76.4104C190.967 76.4104 190.961 76.5512 190.769 76.8328C190.718 76.9224 190.603 77.044 190.423 77.1976C190.257 77.3512 190.091 77.428 189.924 77.428C189.425 77.428 189.035 77.076 188.753 76.372C188.484 75.6808 188.35 74.7784 188.35 73.6648C188.35 71.7832 188.631 69.844 189.195 67.8472C189.22 67.6552 189.143 67.572 188.964 67.5976C188.875 67.6104 188.785 67.6616 188.695 67.7512C188.055 68.3272 187.396 69.2296 186.718 70.4584Z" fill="#F9F8F6"/>
<path d="M15 68.6152L99.7221 68.6152" stroke="#F9F8F6" stroke-width="1.5"/>
<path d="M208.963 68.918H299.791" stroke="#F9F8F6" stroke-width="1.5"/>
</svg>
